<svg width="20" height="20" viewBox="0 0 20 20" fill="none" xmlns="http://www.w3.org/2000/svg">
<path d="M17 9C18.3813 9 19.5 7.88125 19.5 6.5C19.5 5.11875 18.3813 4 17 4C15.6187 4 14.5 5.11875 14.5 6.5C14.5 7.88125 15.6187 9 17 9ZM17 5C17.8281 5 18.5 5.67188 18.5 6.5C18.5 7.32812 17.8281 8 17 8C16.1719 8 15.5 7.32812 15.5 6.5C15.5 5.67188 16.1719 5 17 5ZM10 10C11.9344 10 13.5 8.43438 13.5 6.5C13.5 4.56562 11.9344 3 10 3C8.06562 3 6.5 4.56562 6.5 6.5C6.5 8.43438 8.06562 10 10 10ZM10 4C11.3781 4 12.5 5.12188 12.5 6.5C12.5 7.87812 11.3781 9 10 9C8.62188 9 7.5 7.87812 7.5 6.5C7.5 5.12188 8.62188 4 10 4ZM17.625 10H16.375C15.9 10 15.4594 10.15 15.0906 10.4031C15.3844 10.6031 15.65 10.8375 15.8844 11.1031C16.0375 11.0375 16.2031 11 16.375 11H17.625C18.3813 11 19 11.6719 19 12.5C19 12.775 19.225 13 19.5 13C19.775 13 20 12.775 20 12.5C20 11.1219 18.9344 10 17.625 10V10ZM3 9C4.38125 9 5.5 7.88125 5.5 6.5C5.5 5.11875 4.38125 4 3 4C1.61875 4 0.5 5.11875 0.5 6.5C0.5 7.88125 1.61875 9 3 9ZM3 5C3.82812 5 4.5 5.67188 4.5 6.5C4.5 7.32812 3.82812 8 3 8C2.17188 8 1.5 7.32812 1.5 6.5C1.5 5.67188 2.17188 5 3 5ZM12.5031 10.625C11.4594 10.625 11.2 11 10 11C8.8 11 8.54062 10.625 7.49687 10.625C6.3625 10.625 5.25938 11.1312 4.6125 12.0906C4.225 12.6656 4 13.3563 4 14.1V15.5C4 16.3281 4.67188 17 5.5 17H14.5C15.3281 17 16 16.3281 16 15.5V14.1C16 13.3563 15.775 12.6656 15.3875 12.0906C14.7406 11.1312 13.6375 10.625 12.5031 10.625V10.625ZM15 15.5C15 15.775 14.775 16 14.5 16H5.5C5.225 16 5 15.775 5 15.5V14.1C5 13.5813 5.15313 13.0781 5.44063 12.65C5.87188 12.0094 6.64063 11.625 7.49375 11.625C8.35 11.625 8.65625 12 10 12C11.3438 12 11.65 11.625 12.5031 11.625C13.3563 11.625 14.125 12.0094 14.5562 12.65C14.8437 13.0781 14.9969 13.5813 14.9969 14.1V15.5H15ZM4.90938 10.4031C4.5375 10.15 4.09688 10 3.625 10H2.375C1.06562 10 0 11.1219 0 12.5C0 12.775 0.225 13 0.5 13C0.775 13 1 12.775 1 12.5C1 11.6719 1.61875 11 2.375 11H3.625C3.79688 11 3.9625 11.0375 4.11562 11.1031C4.35 10.8375 4.61875 10.6031 4.90938 10.4031V10.4031Z" fill="#444444"/>
</svg>
