<svg width="30" height="30" viewBox="0 0 30 30" fill="none" xmlns="http://www.w3.org/2000/svg">
<path d="M25.5 16C27.5719 16 29.25 14.3219 29.25 12.25C29.25 10.1781 27.5719 8.5 25.5 8.5C23.4281 8.5 21.75 10.1781 21.75 12.25C21.75 14.3219 23.4281 16 25.5 16ZM25.5 10C26.7422 10 27.75 11.0078 27.75 12.25C27.75 13.4922 26.7422 14.5 25.5 14.5C24.2578 14.5 23.25 13.4922 23.25 12.25C23.25 11.0078 24.2578 10 25.5 10ZM15 17.5C17.9016 17.5 20.25 15.1516 20.25 12.25C20.25 9.34844 17.9016 7 15 7C12.0984 7 9.75 9.34844 9.75 12.25C9.75 15.1516 12.0984 17.5 15 17.5ZM15 8.5C17.0672 8.5 18.75 10.1828 18.75 12.25C18.75 14.3172 17.0672 16 15 16C12.9328 16 11.25 14.3172 11.25 12.25C11.25 10.1828 12.9328 8.5 15 8.5ZM26.4375 17.5H24.5625C23.85 17.5 23.1891 17.725 22.6359 18.1047C23.0766 18.4047 23.475 18.7562 23.8266 19.1547C24.0562 19.0562 24.3047 19 24.5625 19H26.4375C27.5719 19 28.5 20.0078 28.5 21.25C28.5 21.6625 28.8375 22 29.25 22C29.6625 22 30 21.6625 30 21.25C30 19.1828 28.4016 17.5 26.4375 17.5V17.5ZM4.5 16C6.57188 16 8.25 14.3219 8.25 12.25C8.25 10.1781 6.57188 8.5 4.5 8.5C2.42812 8.5 0.75 10.1781 0.75 12.25C0.75 14.3219 2.42812 16 4.5 16ZM4.5 10C5.74219 10 6.75 11.0078 6.75 12.25C6.75 13.4922 5.74219 14.5 4.5 14.5C3.25781 14.5 2.25 13.4922 2.25 12.25C2.25 11.0078 3.25781 10 4.5 10ZM18.7547 18.4375C17.1891 18.4375 16.8 19 15 19C13.2 19 12.8109 18.4375 11.2453 18.4375C9.54375 18.4375 7.88906 19.1969 6.91875 20.6359C6.3375 21.4984 6 22.5344 6 23.65V25.75C6 26.9922 7.00781 28 8.25 28H21.75C22.9922 28 24 26.9922 24 25.75V23.65C24 22.5344 23.6625 21.4984 23.0812 20.6359C22.1109 19.1969 20.4563 18.4375 18.7547 18.4375V18.4375ZM22.5 25.75C22.5 26.1625 22.1625 26.5 21.75 26.5H8.25C7.8375 26.5 7.5 26.1625 7.5 25.75V23.65C7.5 22.8719 7.72969 22.1172 8.16094 21.475C8.80781 20.5141 9.96094 19.9375 11.2406 19.9375C12.525 19.9375 12.9844 20.5 15 20.5C17.0156 20.5 17.475 19.9375 18.7547 19.9375C20.0344 19.9375 21.1875 20.5141 21.8344 21.475C22.2656 22.1172 22.4953 22.8719 22.4953 23.65V25.75H22.5ZM7.36406 18.1047C6.80625 17.725 6.14531 17.5 5.4375 17.5H3.5625C1.59844 17.5 0 19.1828 0 21.25C0 21.6625 0.3375 22 0.75 22C1.1625 22 1.5 21.6625 1.5 21.25C1.5 20.0078 2.42812 19 3.5625 19H5.4375C5.69531 19 5.94375 19.0562 6.17344 19.1547C6.525 18.7562 6.92813 18.4047 7.36406 18.1047V18.1047Z" fill="#444444"/>
</svg>
