<svg width="30" height="30" viewBox="0 0 30 30" fill="none" xmlns="http://www.w3.org/2000/svg">
<path d="M24.625 1H4.375C2.51348 1 1 2.51348 1 4.375V19.5625C1 21.424 2.51348 22.9375 4.375 22.9375H9.4375V27.3672C9.4375 27.7416 9.74336 28 10.0703 28C10.1969 28 10.3287 27.9631 10.4447 27.8734L17.0312 22.9375H24.625C26.4865 22.9375 28 21.424 28 19.5625V4.375C28 2.51348 26.4865 1 24.625 1ZM26.3125 19.5625C26.3125 20.4906 25.5531 21.25 24.625 21.25H16.467L16.0187 21.5875L11.125 25.2578V21.25H4.375C3.44687 21.25 2.6875 20.4906 2.6875 19.5625V4.375C2.6875 3.44687 3.44687 2.6875 4.375 2.6875H24.625C25.5531 2.6875 26.3125 3.44687 26.3125 4.375V19.5625ZM15.7656 13.6562H8.17188C7.93984 13.6562 7.75 13.8461 7.75 14.0781V14.9219C7.75 15.1539 7.93984 15.3438 8.17188 15.3438H15.7656C15.9977 15.3438 16.1875 15.1539 16.1875 14.9219V14.0781C16.1875 13.8461 15.9977 13.6562 15.7656 13.6562ZM20.8281 8.59375H8.17188C7.93984 8.59375 7.75 8.78359 7.75 9.01562V9.85938C7.75 10.0914 7.93984 10.2812 8.17188 10.2812H20.8281C21.0602 10.2812 21.25 10.0914 21.25 9.85938V9.01562C21.25 8.78359 21.0602 8.59375 20.8281 8.59375Z" fill="#444444"/>
</svg>
