<svg width="20" height="20" viewBox="0 0 20 20" fill="none" xmlns="http://www.w3.org/2000/svg">
<path d="M16.125 2H4.875C3.84082 2 3 2.84082 3 3.875V12.3125C3 13.3467 3.84082 14.1875 4.875 14.1875H7.6875V16.6484C7.6875 16.8564 7.85742 17 8.03906 17C8.10938 17 8.18262 16.9795 8.24707 16.9297L11.9062 14.1875H16.125C17.1592 14.1875 18 13.3467 18 12.3125V3.875C18 2.84082 17.1592 2 16.125 2ZM17.0625 12.3125C17.0625 12.8281 16.6406 13.25 16.125 13.25H11.5928L11.3437 13.4375L8.625 15.4766V13.25H4.875C4.35937 13.25 3.9375 12.8281 3.9375 12.3125V3.875C3.9375 3.35937 4.35937 2.9375 4.875 2.9375H16.125C16.6406 2.9375 17.0625 3.35937 17.0625 3.875V12.3125ZM11.2031 9.03125H6.98438C6.85547 9.03125 6.75 9.13672 6.75 9.26562V9.73438C6.75 9.86328 6.85547 9.96875 6.98438 9.96875H11.2031C11.332 9.96875 11.4375 9.86328 11.4375 9.73438V9.26562C11.4375 9.13672 11.332 9.03125 11.2031 9.03125ZM14.0156 6.21875H6.98438C6.85547 6.21875 6.75 6.32422 6.75 6.45312V6.92188C6.75 7.05078 6.85547 7.15625 6.98438 7.15625H14.0156C14.1445 7.15625 14.25 7.05078 14.25 6.92188V6.45312C14.25 6.32422 14.1445 6.21875 14.0156 6.21875Z" fill="#444444"/>
</svg>
