<svg width="30" height="30" viewBox="0 0 30 30" fill="none" xmlns="http://www.w3.org/2000/svg">
<path d="M9.70312 16.6129C9.70312 17.2393 9.19792 17.7167 8.55729 17.7167C8.07812 17.7167 7.72396 17.4498 7.72396 16.9467C7.72396 16.3203 8.21875 15.8172 8.85417 15.8172C9.33854 15.8172 9.70312 16.1098 9.70312 16.6129ZM4.19271 14.123H3.94792C3.86979 14.123 3.79167 14.1743 3.78125 14.2616L3.55729 15.6324L3.98437 15.617C4.55729 15.617 5 15.54 5.10417 14.8879C5.22396 14.2 4.78125 14.123 4.19271 14.123V14.123ZM18.9844 14.123H18.75C18.6562 14.123 18.5937 14.1743 18.5833 14.2616L18.3646 15.6324L18.7812 15.617C19.4583 15.617 19.9271 15.4629 19.9271 14.6929C19.9219 14.1487 19.4271 14.123 18.9844 14.123V14.123ZM30 7.46429V25.5357C30 26.8962 28.8802 28 27.5 28H2.5C1.11979 28 0 26.8962 0 25.5357V7.46429C0 6.10379 1.11979 5 2.5 5H27.5C28.8802 5 30 6.10379 30 7.46429ZM6.68229 14.4156C6.68229 13.3375 5.83854 12.9781 4.875 12.9781H2.79167C2.66146 12.9781 2.53125 13.0808 2.52083 13.2194L1.66667 18.4612C1.65104 18.5638 1.72917 18.6665 1.83333 18.6665H2.82292C2.96354 18.6665 3.09375 18.5176 3.10937 18.3739L3.34375 17.0083C3.39583 16.6386 4.03125 16.767 4.28125 16.767C5.77083 16.767 6.68229 15.8942 6.68229 14.4156V14.4156ZM11.0677 14.8674H10.0781C9.88021 14.8674 9.86979 15.1498 9.85937 15.2884C9.55729 14.852 9.11979 14.775 8.625 14.775C7.34896 14.775 6.375 15.8788 6.375 17.0955C6.375 18.0967 7.01042 18.7487 8.02604 18.7487C8.49479 18.7487 9.07813 18.4971 9.40625 18.1377C9.38021 18.2147 9.35417 18.379 9.35417 18.456C9.35417 18.5741 9.40625 18.6614 9.52083 18.6614H10.4167C10.5573 18.6614 10.6771 18.5125 10.7031 18.3688L11.2344 15.0676C11.25 14.9701 11.1719 14.8674 11.0677 14.8674ZM13.1771 19.8935L16.4948 15.1395C16.5208 15.1138 16.5208 15.0882 16.5208 15.0522C16.5208 14.965 16.4427 14.8725 16.3542 14.8725H15.3542C15.2656 14.8725 15.1719 14.9239 15.1198 15.0009L13.7396 17.0031L13.1667 15.0779C13.125 14.965 13.0104 14.8725 12.8802 14.8725H11.9063C11.8177 14.8725 11.7396 14.965 11.7396 15.0522C11.7396 15.1138 12.7552 17.9683 12.8438 18.2404C12.7031 18.4355 11.776 19.7087 11.776 19.8627C11.776 19.9551 11.8542 20.027 11.9427 20.027H12.9427C13.0365 20.0219 13.125 19.9705 13.1771 19.8935V19.8935ZM21.474 14.4156C21.474 13.3375 20.6302 12.9781 19.6667 12.9781H17.599C17.4583 12.9781 17.3281 13.0808 17.3125 13.2194L16.4688 18.456C16.4583 18.5587 16.5365 18.6614 16.6354 18.6614H17.7031C17.8073 18.6614 17.8854 18.5844 17.9115 18.4971L18.1458 17.0083C18.1979 16.6386 18.8333 16.767 19.0833 16.767C20.5625 16.767 21.474 15.8942 21.474 14.4156ZM25.8594 14.8674H24.8698C24.6719 14.8674 24.6615 15.1498 24.6458 15.2884C24.3594 14.852 23.9167 14.775 23.4115 14.775C22.1354 14.775 21.1615 15.8788 21.1615 17.0955C21.1615 18.0967 21.7969 18.7487 22.8125 18.7487C23.2969 18.7487 23.8802 18.4971 24.1927 18.1377C24.1771 18.2147 24.1406 18.379 24.1406 18.456C24.1406 18.5741 24.1927 18.6614 24.3073 18.6614H25.2083C25.349 18.6614 25.4687 18.5125 25.4948 18.3688L26.026 15.0676C26.0417 14.9701 25.9635 14.8674 25.8594 14.8674V14.8674ZM28.3333 13.1578C28.3333 13.0551 28.2552 12.9781 28.1667 12.9781H27.2031C27.125 12.9781 27.0469 13.0397 27.0365 13.1167L26.1927 18.456L26.1771 18.4817C26.1771 18.5741 26.2552 18.6614 26.3594 18.6614H27.2187C27.349 18.6614 27.4792 18.5125 27.4896 18.3688L28.3333 13.1732V13.1578V13.1578ZM23.6458 15.8172C23.0104 15.8172 22.5156 16.3152 22.5156 16.9467C22.5156 17.4446 22.8802 17.7167 23.3594 17.7167C23.9844 17.7167 24.4896 17.2444 24.4896 16.6129C24.4948 16.1098 24.1302 15.8172 23.6458 15.8172Z" fill="#444444"/>
</svg>
