<svg width="20" height="20" viewBox="0 0 20 20" fill="none" xmlns="http://www.w3.org/2000/svg">
<path d="M6.82188 10.0688C6.82188 10.45 6.51875 10.7406 6.13438 10.7406C5.84688 10.7406 5.63438 10.5781 5.63438 10.2719C5.63438 9.89063 5.93125 9.58437 6.3125 9.58437C6.60313 9.58437 6.82188 9.7625 6.82188 10.0688ZM3.51562 8.55312H3.36875C3.32188 8.55312 3.275 8.58437 3.26875 8.6375L3.13438 9.47188L3.39062 9.4625C3.73438 9.4625 4 9.41563 4.0625 9.01875C4.13437 8.6 3.86875 8.55312 3.51562 8.55312V8.55312ZM12.3906 8.55312H12.25C12.1938 8.55312 12.1562 8.58437 12.15 8.6375L12.0188 9.47188L12.2688 9.4625C12.675 9.4625 12.9563 9.36875 12.9563 8.9C12.9531 8.56875 12.6562 8.55312 12.3906 8.55312V8.55312ZM19 4.5V15.5C19 16.3281 18.3281 17 17.5 17H2.5C1.67188 17 1 16.3281 1 15.5V4.5C1 3.67188 1.67188 3 2.5 3H17.5C18.3281 3 19 3.67188 19 4.5ZM5.00938 8.73125C5.00938 8.075 4.50312 7.85625 3.925 7.85625H2.675C2.59687 7.85625 2.51875 7.91875 2.5125 8.00313L2 11.1938C1.99062 11.2563 2.0375 11.3188 2.1 11.3188H2.69375C2.77813 11.3188 2.85625 11.2281 2.86563 11.1406L3.00625 10.3094C3.0375 10.0844 3.41875 10.1625 3.56875 10.1625C4.4625 10.1625 5.00938 9.63125 5.00938 8.73125V8.73125ZM7.64062 9.00625H7.04688C6.92813 9.00625 6.92188 9.17812 6.91563 9.2625C6.73438 8.99687 6.47188 8.95 6.175 8.95C5.40938 8.95 4.825 9.62188 4.825 10.3625C4.825 10.9719 5.20625 11.3687 5.81563 11.3687C6.09688 11.3687 6.44688 11.2156 6.64375 10.9969C6.62813 11.0437 6.6125 11.1438 6.6125 11.1906C6.6125 11.2625 6.64375 11.3156 6.7125 11.3156H7.25C7.33438 11.3156 7.40625 11.225 7.42188 11.1375L7.74062 9.12813C7.75 9.06875 7.70312 9.00625 7.64062 9.00625ZM8.90625 12.0656L10.8969 9.17188C10.9125 9.15625 10.9125 9.14063 10.9125 9.11875C10.9125 9.06563 10.8656 9.00938 10.8125 9.00938H10.2125C10.1594 9.00938 10.1031 9.04063 10.0719 9.0875L9.24375 10.3062L8.9 9.13438C8.875 9.06563 8.80625 9.00938 8.72813 9.00938H8.14375C8.09063 9.00938 8.04375 9.06563 8.04375 9.11875C8.04375 9.15625 8.65313 10.8937 8.70625 11.0594C8.62188 11.1781 8.06563 11.9531 8.06563 12.0469C8.06563 12.1031 8.1125 12.1469 8.16563 12.1469H8.76562C8.82187 12.1438 8.875 12.1125 8.90625 12.0656V12.0656ZM13.8844 8.73125C13.8844 8.075 13.3781 7.85625 12.8 7.85625H11.5594C11.475 7.85625 11.3969 7.91875 11.3875 8.00313L10.8813 11.1906C10.875 11.2531 10.9219 11.3156 10.9812 11.3156H11.6219C11.6844 11.3156 11.7312 11.2687 11.7469 11.2156L11.8875 10.3094C11.9187 10.0844 12.3 10.1625 12.45 10.1625C13.3375 10.1625 13.8844 9.63125 13.8844 8.73125ZM16.5156 9.00625H15.9219C15.8031 9.00625 15.7969 9.17812 15.7875 9.2625C15.6156 8.99687 15.35 8.95 15.0469 8.95C14.2812 8.95 13.6969 9.62188 13.6969 10.3625C13.6969 10.9719 14.0781 11.3687 14.6875 11.3687C14.9781 11.3687 15.3281 11.2156 15.5156 10.9969C15.5062 11.0437 15.4844 11.1438 15.4844 11.1906C15.4844 11.2625 15.5156 11.3156 15.5844 11.3156H16.125C16.2094 11.3156 16.2812 11.225 16.2969 11.1375L16.6156 9.12813C16.625 9.06875 16.5781 9.00625 16.5156 9.00625V9.00625ZM18 7.96562C18 7.90312 17.9531 7.85625 17.9 7.85625H17.3219C17.275 7.85625 17.2281 7.89375 17.2219 7.94063L16.7156 11.1906L16.7063 11.2063C16.7063 11.2625 16.7531 11.3156 16.8156 11.3156H17.3312C17.4094 11.3156 17.4875 11.225 17.4937 11.1375L18 7.975V7.96562V7.96562ZM15.1875 9.58437C14.8063 9.58437 14.5094 9.8875 14.5094 10.2719C14.5094 10.575 14.7281 10.7406 15.0156 10.7406C15.3906 10.7406 15.6938 10.4531 15.6938 10.0688C15.6969 9.7625 15.4781 9.58437 15.1875 9.58437Z" fill="#444444"/>
</svg>
