<svg width="20" height="20" viewBox="0 0 20 20" fill="none" xmlns="http://www.w3.org/2000/svg">
<path d="M6.25 14.6562H7.17857C7.69219 14.6562 8.10714 14.2344 8.10714 13.7188V12.7812C8.10714 12.2656 7.69219 11.8438 7.17857 11.8438H6.25C5.73638 11.8438 5.32143 12.2656 5.32143 12.7812V13.7188C5.32143 14.2344 5.73638 14.6562 6.25 14.6562ZM6.25 12.7812H7.17857V13.7188H6.25V12.7812ZM6.25 7.15625H7.17857C7.69219 7.15625 8.10714 6.73438 8.10714 6.21875V5.28125C8.10714 4.76562 7.69219 4.34375 7.17857 4.34375H6.25C5.73638 4.34375 5.32143 4.76562 5.32143 5.28125V6.21875C5.32143 6.73438 5.73638 7.15625 6.25 7.15625ZM6.25 5.28125H7.17857V6.21875H6.25V5.28125ZM15.0714 2H3.92857C3.41496 2 3 2.42188 3 2.9375V16.0625C3 16.5781 3.41496 17 3.92857 17H15.0714C15.585 17 16 16.5781 16 16.0625V2.9375C16 2.42188 15.585 2 15.0714 2ZM15.0714 16.0625H3.92857V2.9375H15.0714V16.0625ZM9.26786 6.21875H12.9821C13.1098 6.21875 13.2143 6.11328 13.2143 5.98438V5.51562C13.2143 5.38672 13.1098 5.28125 12.9821 5.28125H9.26786C9.14018 5.28125 9.03571 5.38672 9.03571 5.51562V5.98438C9.03571 6.11328 9.14018 6.21875 9.26786 6.21875ZM9.26786 9.96875H12.9821C13.1098 9.96875 13.2143 9.86328 13.2143 9.73438V9.26562C13.2143 9.13672 13.1098 9.03125 12.9821 9.03125H9.26786C9.14018 9.03125 9.03571 9.13672 9.03571 9.26562V9.73438C9.03571 9.86328 9.14018 9.96875 9.26786 9.96875ZM9.26786 13.7188H12.9821C13.1098 13.7188 13.2143 13.6133 13.2143 13.4844V13.0156C13.2143 12.8867 13.1098 12.7812 12.9821 12.7812H9.26786C9.14018 12.7812 9.03571 12.8867 9.03571 13.0156V13.4844C9.03571 13.6133 9.14018 13.7188 9.26786 13.7188ZM6.44152 10.3906C6.50246 10.4521 6.60112 10.4521 6.66205 10.3906L8.525 8.52734C8.58594 8.46582 8.58594 8.36621 8.525 8.30469L8.15938 7.93262C8.09844 7.87109 7.99978 7.87109 7.93884 7.93262L6.55759 9.31543L5.95982 8.70312C5.89888 8.6416 5.80022 8.6416 5.73929 8.70312L5.37076 9.07227C5.30982 9.13379 5.30982 9.2334 5.37076 9.29492L6.44152 10.3906Z" fill="#444444"/>
</svg>
