<svg width="30" height="30" viewBox="0 0 30 30" fill="none" xmlns="http://www.w3.org/2000/svg">
<path d="M8.75 23.7812H10.3929C11.3016 23.7812 12.0357 23.0219 12.0357 22.0937V20.4062C12.0357 19.4781 11.3016 18.7187 10.3929 18.7187H8.75C7.84129 18.7187 7.10714 19.4781 7.10714 20.4062V22.0937C7.10714 23.0219 7.84129 23.7812 8.75 23.7812ZM8.75 20.4062H10.3929V22.0937H8.75V20.4062ZM8.75 10.2812H10.3929C11.3016 10.2812 12.0357 9.52187 12.0357 8.59375V6.90625C12.0357 5.97812 11.3016 5.21875 10.3929 5.21875H8.75C7.84129 5.21875 7.10714 5.97812 7.10714 6.90625V8.59375C7.10714 9.52187 7.84129 10.2812 8.75 10.2812ZM8.75 6.90625H10.3929V8.59375H8.75V6.90625ZM24.3571 1H4.64286C3.73415 1 3 1.75937 3 2.6875V26.3125C3 27.2406 3.73415 28 4.64286 28H24.3571C25.2658 28 26 27.2406 26 26.3125V2.6875C26 1.75937 25.2658 1 24.3571 1ZM24.3571 26.3125H4.64286V2.6875H24.3571V26.3125ZM14.0893 8.59375H20.6607C20.8866 8.59375 21.0714 8.40391 21.0714 8.17187V7.32812C21.0714 7.09609 20.8866 6.90625 20.6607 6.90625H14.0893C13.8634 6.90625 13.6786 7.09609 13.6786 7.32812V8.17187C13.6786 8.40391 13.8634 8.59375 14.0893 8.59375ZM14.0893 15.3437H20.6607C20.8866 15.3437 21.0714 15.1539 21.0714 14.9219V14.0781C21.0714 13.8461 20.8866 13.6562 20.6607 13.6562H14.0893C13.8634 13.6562 13.6786 13.8461 13.6786 14.0781V14.9219C13.6786 15.1539 13.8634 15.3437 14.0893 15.3437ZM14.0893 22.0937H20.6607C20.8866 22.0937 21.0714 21.9039 21.0714 21.6719V20.8281C21.0714 20.5961 20.8866 20.4062 20.6607 20.4062H14.0893C13.8634 20.4062 13.6786 20.5961 13.6786 20.8281V21.6719C13.6786 21.9039 13.8634 22.0937 14.0893 22.0937ZM9.08884 16.1031C9.19665 16.2139 9.3712 16.2139 9.47902 16.1031L12.775 12.7492C12.8828 12.6385 12.8828 12.4592 12.775 12.3484L12.1281 11.6787C12.0203 11.568 11.8458 11.568 11.7379 11.6787L9.2942 14.1678L8.23661 13.0656C8.12879 12.9549 7.95424 12.9549 7.84643 13.0656L7.19442 13.7301C7.08661 13.8408 7.08661 14.0201 7.19442 14.1309L9.08884 16.1031Z" fill="#444444"/>
</svg>
