<svg width="20" height="20" viewBox="0 0 20 20" fill="none" xmlns="http://www.w3.org/2000/svg">
<path d="M18.6046 10.6081L12.8638 16.5881C12.3365 17.1373 11.4818 17.1373 10.9546 16.5881L10.9047 16.5361L11.5411 15.8732L11.591 15.9252C11.7668 16.1084 12.0518 16.1081 12.2274 15.9252L17.9682 9.94519C18.1436 9.76241 18.1436 9.46505 17.9682 9.28229L12.009 3.07478C11.9673 3.03112 11.9177 2.9965 11.8631 2.97294C11.8085 2.94937 11.7499 2.93733 11.6908 2.9375H11.141L10.241 2H11.6908C12.0488 2 12.3922 2.14816 12.6454 2.41188L18.6046 8.61936C19.1318 9.16853 19.1318 10.0589 18.6046 10.6081ZM8.09082 2.9375H2.35C2.10188 2.9375 1.9 3.14779 1.9 3.40625V9.38627C1.9 9.51148 1.9468 9.6292 2.03179 9.71773L7.99098 15.9252C8.16684 16.1084 8.45178 16.1081 8.62736 15.9252L14.3682 9.94519C14.5436 9.76241 14.5436 9.46505 14.3682 9.28229L8.409 3.07478C8.36731 3.03112 8.31773 2.99651 8.26311 2.97295C8.2085 2.94938 8.14994 2.93733 8.09082 2.9375ZM8.09082 2C8.44886 2 8.79224 2.14816 9.04541 2.41188L15.0046 8.61936C15.5318 9.16853 15.5318 10.0589 15.0046 10.6081L9.26378 16.5881C8.73655 17.1373 7.88177 17.1373 7.35459 16.5881L1.39541 10.3806C1.14223 10.1169 1 9.75923 1 9.38627L1 3.40625C1 2.62959 1.60441 2 2.35 2H8.09082ZM5.05 5.63281C4.73984 5.63281 4.4875 5.89566 4.4875 6.21875C4.4875 6.54183 4.73984 6.80469 5.05 6.80469C5.36017 6.80469 5.6125 6.54183 5.6125 6.21875C5.6125 5.89566 5.36017 5.63281 5.05 5.63281ZM5.05 4.8125C5.7956 4.8125 6.4 5.44209 6.4 6.21875C6.4 6.99541 5.7956 7.625 5.05 7.625C4.30441 7.625 3.7 6.99541 3.7 6.21875C3.7 5.44209 4.30441 4.8125 5.05 4.8125Z" fill="#444444"/>
</svg>
