<svg width="30" height="30" viewBox="0 0 30 30" fill="none" xmlns="http://www.w3.org/2000/svg">
<path d="M29.341 16.9207L19.773 27.2861C18.8942 28.238 17.4696 28.238 16.591 27.2861L16.5078 27.1959L17.5684 26.0469L17.6516 26.137C17.9447 26.4546 18.4196 26.4541 18.7123 26.137L28.2803 15.7717C28.5727 15.4548 28.5727 14.9394 28.2803 14.6226L18.3483 3.86296C18.2789 3.78728 18.1962 3.72728 18.1052 3.68643C18.0141 3.64558 17.9165 3.6247 17.818 3.625H16.9016L15.4016 2H17.818C18.4147 2 18.987 2.25681 19.409 2.71393L29.341 13.4736C30.2197 14.4255 30.2197 15.9688 29.341 16.9207ZM11.818 3.625H2.25C1.83647 3.625 1.5 3.98951 1.5 4.4375V14.8029C1.5 15.0199 1.578 15.2239 1.71966 15.3774L11.6516 26.137C11.9447 26.4546 12.4196 26.4541 12.7123 26.137L22.2803 15.7717C22.5727 15.4548 22.5727 14.9394 22.2803 14.6226L12.3483 3.86296C12.2789 3.78728 12.1962 3.72728 12.1052 3.68644C12.0142 3.64559 11.9166 3.62471 11.818 3.625ZM11.818 2C12.4148 2 12.9871 2.25681 13.409 2.71393L23.341 13.4736C24.2197 14.4255 24.2197 15.9688 23.341 16.9207L13.773 27.2861C12.8942 28.238 11.4696 28.238 10.591 27.2861L0.659016 16.5264C0.237058 16.0693 3.12036e-06 15.4493 0 14.8029L0 4.4375C0 3.09129 1.00734 2 2.25 2H11.818ZM6.75 8.29687C6.23307 8.29687 5.8125 8.75248 5.8125 9.3125C5.8125 9.87251 6.23307 10.3281 6.75 10.3281C7.26694 10.3281 7.6875 9.87251 7.6875 9.3125C7.6875 8.75248 7.26694 8.29687 6.75 8.29687ZM6.75 6.875C7.99266 6.875 9 7.96629 9 9.3125C9 10.6587 7.99266 11.75 6.75 11.75C5.50735 11.75 4.5 10.6587 4.5 9.3125C4.5 7.96629 5.50735 6.875 6.75 6.875Z" fill="#444444"/>
</svg>
