<svg width="34" height="30" viewBox="0 0 34 30" fill="none" xmlns="http://www.w3.org/2000/svg">
<path d="M31.375 13.2143H27.3711L20.1194 5.272C19.8116 4.9348 19.2847 4.90744 18.9426 5.21096C18.6004 5.51448 18.5727 6.03382 18.8806 6.37102L25.1289 13.2143H8.87109L15.1194 6.37097C15.4273 6.03382 15.3996 5.51437 15.0575 5.21091C14.7154 4.90739 14.1884 4.9347 13.8806 5.27195L6.62891 13.2143H2.625C2.27984 13.2143 2 13.4902 2 13.8304V14.2411C2 14.5813 2.27984 14.8572 2.625 14.8572H3.48146L5.03385 25.8747C5.20552 27.093 6.26229 28 7.5101 28H26.4899C27.7377 28 28.7945 27.093 28.9661 25.8747L30.5185 14.8572H31.375C31.7202 14.8572 32 14.5813 32 14.2411V13.8304C32 13.4902 31.7202 13.2143 31.375 13.2143ZM27.3153 25.6487C27.2584 26.0526 26.9035 26.3571 26.4899 26.3571H7.5101C7.09646 26.3571 6.74161 26.0526 6.68469 25.6487L5.16417 14.8572H28.8359L27.3153 25.6487V25.6487ZM17.8333 17.7322V23.4822C17.8333 23.9358 17.4603 24.3036 17 24.3036C16.5398 24.3036 16.1667 23.9358 16.1667 23.4822V17.7322C16.1667 17.2785 16.5398 16.9107 17 16.9107C17.4603 16.9107 17.8333 17.2785 17.8333 17.7322ZM23.6667 17.7322V23.4822C23.6667 23.9358 23.2936 24.3036 22.8333 24.3036C22.3731 24.3036 22 23.9358 22 23.4822V17.7322C22 17.2785 22.3731 16.9107 22.8333 16.9107C23.2936 16.9107 23.6667 17.2785 23.6667 17.7322ZM12 17.7322V23.4822C12 23.9358 11.6269 24.3036 11.1667 24.3036C10.7065 24.3036 10.3333 23.9358 10.3333 23.4822V17.7322C10.3333 17.2785 10.7065 16.9107 11.1667 16.9107C11.6269 16.9107 12 17.2785 12 17.7322Z" fill="#444444"/>
</svg>
