<svg width="22" height="20" viewBox="0 0 22 20" fill="none" xmlns="http://www.w3.org/2000/svg">
<path d="M20.6042 7.35717H18.0684L13.4756 2.17739C13.2807 1.95748 12.947 1.93964 12.7303 2.13758C12.5136 2.33553 12.496 2.67423 12.6911 2.89414L16.6483 7.35717H6.35169L10.309 2.89411C10.504 2.67423 10.4864 2.33546 10.2698 2.13755C10.0531 1.9396 9.71934 1.95741 9.5244 2.17736L4.93164 7.35717H2.39583C2.17723 7.35717 2 7.53707 2 7.75895V8.02681C2 8.24869 2.17723 8.42859 2.39583 8.42859H2.93826L3.92144 15.6139C4.03016 16.4085 4.69945 17 5.48973 17H17.5103C18.3005 17 18.9698 16.4085 19.0786 15.6139L20.0617 8.42859H20.6042C20.8228 8.42859 21 8.24869 21 8.02681V7.75895C21 7.53707 20.8228 7.35717 20.6042 7.35717ZM18.033 15.4666C17.997 15.73 17.7722 15.9286 17.5103 15.9286H5.48973C5.22776 15.9286 5.00302 15.73 4.96697 15.4666L4.00397 8.42859H18.9961L18.033 15.4666V15.4666ZM12.0278 10.3036V14.0536C12.0278 14.3495 11.7915 14.5893 11.5 14.5893C11.2085 14.5893 10.9722 14.3495 10.9722 14.0536V10.3036C10.9722 10.0077 11.2085 9.76787 11.5 9.76787C11.7915 9.76787 12.0278 10.0077 12.0278 10.3036ZM15.7222 10.3036V14.0536C15.7222 14.3495 15.4859 14.5893 15.1944 14.5893C14.9029 14.5893 14.6667 14.3495 14.6667 14.0536V10.3036C14.6667 10.0077 14.9029 9.76787 15.1944 9.76787C15.4859 9.76787 15.7222 10.0077 15.7222 10.3036ZM8.33333 10.3036V14.0536C8.33333 14.3495 8.09702 14.5893 7.80556 14.5893C7.51409 14.5893 7.27778 14.3495 7.27778 14.0536V10.3036C7.27778 10.0077 7.51409 9.76787 7.80556 9.76787C8.09702 9.76787 8.33333 10.0077 8.33333 10.3036Z" fill="#444444"/>
</svg>
