<svg width="20" height="20" viewBox="0 0 20 20" fill="none" xmlns="http://www.w3.org/2000/svg">
<path d="M7.53571 4.34375H6.75C6.3154 4.34375 5.96429 4.76562 5.96429 5.28125V6.21875C5.96429 6.73438 6.3154 7.15625 6.75 7.15625H7.53571C7.97031 7.15625 8.32143 6.73438 8.32143 6.21875V5.28125C8.32143 4.76562 7.97031 4.34375 7.53571 4.34375ZM7.53571 6.21875H6.75V5.28125H7.53571V6.21875ZM14.2143 2H4.78571C4.35112 2 4 2.42187 4 2.9375V16.0625C4 16.5781 4.35112 17 4.78571 17H14.2143C14.6489 17 15 16.5781 15 16.0625V2.9375C15 2.42187 14.6489 2 14.2143 2ZM14.2143 16.0625H4.78571V2.9375H14.2143V16.0625ZM12.4464 9.03125H9.30357C9.19554 9.03125 9.10714 9.13672 9.10714 9.26562V9.73438C9.10714 9.86328 9.19554 9.96875 9.30357 9.96875H12.4464C12.5545 9.96875 12.6429 9.86328 12.6429 9.73438V9.26562C12.6429 9.13672 12.5545 9.03125 12.4464 9.03125ZM7.53571 11.8438H6.75C6.3154 11.8438 5.96429 12.2656 5.96429 12.7812V13.7188C5.96429 14.2344 6.3154 14.6562 6.75 14.6562H7.53571C7.97031 14.6562 8.32143 14.2344 8.32143 13.7188V12.7812C8.32143 12.2656 7.97031 11.8438 7.53571 11.8438ZM7.53571 13.7188H6.75V12.7812H7.53571V13.7188ZM12.4464 12.7812H9.30357C9.19554 12.7812 9.10714 12.8867 9.10714 13.0156V13.4844C9.10714 13.6133 9.19554 13.7188 9.30357 13.7188H12.4464C12.5545 13.7188 12.6429 13.6133 12.6429 13.4844V13.0156C12.6429 12.8867 12.5545 12.7812 12.4464 12.7812ZM12.4464 5.28125H9.30357C9.19554 5.28125 9.10714 5.38672 9.10714 5.51562V5.98438C9.10714 6.11328 9.19554 6.21875 9.30357 6.21875H12.4464C12.5545 6.21875 12.6429 6.11328 12.6429 5.98438V5.51562C12.6429 5.38672 12.5545 5.28125 12.4464 5.28125ZM7.53571 8.09375H6.75C6.3154 8.09375 5.96429 8.51562 5.96429 9.03125V9.96875C5.96429 10.4844 6.3154 10.9062 6.75 10.9062H7.53571C7.97031 10.9062 8.32143 10.4844 8.32143 9.96875V9.03125C8.32143 8.51562 7.97031 8.09375 7.53571 8.09375ZM7.53571 9.96875H6.75V9.03125H7.53571V9.96875Z" fill="#444444"/>
</svg>
