<svg width="30" height="30" viewBox="0 0 30 30" fill="none" xmlns="http://www.w3.org/2000/svg">
<path d="M12.1071 6.0625H10.75C9.99933 6.0625 9.39286 6.79375 9.39286 7.6875V9.3125C9.39286 10.2063 9.99933 10.9375 10.75 10.9375H12.1071C12.8578 10.9375 13.4643 10.2063 13.4643 9.3125V7.6875C13.4643 6.79375 12.8578 6.0625 12.1071 6.0625ZM12.1071 9.3125H10.75V7.6875H12.1071V9.3125ZM23.6429 2H7.35714C6.60647 2 6 2.73125 6 3.625V26.375C6 27.2688 6.60647 28 7.35714 28H23.6429C24.3935 28 25 27.2688 25 26.375V3.625C25 2.73125 24.3935 2 23.6429 2ZM23.6429 26.375H7.35714V3.625H23.6429V26.375ZM20.5893 14.1875H15.1607C14.9741 14.1875 14.8214 14.3703 14.8214 14.5938V15.4062C14.8214 15.6297 14.9741 15.8125 15.1607 15.8125H20.5893C20.7759 15.8125 20.9286 15.6297 20.9286 15.4062V14.5938C20.9286 14.3703 20.7759 14.1875 20.5893 14.1875ZM12.1071 19.0625H10.75C9.99933 19.0625 9.39286 19.7937 9.39286 20.6875V22.3125C9.39286 23.2063 9.99933 23.9375 10.75 23.9375H12.1071C12.8578 23.9375 13.4643 23.2063 13.4643 22.3125V20.6875C13.4643 19.7937 12.8578 19.0625 12.1071 19.0625ZM12.1071 22.3125H10.75V20.6875H12.1071V22.3125ZM20.5893 20.6875H15.1607C14.9741 20.6875 14.8214 20.8703 14.8214 21.0938V21.9062C14.8214 22.1297 14.9741 22.3125 15.1607 22.3125H20.5893C20.7759 22.3125 20.9286 22.1297 20.9286 21.9062V21.0938C20.9286 20.8703 20.7759 20.6875 20.5893 20.6875ZM20.5893 7.6875H15.1607C14.9741 7.6875 14.8214 7.87031 14.8214 8.09375V8.90625C14.8214 9.12969 14.9741 9.3125 15.1607 9.3125H20.5893C20.7759 9.3125 20.9286 9.12969 20.9286 8.90625V8.09375C20.9286 7.87031 20.7759 7.6875 20.5893 7.6875ZM12.1071 12.5625H10.75C9.99933 12.5625 9.39286 13.2937 9.39286 14.1875V15.8125C9.39286 16.7063 9.99933 17.4375 10.75 17.4375H12.1071C12.8578 17.4375 13.4643 16.7063 13.4643 15.8125V14.1875C13.4643 13.2937 12.8578 12.5625 12.1071 12.5625ZM12.1071 15.8125H10.75V14.1875H12.1071V15.8125Z" fill="#444444"/>
</svg>
