<svg width="20" height="20" viewBox="0 0 20 20" fill="none" xmlns="http://www.w3.org/2000/svg">
<path d="M6.14286 15.125H13.8571C14.0939 15.125 14.2857 14.9152 14.2857 14.6562V9.03125C14.2857 8.77227 14.0939 8.5625 13.8571 8.5625H6.14286C5.90607 8.5625 5.71429 8.77227 5.71429 9.03125V14.6562C5.71429 14.9152 5.90607 15.125 6.14286 15.125ZM11.7143 12.3125V9.5H13.4286V14.1875H11.7143V12.3125ZM9.14286 9.5H10.8571V11.375H9.14286V9.5ZM9.14286 12.3125H10.8571V14.1875H9.14286V12.3125ZM6.57143 9.5H8.28571V11.375H6.57143V9.5ZM6.57143 12.3125H8.28571V14.1875H6.57143V12.3125ZM14.7143 2H5.28571C4.6 2 4 2.65625 4 3.40625V15.5938C4 16.3438 4.6 17 5.28571 17H14.7143C15.4 17 16 16.3438 16 15.5938V3.40625C16 2.65625 15.4 2 14.7143 2ZM15.1429 15.5938C15.1429 15.8261 14.9267 16.0625 14.7143 16.0625H5.28571C5.0733 16.0625 4.85714 15.8261 4.85714 15.5938V7.625H15.1429V15.5938ZM15.1429 6.6875H4.85714V3.40625C4.85714 3.17393 5.0733 2.9375 5.28571 2.9375H14.7143C14.9267 2.9375 15.1429 3.17393 15.1429 3.40625V6.6875Z" fill="#444444"/>
</svg>
