<svg width="30" height="30" viewBox="0 0 30 30" fill="none" xmlns="http://www.w3.org/2000/svg">
<path d="M7.92857 24.75H22.0714C22.5055 24.75 22.8571 24.3864 22.8571 23.9375V14.1875C22.8571 13.7386 22.5055 13.375 22.0714 13.375H7.92857C7.49446 13.375 7.14286 13.7386 7.14286 14.1875V23.9375C7.14286 24.3864 7.49446 24.75 7.92857 24.75ZM18.1429 19.875V15H21.2857V23.125H18.1429V19.875ZM13.4286 15H16.5714V18.25H13.4286V15ZM13.4286 19.875H16.5714V23.125H13.4286V19.875ZM8.71429 15H11.8571V18.25H8.71429V15ZM8.71429 19.875H11.8571V23.125H8.71429V19.875ZM23.6429 2H6.35714C5.1 2 4 3.1375 4 4.4375V25.5625C4 26.8625 5.1 28 6.35714 28H23.6429C24.9 28 26 26.8625 26 25.5625V4.4375C26 3.1375 24.9 2 23.6429 2ZM24.4286 25.5625C24.4286 25.9652 24.0323 26.375 23.6429 26.375H6.35714C5.96772 26.375 5.57143 25.9652 5.57143 25.5625V11.75H24.4286V25.5625ZM24.4286 10.125H5.57143V4.4375C5.57143 4.0348 5.96772 3.625 6.35714 3.625H23.6429C24.0323 3.625 24.4286 4.0348 24.4286 4.4375V10.125Z" fill="#444444"/>
</svg>
