<svg width="20" height="20" viewBox="0 0 20 20" fill="none" xmlns="http://www.w3.org/2000/svg">
<path d="M19.8371 9.06197L18.266 7.55953C18.1112 7.41151 17.9884 7.23577 17.9046 7.04235C17.8208 6.84893 17.7777 6.64163 17.7778 6.43229V3.59375C17.7778 3.17106 17.6022 2.76568 17.2896 2.4668C16.9771 2.16791 16.5531 2 16.1111 2H13.6111C13.5374 2 13.4668 2.02799 13.4147 2.0778C13.3626 2.12761 13.3333 2.19518 13.3333 2.26562V2.79688C13.3333 2.86732 13.3626 2.93489 13.4147 2.9847C13.4668 3.03451 13.5374 3.0625 13.6111 3.0625H16.1111C16.2584 3.0625 16.3998 3.11847 16.5039 3.2181C16.6081 3.31773 16.6667 3.45285 16.6667 3.59375V6.43195C16.6666 6.78086 16.7385 7.12635 16.8782 7.44869C17.0178 7.77103 17.2225 8.06391 17.4805 8.31059L18.659 9.4375L17.4805 10.5644C17.2225 10.8111 17.0178 11.104 16.8782 11.4263C16.7385 11.7486 16.6666 12.0941 16.6667 12.443V15.2812C16.6667 15.4221 16.6081 15.5573 16.5039 15.6569C16.3998 15.7565 16.2584 15.8125 16.1111 15.8125H13.6111C13.5374 15.8125 13.4668 15.8405 13.4147 15.8903C13.3626 15.9401 13.3333 16.0077 13.3333 16.0781V16.6094C13.3333 16.6798 13.3626 16.7474 13.4147 16.7972C13.4668 16.847 13.5374 16.875 13.6111 16.875H16.1111C16.5531 16.875 16.9771 16.7071 17.2896 16.4082C17.6022 16.1093 17.7778 15.7039 17.7778 15.2812V12.4427C17.7777 12.2334 17.8208 12.0261 17.9046 11.8327C17.9884 11.6392 18.1112 11.4635 18.266 11.3155L19.8371 9.81303C19.9413 9.71341 19.9997 9.57834 19.9997 9.4375C19.9997 9.29666 19.9413 9.16159 19.8371 9.06197ZM6.38888 2H3.88888C3.44685 2 3.02293 2.16791 2.71037 2.4668C2.3978 2.76568 2.22221 3.17106 2.22221 3.59375V6.43229C2.22225 6.64163 2.17915 6.84893 2.09538 7.04235C2.01162 7.23577 1.88882 7.41151 1.73402 7.55953L0.162834 9.06197C0.0587258 9.16159 0.000244141 9.29666 0.000244141 9.4375C0.000244141 9.57834 0.0587258 9.71341 0.162834 9.81303L1.73402 11.3155C1.88882 11.4635 2.01162 11.6392 2.09538 11.8327C2.17915 12.0261 2.22225 12.2334 2.22221 12.4427V15.2812C2.22221 15.7039 2.3978 16.1093 2.71037 16.4082C3.02293 16.7071 3.44685 16.875 3.88888 16.875H6.38888C6.46255 16.875 6.5332 16.847 6.5853 16.7972C6.63739 16.7474 6.66666 16.6798 6.66666 16.6094V16.0781C6.66666 16.0077 6.63739 15.9401 6.5853 15.8903C6.5332 15.8405 6.46255 15.8125 6.38888 15.8125H3.88888C3.74153 15.8125 3.60023 15.7565 3.49604 15.6569C3.39185 15.5573 3.33332 15.4221 3.33332 15.2812V12.443C3.33333 12.0941 3.26146 11.7486 3.12181 11.4263C2.98217 11.104 2.77747 10.8111 2.51943 10.5644L1.34096 9.4375L2.51943 8.31059C2.77747 8.06391 2.98217 7.77103 3.12181 7.44869C3.26146 7.12635 3.33333 6.78086 3.33332 6.43195V3.59375C3.33332 3.45285 3.39185 3.31773 3.49604 3.2181C3.60023 3.11847 3.74153 3.0625 3.88888 3.0625H6.38888C6.46255 3.0625 6.5332 3.03451 6.5853 2.9847C6.63739 2.93489 6.66666 2.86732 6.66666 2.79688V2.26562C6.66666 2.19518 6.63739 2.12761 6.5853 2.0778C6.5332 2.02799 6.46255 2 6.38888 2V2Z" fill="#444444"/>
</svg>
