<svg width="30" height="30" viewBox="0 0 30 30" fill="none" xmlns="http://www.w3.org/2000/svg">
<path d="M29.7561 15.9194L27.3993 13.5963C27.1671 13.3674 26.9829 13.0956 26.8572 12.7966C26.7316 12.4975 26.6669 12.177 26.667 11.8533V7.46429C26.667 6.81072 26.4036 6.18392 25.9347 5.72177C25.4659 5.25963 24.83 5 24.1669 5H20.4168C20.3063 5 20.2003 5.04327 20.1222 5.1203C20.044 5.19732 20.0001 5.30179 20.0001 5.41071V6.23214C20.0001 6.34107 20.044 6.44554 20.1222 6.52256C20.2003 6.59959 20.3063 6.64286 20.4168 6.64286H24.1669C24.3879 6.64286 24.5999 6.7294 24.7562 6.88345C24.9125 7.0375 25.0003 7.24643 25.0003 7.46429V11.8528C25.0002 12.3923 25.108 12.9265 25.3175 13.4249C25.527 13.9233 25.8341 14.3761 26.2211 14.7575L27.9889 16.5L26.2211 18.2425C25.8341 18.6239 25.527 19.0767 25.3175 19.5751C25.108 20.0735 25.0002 20.6077 25.0003 21.1472V25.5357C25.0003 25.7536 24.9125 25.9625 24.7562 26.1166C24.5999 26.2706 24.3879 26.3571 24.1669 26.3571H20.4168C20.3063 26.3571 20.2003 26.4004 20.1222 26.4774C20.044 26.5545 20.0001 26.6589 20.0001 26.7679V27.5893C20.0001 27.6982 20.044 27.8027 20.1222 27.8797C20.2003 27.9567 20.3063 28 20.4168 28H24.1669C24.83 28 25.4659 27.7404 25.9347 27.2782C26.4036 26.8161 26.667 26.1893 26.667 25.5357V21.1467C26.6669 20.823 26.7316 20.5025 26.8572 20.2034C26.9829 19.9044 27.1671 19.6326 27.3993 19.4038L29.7561 17.0806C29.9123 16.9266 30 16.7178 30 16.5C30 16.2822 29.9123 16.0734 29.7561 15.9194ZM9.58319 5H5.8331C5.17004 5 4.53414 5.25963 4.06529 5.72177C3.59643 6.18392 3.33303 6.81072 3.33303 7.46429V11.8533C3.33309 12.177 3.26844 12.4975 3.14279 12.7966C3.01714 13.0956 2.83294 13.3674 2.60072 13.5963L0.243891 15.9194C0.0877247 16.0734 0 16.2822 0 16.5C0 16.7178 0.0877247 16.9266 0.243891 17.0806L2.60072 19.4038C2.83294 19.6326 3.01714 19.9044 3.14279 20.2034C3.26844 20.5025 3.33309 20.823 3.33303 21.1467V25.5357C3.33303 26.1893 3.59643 26.8161 4.06529 27.2782C4.53414 27.7404 5.17004 28 5.8331 28H9.58319C9.6937 28 9.79969 27.9567 9.87783 27.8797C9.95597 27.8027 9.99987 27.6982 9.99987 27.5893V26.7679C9.99987 26.6589 9.95597 26.5545 9.87783 26.4774C9.79969 26.4004 9.6937 26.3571 9.58319 26.3571H5.8331C5.61208 26.3571 5.40011 26.2706 5.24383 26.1166C5.08754 25.9625 4.99974 25.7536 4.99974 25.5357V21.1472C4.99976 20.6077 4.89195 20.0735 4.68247 19.5751C4.473 19.0767 4.16595 18.6239 3.77888 18.2425L2.01112 16.5L3.77888 14.7575C4.16595 14.3761 4.473 13.9233 4.68247 13.4249C4.89195 12.9265 4.99976 12.3923 4.99974 11.8528V7.46429C4.99974 7.24643 5.08754 7.0375 5.24383 6.88345C5.40011 6.7294 5.61208 6.64286 5.8331 6.64286H9.58319C9.6937 6.64286 9.79969 6.59959 9.87783 6.52256C9.95597 6.44554 9.99987 6.34107 9.99987 6.23214V5.41071C9.99987 5.30179 9.95597 5.19732 9.87783 5.1203C9.79969 5.04327 9.6937 5 9.58319 5V5Z" fill="#444444"/>
</svg>
