<svg width="30" height="30" viewBox="0 0 30 30" fill="none" xmlns="http://www.w3.org/2000/svg">
<path fill-rule="evenodd" clip-rule="evenodd" d="M15.0002 3.33117C14.7413 3.33117 14.521 3.54273 14.521 3.8171C14.521 4.18469 14.2205 4.48268 13.8498 4.48268H13.1234C12.7352 4.48268 12.4079 4.80007 12.4079 5.207C12.4079 5.61276 12.7348 5.93027 13.1234 5.93027H16.8766C17.2649 5.93027 17.5916 5.61303 17.5916 5.207C17.5916 4.7998 17.2645 4.48268 16.8766 4.48268H16.1501C15.7794 4.48268 15.4789 4.18469 15.4789 3.8171C15.4789 3.54255 15.2584 3.33117 15.0002 3.33117ZM13.3049 3.15151C13.5703 2.47946 14.226 2 15.0002 2C15.7741 2 16.4297 2.47953 16.6951 3.15151H16.8766C18.0194 3.15151 18.934 4.0781 18.934 5.207C18.934 6.33556 18.019 7.26144 16.8766 7.26144H13.1234C11.9813 7.26144 11.0655 6.33584 11.0655 5.207C11.0655 4.07782 11.9809 3.15151 13.1234 3.15151H13.3049ZM5 5.207C5 4.83941 5.3005 4.54142 5.6712 4.54142H10.3094C10.6801 4.54142 10.9806 4.83941 10.9806 5.207C10.9806 5.57459 10.6801 5.87259 10.3094 5.87259H6.34239V26.6688H23.6576V5.87259H19.7716C19.4009 5.87259 19.1004 5.57459 19.1004 5.207C19.1004 4.83941 19.4009 4.54142 19.7716 4.54142H24.3288C24.6995 4.54142 25 4.83941 25 5.207V27.3344C25 27.702 24.6995 28 24.3288 28H5.6712C5.3005 28 5 27.702 5 27.3344V5.207ZM8.30662 9.61509C8.30662 9.2475 8.60712 8.9495 8.97781 8.9495H11.2308C11.6015 8.9495 11.902 9.2475 11.902 9.61509C11.902 9.98268 11.6015 10.2807 11.2308 10.2807H8.97781C8.60712 10.2807 8.30662 9.98268 8.30662 9.61509ZM12.6018 9.61509C12.6018 9.2475 12.9023 8.9495 13.273 8.9495H21.0235C21.3942 8.9495 21.6947 9.2475 21.6947 9.61509C21.6947 9.98268 21.3942 10.2807 21.0235 10.2807H13.273C12.9023 10.2807 12.6018 9.98268 12.6018 9.61509ZM8.30662 13.1564C8.30662 12.7888 8.60712 12.4908 8.97781 12.4908H11.2308C11.6015 12.4908 11.902 12.7888 11.902 13.1564C11.902 13.524 11.6015 13.822 11.2308 13.822H8.97781C8.60712 13.822 8.30662 13.524 8.30662 13.1564ZM12.6018 13.1564C12.6018 12.7888 12.9023 12.4908 13.273 12.4908H21.0235C21.3942 12.4908 21.6947 12.7888 21.6947 13.1564C21.6947 13.524 21.3942 13.822 21.0235 13.822H13.273C12.9023 13.822 12.6018 13.524 12.6018 13.1564ZM8.30662 16.6966C8.30662 16.329 8.60712 16.031 8.97781 16.031H11.2308C11.6015 16.031 11.902 16.329 11.902 16.6966C11.902 17.0642 11.6015 17.3622 11.2308 17.3622H8.97781C8.60712 17.3622 8.30662 17.0642 8.30662 16.6966ZM12.6018 16.6966C12.6018 16.329 12.9023 16.031 13.273 16.031H21.0235C21.3942 16.031 21.6947 16.329 21.6947 16.6966C21.6947 17.0642 21.3942 17.3622 21.0235 17.3622H13.273C12.9023 17.3622 12.6018 17.0642 12.6018 16.6966ZM8.30662 20.2378C8.30662 19.8702 8.60712 19.5722 8.97781 19.5722H11.2308C11.6015 19.5722 11.902 19.8702 11.902 20.2378C11.902 20.6054 11.6015 20.9034 11.2308 20.9034H8.97781C8.60712 20.9034 8.30662 20.6054 8.30662 20.2378ZM12.6018 20.2378C12.6018 19.8702 12.9023 19.5722 13.273 19.5722H21.0235C21.3942 19.5722 21.6947 19.8702 21.6947 20.2378C21.6947 20.6054 21.3942 20.9034 21.0235 20.9034H13.273C12.9023 20.9034 12.6018 20.6054 12.6018 20.2378Z" fill="#333333"/>
</svg>
