<svg width="20" height="20" viewBox="0 0 20 20" fill="none" xmlns="http://www.w3.org/2000/svg">
<path fill-rule="evenodd" clip-rule="evenodd" d="M10.5001 2.76798C10.3577 2.76798 10.2365 2.89004 10.2365 3.04833C10.2365 3.2604 10.0713 3.43232 9.86739 3.43232H9.46785C9.25438 3.43232 9.07436 3.61542 9.07436 3.85019C9.07436 4.08428 9.25415 4.26747 9.46785 4.26747H11.5321C11.7457 4.26747 11.9254 4.08444 11.9254 3.85019C11.9254 3.61527 11.7455 3.43232 11.5321 3.43232H11.1326C10.9287 3.43232 10.7634 3.2604 10.7634 3.04833C10.7634 2.88993 10.6421 2.76798 10.5001 2.76798ZM9.56767 2.66433C9.71366 2.27661 10.0743 2 10.5001 2C10.9258 2 11.2863 2.27665 11.4323 2.66433H11.5321C12.1607 2.66433 12.6637 3.1989 12.6637 3.85019C12.6637 4.50129 12.1605 5.03545 11.5321 5.03545H9.46785C8.83971 5.03545 8.33604 4.50144 8.33604 3.85019C8.33604 3.19874 8.83948 2.66433 9.46785 2.66433H9.56767ZM5 3.85019C5 3.63812 5.16528 3.4662 5.36916 3.4662H7.92017C8.12405 3.4662 8.28932 3.63812 8.28932 3.85019C8.28932 4.06227 8.12405 4.23418 7.92017 4.23418H5.73832V16.232H15.2617V4.23418H13.1244C12.9205 4.23418 12.7552 4.06227 12.7552 3.85019C12.7552 3.63812 12.9205 3.4662 13.1244 3.4662H15.6308C15.8347 3.4662 16 3.63812 16 3.85019V16.616C16 16.8281 15.8347 17 15.6308 17H5.36916C5.16528 17 5 16.8281 5 16.616V3.85019ZM6.81864 6.39332C6.81864 6.18125 6.98392 6.00933 7.1878 6.00933H8.42695C8.63083 6.00933 8.79611 6.18125 8.79611 6.39332C8.79611 6.60539 8.63083 6.77731 8.42695 6.77731H7.1878C6.98392 6.77731 6.81864 6.60539 6.81864 6.39332ZM9.181 6.39332C9.181 6.18125 9.34628 6.00933 9.55016 6.00933H13.8129C14.0168 6.00933 14.1821 6.18125 14.1821 6.39332C14.1821 6.60539 14.0168 6.77731 13.8129 6.77731H9.55016C9.34628 6.77731 9.181 6.60539 9.181 6.39332ZM6.81864 8.43638C6.81864 8.22431 6.98392 8.05239 7.1878 8.05239H8.42695C8.63083 8.05239 8.79611 8.22431 8.79611 8.43638C8.79611 8.64846 8.63083 8.82037 8.42695 8.82037H7.1878C6.98392 8.82037 6.81864 8.64846 6.81864 8.43638ZM9.181 8.43638C9.181 8.22431 9.34628 8.05239 9.55016 8.05239H13.8129C14.0168 8.05239 14.1821 8.22431 14.1821 8.43638C14.1821 8.64846 14.0168 8.82037 13.8129 8.82037H9.55016C9.34628 8.82037 9.181 8.64846 9.181 8.43638ZM6.81864 10.4788C6.81864 10.2667 6.98392 10.0948 7.1878 10.0948H8.42695C8.63083 10.0948 8.79611 10.2667 8.79611 10.4788C8.79611 10.6909 8.63083 10.8628 8.42695 10.8628H7.1878C6.98392 10.8628 6.81864 10.6909 6.81864 10.4788ZM9.181 10.4788C9.181 10.2667 9.34628 10.0948 9.55016 10.0948H13.8129C14.0168 10.0948 14.1821 10.2667 14.1821 10.4788C14.1821 10.6909 14.0168 10.8628 13.8129 10.8628H9.55016C9.34628 10.8628 9.181 10.6909 9.181 10.4788ZM6.81864 12.5218C6.81864 12.3098 6.98392 12.1378 7.1878 12.1378H8.42695C8.63083 12.1378 8.79611 12.3098 8.79611 12.5218C8.79611 12.7339 8.63083 12.9058 8.42695 12.9058H7.1878C6.98392 12.9058 6.81864 12.7339 6.81864 12.5218ZM9.181 12.5218C9.181 12.3098 9.34628 12.1378 9.55016 12.1378H13.8129C14.0168 12.1378 14.1821 12.3098 14.1821 12.5218C14.1821 12.7339 14.0168 12.9058 13.8129 12.9058H9.55016C9.34628 12.9058 9.181 12.7339 9.181 12.5218Z" fill="#333333"/>
</svg>
