<svg width="23" height="23" viewBox="0 0 23 23" fill="none" xmlns="http://www.w3.org/2000/svg">
<path d="M20.2588 5.5782H19.617C19.7973 4.90901 19.9028 4.48055 19.9333 4.29281C19.9608 4.44118 20.0693 4.86965 20.2588 5.5782Z" fill="#444444"/>
<path fill-rule="evenodd" clip-rule="evenodd" d="M23 5.3L22.4802 5.79559L22.7666 6.44805L22.0924 6.7113L22.1018 7.42132L21.376 7.41215L21.1069 8.07164L20.4399 7.79146L19.9333 8.3L19.4267 7.79146L18.7598 8.07164L18.4907 7.41215L17.7649 7.42132L17.7742 6.7113L17.1001 6.44805L17.3865 5.79559L16.8667 5.3L17.3865 4.80442L17.1001 4.15195L17.7742 3.88871L17.7649 3.17869L18.4907 3.18785L18.7598 2.52837L19.4267 2.80855L19.9333 2.3L20.4399 2.80855L21.1069 2.52837L21.376 3.18785L22.1018 3.17869L22.0924 3.88871L22.7666 4.15195L22.4802 4.80442L23 5.3ZM20.5751 6.8H21.4667L20.4719 3.8H19.3833L18.4 6.8H19.2962L19.4474 6.23906H20.4284L20.5751 6.8Z" fill="#444444"/>
<path d="M12.8656 10.775C12.9986 10.6309 13.1819 10.5289 13.4766 10.5289C13.9402 10.5254 14.2636 11.0387 14.2636 11.6926C14.2636 12.3641 13.9473 12.8668 13.4766 12.8668C13.1783 12.8668 12.9986 12.7613 12.8728 12.6313L12.8656 10.775Z" fill="#444444"/>
<path d="M17.0236 11.2355C17.0236 10.673 17.3758 10.4375 17.6956 10.4375C18.0083 10.4375 18.3425 10.673 18.3425 11.2355H17.0236Z" fill="#444444"/>
<path fill-rule="evenodd" clip-rule="evenodd" d="M16.5581 3.8L16.3918 3.86494L16.7498 4.68052L16.1 5.3L16.7498 5.91949L16.3918 6.73506L17.2345 7.06412L17.2228 7.95165L18.13 7.94019L18.4664 8.76455L19.3001 8.41432L19.9333 9.05L20.5666 8.41432L20.7 8.47037V17.8625C20.7 18.7941 19.9273 19.55 18.975 19.55H1.725C0.772656 19.55 0 18.7941 0 17.8625V5.4875C0 4.55586 0.772656 3.8 1.725 3.8H16.5581ZM2.59828 13.9742C3.66203 13.9672 4.39156 13.4574 4.39156 12.5574C4.39156 11.6366 3.64341 11.3884 3.07359 11.1994C2.72315 11.0831 2.44016 10.9892 2.44016 10.775C2.44016 10.5816 2.60547 10.5043 2.875 10.5043C3.26312 10.5043 3.75547 10.6203 4.14359 10.8242V9.65C3.71953 9.48477 3.29906 9.42149 2.875 9.42149C1.84 9.42149 1.15 9.94883 1.15 10.8348C1.15 11.6682 1.8562 11.917 2.41658 12.1145C2.78514 12.2443 3.09063 12.3519 3.09063 12.5891C3.09063 12.8211 2.88578 12.8949 2.60188 12.8949C2.17781 12.8949 1.63516 12.7227 1.20391 12.4977V13.6895C1.67828 13.8898 2.15984 13.9742 2.59828 13.9742ZM5.89375 10.5676H6.86406V9.50235H5.89734V8.41953L4.65031 8.67969L4.64312 12.684C4.64312 13.4223 5.21094 13.9672 5.96922 13.9672C6.38609 13.9672 6.69516 13.8934 6.86406 13.802V12.7859C6.70234 12.8492 5.89375 13.0777 5.89375 12.343V10.5676ZM8.54953 10.9121C8.85141 10.5254 9.36172 10.5992 9.52344 10.652V9.50235H9.51984C9.35094 9.44258 8.75437 9.3336 8.45609 9.87149L8.37703 9.50235H7.27375V13.8793H8.54953V10.9121ZM9.82531 13.8793H11.1083V9.50235H9.82531V13.8793ZM9.82531 9.12266L11.1083 8.85547V7.83946L9.82531 8.10664V9.12266ZM12.8692 13.6543C13.0525 13.7844 13.3256 13.9707 13.7713 13.9707C14.6841 13.9672 15.5178 13.25 15.5178 11.6645C15.5178 10.2125 14.6733 9.42149 13.7784 9.42149C13.2789 9.42149 12.9555 9.65352 12.7794 9.81172L12.7147 9.50235H11.5898V15.3313L12.8656 15.0676L12.8692 13.6543ZM17.038 12.1602H19.5356C19.5392 12.0898 19.55 11.8297 19.55 11.7066C19.55 10.427 18.9175 9.41797 17.7064 9.41797C16.4917 9.41797 15.755 10.427 15.755 11.6996C15.755 13.2043 16.6247 13.9672 17.8681 13.9672C18.4791 13.9672 18.9355 13.8301 19.2841 13.6438V12.6383C18.9355 12.8106 18.5366 12.916 18.0298 12.916C17.5339 12.916 17.0955 12.7438 17.038 12.1602Z" fill="#444444"/>
</svg>
