<svg width="38" height="38" viewBox="0 0 38 38" fill="none" xmlns="http://www.w3.org/2000/svg">
<path d="M33.4711 11.8698H32.4108C32.7087 10.7397 32.8828 10.016 32.9333 9.69897C32.9788 9.94955 33.158 10.6732 33.4711 11.8698Z" fill="#444444"/>
<path fill-rule="evenodd" clip-rule="evenodd" d="M38 11.4L37.1411 12.237L37.6143 13.3389L36.5005 13.7835L36.516 14.9827L35.3169 14.9672L34.8723 16.081L33.7703 15.6078L32.9333 16.4667L32.0963 15.6078L30.9944 16.081L30.5498 14.9672L29.3507 14.9827L29.3661 13.7835L28.2523 13.3389L28.7255 12.237L27.8667 11.4L28.7255 10.563L28.2523 9.46107L29.3661 9.01648L29.3507 7.81733L30.5498 7.83282L30.9944 6.71902L32.0963 7.19221L32.9333 6.33334L33.7703 7.19221L34.8723 6.71902L35.3169 7.83282L36.516 7.81733L36.5005 9.01648L37.6143 9.46107L37.1411 10.563L38 11.4ZM33.9936 13.9333H35.4667L33.8232 8.86667H32.0245L30.4 13.9333H31.8806L32.1305 12.986H33.7513L33.9936 13.9333Z" fill="#444444"/>
<path d="M21.2563 20.6467C21.4759 20.4032 21.7787 20.231 22.2656 20.231C23.0316 20.2251 23.5659 21.092 23.5659 22.1964C23.5659 23.3304 23.0434 24.1795 22.2656 24.1795C21.7728 24.1795 21.4759 24.0014 21.2681 23.7817L21.2563 20.6467Z" fill="#444444"/>
<path d="M28.1259 21.4245C28.1259 20.4745 28.7078 20.0767 29.2362 20.0767C29.7528 20.0767 30.305 20.4745 30.305 21.4245H28.1259Z" fill="#444444"/>
<path fill-rule="evenodd" clip-rule="evenodd" d="M27.3569 8.86667L27.0821 8.97634L27.6736 10.3538L26.6 11.4L27.6736 12.4462L27.0821 13.8237L28.4744 14.3794L28.455 15.8783L29.9539 15.859L30.5097 17.2512L31.8871 16.6597L32.9333 17.7333L33.9796 16.6597L34.2 16.7544V32.6167C34.2 34.1901 32.9234 35.4667 31.35 35.4667H2.85C1.27656 35.4667 0 34.1901 0 32.6167V11.7167C0 10.1432 1.27656 8.86667 2.85 8.86667H27.3569ZM4.29281 26.0498C6.05031 26.0379 7.25562 25.177 7.25562 23.657C7.25562 22.1019 6.01954 21.6826 5.07811 21.3634C4.49911 21.167 4.03156 21.0084 4.03156 20.6467C4.03156 20.3201 4.30469 20.1895 4.75 20.1895C5.39125 20.1895 6.20469 20.3854 6.84594 20.7298V18.7467C6.14531 18.4676 5.45062 18.3607 4.75 18.3607C3.04 18.3607 1.9 19.2514 1.9 20.7476C1.9 22.1552 3.06677 22.5754 3.99261 22.9089C4.60154 23.1282 5.10625 23.3099 5.10625 23.7104C5.10625 24.1023 4.76781 24.227 4.29875 24.227C3.59812 24.227 2.70156 23.936 1.98906 23.556V25.5689C2.77281 25.9073 3.56844 26.0498 4.29281 26.0498ZM9.7375 20.2964H11.3406V18.4973H9.74344V16.6685L7.68312 17.1079L7.67125 23.8707C7.67125 25.1176 8.60938 26.0379 9.86219 26.0379C10.5509 26.0379 11.0616 25.9132 11.3406 25.7589V24.0429C11.0734 24.1498 9.7375 24.5357 9.7375 23.2948V20.2964ZM14.1253 20.8782C14.6241 20.2251 15.4672 20.3498 15.7344 20.4389V18.4973H15.7284C15.4494 18.3964 14.4637 18.2123 13.9709 19.1207L13.8403 18.4973H12.0175V25.8895H14.1253V20.8782ZM16.2331 25.8895H18.3528V18.4973H16.2331V25.8895ZM16.2331 17.856L18.3528 17.4048V15.6889L16.2331 16.1401V17.856ZM21.2622 25.5095C21.565 25.7292 22.0163 26.0439 22.7525 26.0439C24.2606 26.0379 25.6381 24.8267 25.6381 22.1489C25.6381 19.6967 24.2428 18.3607 22.7644 18.3607C21.9391 18.3607 21.4047 18.7526 21.1138 19.0198L21.0069 18.4973H19.1484V28.3417L21.2563 27.8964L21.2622 25.5095ZM28.1497 22.986H32.2762C32.2822 22.8673 32.3 22.4279 32.3 22.2201C32.3 20.0589 31.255 18.3548 29.2541 18.3548C27.2472 18.3548 26.03 20.0589 26.03 22.2082C26.03 24.7495 27.4669 26.0379 29.5213 26.0379C30.5306 26.0379 31.2847 25.8064 31.8606 25.4917V23.7935C31.2847 24.0845 30.6256 24.2626 29.7884 24.2626C28.9691 24.2626 28.2447 23.9717 28.1497 22.986Z" fill="#444444"/>
</svg>
