<svg width="20" height="20" viewBox="0 0 20 20" fill="none" xmlns="http://www.w3.org/2000/svg">
<path d="M17.2914 3.875H4.81555L4.56973 2.57354C4.50689 2.241 4.21438 2 3.87353 2H1.35417C1.15858 2 1 2.15741 1 2.35156V2.58594C1 2.78009 1.15858 2.9375 1.35417 2.9375H3.6775L5.74131 13.8637C5.43608 14.1967 5.24999 14.6393 5.24999 15.125C5.24999 16.1605 6.09568 17 7.13888 17C8.18208 17 9.02777 16.1605 9.02777 15.125C9.02813 14.7958 8.94074 14.4723 8.77445 14.1875H13.0589C12.8926 14.4723 12.8052 14.7958 12.8056 15.125C12.8056 16.1605 13.6513 17 14.6945 17C15.7376 17 16.5833 16.1605 16.5833 15.125C16.5833 14.5979 16.3639 14.1219 16.0111 13.7812C15.9347 13.4812 15.6613 13.25 15.3239 13.25H6.58638L6.23221 11.375H16.0125C16.3481 11.375 16.6376 11.1413 16.706 10.8153L17.9849 4.72153C18.0765 4.28489 17.7407 3.875 17.2914 3.875ZM14.6944 14.1875C15.2152 14.1875 15.6389 14.6081 15.6389 15.125C15.6389 15.6419 15.2152 16.0625 14.6944 16.0625C14.1737 16.0625 13.75 15.6419 13.75 15.125C13.75 14.6081 14.1737 14.1875 14.6944 14.1875ZM7.13888 14.1875C7.65965 14.1875 8.08332 14.6081 8.08332 15.125C8.08332 15.6419 7.65965 16.0625 7.13888 16.0625C6.61811 16.0625 6.19444 15.6419 6.19444 15.125C6.19444 14.6081 6.61811 14.1875 7.13888 14.1875ZM15.8206 10.4375H6.05513L4.99263 4.8125H17.0011L15.8206 10.4375ZM9.02777 7.74219V7.50781C9.02777 7.31366 9.18634 7.15625 9.38193 7.15625H10.4444V6.10156C10.4444 5.90741 10.603 5.75 10.7986 5.75H11.0347C11.2303 5.75 11.3889 5.90741 11.3889 6.10156V7.15625H12.4514C12.647 7.15625 12.8055 7.31366 12.8055 7.50781V7.74219C12.8055 7.93634 12.647 8.09375 12.4514 8.09375H11.3889V9.14844C11.3889 9.34259 11.2303 9.5 11.0347 9.5H10.7986C10.603 9.5 10.4444 9.34259 10.4444 9.14844V8.09375H9.38193C9.18634 8.09375 9.02777 7.93634 9.02777 7.74219Z" fill="#444444"/>
</svg>
