<svg width="30" height="30" viewBox="0 0 30 30" fill="none" xmlns="http://www.w3.org/2000/svg">
<path d="M28.7495 4.375H6.73332L6.29952 2.03238C6.18864 1.43379 5.67244 1 5.07093 1H0.624999C0.279843 1 0 1.28334 0 1.63281V2.05469C0 2.40416 0.279843 2.6875 0.624999 2.6875H4.72499L8.36702 22.3546C7.82837 22.9541 7.49999 23.7507 7.49999 24.625C7.49999 26.4889 8.99238 28 10.8333 28C12.6743 28 14.1666 26.4889 14.1666 24.625C14.1673 24.0324 14.0131 23.4502 13.7196 22.9375H21.2804C20.9869 23.4502 20.8327 24.0324 20.8334 24.625C20.8334 26.4889 22.3257 28 24.1667 28C26.0076 28 27.5 26.4889 27.5 24.625C27.5 23.6761 27.1128 22.8194 26.4902 22.2062C26.3553 21.6661 25.8729 21.25 25.2775 21.25H9.85832L9.23332 17.875H26.4927C27.0848 17.875 27.5957 17.4544 27.7165 16.8675L29.9733 5.89876C30.135 5.11281 29.5424 4.375 28.7495 4.375ZM24.1666 22.9375C25.0856 22.9375 25.8333 23.6945 25.8333 24.625C25.8333 25.5555 25.0856 26.3125 24.1666 26.3125C23.2476 26.3125 22.5 25.5555 22.5 24.625C22.5 23.6945 23.2476 22.9375 24.1666 22.9375ZM10.8333 22.9375C11.7523 22.9375 12.5 23.6945 12.5 24.625C12.5 25.5555 11.7523 26.3125 10.8333 26.3125C9.91431 26.3125 9.16665 25.5555 9.16665 24.625C9.16665 23.6945 9.91431 22.9375 10.8333 22.9375ZM26.1539 16.1875H8.92082L7.04582 6.0625H28.2372L26.1539 16.1875ZM14.1666 11.3359V10.9141C14.1666 10.5646 14.4465 10.2812 14.7916 10.2812H16.6666V8.38281C16.6666 8.03334 16.9465 7.75 17.2916 7.75H17.7083C18.0535 7.75 18.3333 8.03334 18.3333 8.38281V10.2812H20.2083C20.5535 10.2812 20.8333 10.5646 20.8333 10.9141V11.3359C20.8333 11.6854 20.5535 11.9687 20.2083 11.9687H18.3333V13.8672C18.3333 14.2167 18.0535 14.5 17.7083 14.5H17.2916C16.9465 14.5 16.6666 14.2167 16.6666 13.8672V11.9687H14.7916C14.4465 11.9687 14.1666 11.6854 14.1666 11.3359Z" fill="#444444"/>
</svg>
