<svg width="30" height="30" viewBox="0 0 30 30" fill="none" xmlns="http://www.w3.org/2000/svg">
<path fill-rule="evenodd" clip-rule="evenodd" d="M25.0339 15.9081L25.921 16.9922C26.0263 17.1209 26.0263 17.3302 25.921 17.4592C25.8684 17.5235 25.7993 17.5556 25.7302 17.5556C25.661 17.5556 25.5919 17.5235 25.5393 17.4592L24.6521 16.3745C24.2682 16.7431 23.7841 16.9635 23.2579 16.9635C22.0108 16.9635 21 15.728 21 14.2037C21 12.6797 22.0108 11.4444 23.2579 11.4444C24.5047 11.4444 25.5155 12.6797 25.5155 14.2037C25.5155 14.8468 25.3354 15.4389 25.0339 15.9081ZM23.2579 12.1045C22.3108 12.1045 21.54 13.046 21.54 14.2037C21.54 15.3617 22.3108 16.3035 23.2579 16.3035C24.205 16.3035 24.9755 15.3617 24.9755 14.2037C24.9755 13.046 24.205 12.1045 23.2579 12.1045Z" fill="#333333"/>
<path fill-rule="evenodd" clip-rule="evenodd" d="M0 14.5C0 11.4624 2.01472 9 4.5 9H24.5C26.9853 9 29 11.4624 29 14.5C29 17.5376 26.9853 20 24.5 20H4.5C2.01472 20 0 17.5376 0 14.5ZM4.5 9.73333H24.5C26.6539 9.73333 28.4 11.8674 28.4 14.5C28.4 17.1326 26.6539 19.2667 24.5 19.2667H4.5C2.34609 19.2667 0.6 17.1326 0.6 14.5C0.6 11.8674 2.34609 9.73333 4.5 9.73333Z" fill="#333333"/>
</svg>
