<svg width="20" height="20" viewBox="0 0 20 20" fill="none" xmlns="http://www.w3.org/2000/svg">
<path fill-rule="evenodd" clip-rule="evenodd" d="M17.2271 10.2289L17.9368 11.175C18.0211 11.2874 18.0211 11.47 17.9368 11.5826C17.8947 11.6387 17.8394 11.6667 17.7841 11.6667C17.7288 11.6667 17.6735 11.6387 17.6314 11.5826L16.9217 10.6359C16.6145 10.9576 16.2273 11.15 15.8063 11.15C14.8087 11.15 14 10.0717 14 8.74137C14 7.41135 14.8087 6.33333 15.8063 6.33333C16.8038 6.33333 17.6124 7.41135 17.6124 8.74137C17.6124 9.3027 17.4683 9.81938 17.2271 10.2289ZM15.8063 6.90935C15.0486 6.90935 14.432 7.73104 14.432 8.74137C14.432 9.75199 15.0486 10.574 15.8063 10.574C16.564 10.574 17.1804 9.75199 17.1804 8.74137C17.1804 7.73104 16.564 6.90935 15.8063 6.90935Z" fill="#333333"/>
<path fill-rule="evenodd" clip-rule="evenodd" d="M0 9C0 6.79086 1.34315 5 3 5H17C18.6569 5 20 6.79086 20 9C20 11.2091 18.6569 13 17 13H3C1.34315 13 0 11.2091 0 9ZM3 5.53333H17C18.4359 5.53333 19.6 7.08541 19.6 9C19.6 10.9146 18.4359 12.4667 17 12.4667H3C1.56406 12.4667 0.4 10.9146 0.4 9C0.4 7.08541 1.56406 5.53333 3 5.53333Z" fill="#333333"/>
</svg>
