<svg width="38" height="38" viewBox="0 0 38 38" fill="none" xmlns="http://www.w3.org/2000/svg">
<path d="M33.4711 11.8698H32.4108C32.7087 10.7397 32.8828 10.016 32.9333 9.69897C32.9788 9.94955 33.158 10.6732 33.4711 11.8698Z" fill="#444444"/>
<path fill-rule="evenodd" clip-rule="evenodd" d="M38 11.4L37.1411 12.237L37.6143 13.3389L36.5005 13.7835L36.516 14.9827L35.3169 14.9672L34.8723 16.081L33.7703 15.6078L32.9333 16.4667L32.0963 15.6078L30.9944 16.081L30.5498 14.9672L29.3507 14.9827L29.3661 13.7835L28.2523 13.3389L28.7255 12.237L27.8667 11.4L28.7255 10.563L28.2523 9.46107L29.3661 9.01648L29.3507 7.81733L30.5498 7.83282L30.9944 6.71902L32.0963 7.19221L32.9333 6.33334L33.7703 7.19221L34.8723 6.71902L35.3169 7.83282L36.516 7.81733L36.5005 9.01648L37.6143 9.46107L37.1411 10.563L38 11.4ZM33.9936 13.9333H35.4667L33.8232 8.86667H32.0245L30.4 13.9333H31.8806L32.1305 12.986H33.7513L33.9936 13.9333Z" fill="#444444"/>
<path d="M13.0033 22.675C13.0033 23.5885 13.7467 24.3318 14.6603 24.3318C15.574 24.3318 16.3174 23.5885 16.3174 22.675C16.3174 21.7614 15.574 21.0181 14.6603 21.0181C13.7467 21.0181 13.0033 21.7614 13.0033 22.675Z" fill="#444444"/>
<path d="M31.4106 21.9775C31.1944 21.3357 30.5788 20.8839 29.8911 20.8839C29.2034 20.8839 28.5878 21.3357 28.3749 21.9775H31.4106Z" fill="#444444"/>
<path fill-rule="evenodd" clip-rule="evenodd" d="M27.3569 8.86667L27.0821 8.97634L27.6736 10.3538L26.6 11.4L27.6736 12.4462L27.0821 13.8237L28.4744 14.3794L28.455 15.8783L29.9539 15.859L30.5097 17.2512L31.8871 16.6597L32.9333 17.7333L33.9796 16.6597L34.2 16.7544V32.9333C34.2 34.3325 33.0658 35.4667 31.6667 35.4667H2.53333C1.13421 35.4667 0 34.3325 0 32.9333V11.4C0 10.0009 1.13421 8.86667 2.53333 8.86667H27.3569ZM14.6603 19.5217C12.9215 19.5217 11.51 20.9362 11.51 22.6717C11.51 24.4071 12.9247 25.8217 14.6603 25.8217C16.3959 25.8217 17.8106 24.4071 17.8106 22.6717C17.8106 20.9362 16.3992 19.5217 14.6603 19.5217ZM26.1219 17.449C26.1219 17.9915 25.682 18.4313 25.1395 18.4313C24.5969 18.4313 24.157 17.9915 24.157 17.449C24.157 16.9065 24.5969 16.4667 25.1395 16.4667C25.682 16.4667 26.1219 16.9065 26.1219 17.449ZM8.22875 19.525C8.14689 19.5184 8.06826 19.5151 7.98641 19.5151C7.22669 19.5151 6.50626 19.8262 5.98884 20.3763C5.47142 19.8295 4.75426 19.5151 4.00107 19.5151C2.49469 19.5151 1.26667 20.7398 1.26667 22.246V25.694H2.7403V22.2886C2.7403 21.6632 3.25443 21.0869 3.86026 21.0247C3.90283 21.0214 3.9454 21.0181 3.9847 21.0181C4.66584 21.0181 5.22254 21.5747 5.22582 22.2558V25.694H6.73218V22.282C6.73218 21.6599 7.24306 21.0836 7.85216 21.0214C7.89473 21.0181 7.93729 21.0148 7.97659 21.0148C8.65772 21.0148 9.21771 21.5682 9.22099 22.246V25.694H10.7274V22.2886C10.7274 21.5977 10.4719 20.933 10.0102 20.4189C9.54846 19.9015 8.91644 19.5839 8.22875 19.525ZM18.6228 16.614H20.1291V25.7005H18.6228V16.614ZM23.0109 16.614H21.5045V25.7005H23.0109V16.614ZM24.3863 19.6723H25.8927V25.6972H24.3863V19.6723ZM32.9333 22.5309C32.9333 21.7319 32.6222 20.9788 32.059 20.4058C31.4924 19.8328 30.7458 19.5151 29.9501 19.5151H29.9107C29.0855 19.525 28.3061 19.8524 27.7233 20.4385C27.1403 21.0247 26.8129 21.8007 26.8031 22.6291C26.7932 23.4739 27.1174 24.2729 27.7167 24.8786C28.3159 25.4844 29.1085 25.8184 29.9533 25.8184H29.9566C31.0635 25.8184 32.1015 25.2257 32.6681 24.2729L32.7401 24.1517L31.4957 23.5394L31.4335 23.6409C31.1224 24.155 30.5821 24.4595 29.9828 24.4595C29.2165 24.4595 28.555 23.9487 28.352 23.2218H32.9333V22.5309Z" fill="#444444"/>
</svg>
