<svg width="23" height="23" viewBox="0 0 23 23" fill="none" xmlns="http://www.w3.org/2000/svg">
<path d="M20.2588 5.5782H19.617C19.7973 4.90901 19.9028 4.48055 19.9333 4.29281C19.9608 4.44118 20.0693 4.86965 20.2588 5.5782Z" fill="#444444"/>
<path fill-rule="evenodd" clip-rule="evenodd" d="M23 5.3L22.4802 5.79559L22.7666 6.44805L22.0924 6.7113L22.1018 7.42132L21.376 7.41215L21.1069 8.07164L20.4399 7.79146L19.9333 8.3L19.4267 7.79146L18.7598 8.07164L18.4907 7.41215L17.7649 7.42132L17.7742 6.7113L17.1001 6.44805L17.3865 5.79559L16.8667 5.3L17.3865 4.80442L17.1001 4.15195L17.7742 3.88871L17.7649 3.17869L18.4907 3.18785L18.7598 2.52837L19.4267 2.80855L19.9333 2.3L20.4399 2.80855L21.1069 2.52837L21.376 3.18785L22.1018 3.17869L22.0924 3.88871L22.7666 4.15195L22.4802 4.80442L23 5.3ZM20.5751 6.8H21.4667L20.4719 3.8H19.3833L18.4 6.8H19.2962L19.4474 6.23906H20.4284L20.5751 6.8Z" fill="#444444"/>
<path d="M7.87042 11.976C7.87042 12.5169 8.32034 12.957 8.87335 12.957C9.42635 12.957 9.8763 12.5169 9.8763 11.976C9.8763 11.435 9.42635 10.9949 8.87335 10.9949C8.32034 10.9949 7.87042 11.435 7.87042 11.976Z" fill="#444444"/>
<path d="M19.0117 11.563C18.8808 11.183 18.5082 10.9154 18.092 10.9154C17.6757 10.9154 17.3031 11.183 17.1743 11.563H19.0117Z" fill="#444444"/>
<path fill-rule="evenodd" clip-rule="evenodd" d="M16.5581 3.8L16.3918 3.86494L16.7498 4.68052L16.1 5.3L16.7498 5.91949L16.3918 6.73506L17.2345 7.06412L17.2228 7.95165L18.13 7.94019L18.4664 8.76455L19.3001 8.41432L19.9333 9.05L20.5666 8.41432L20.7 8.47037V18.05C20.7 18.8784 20.0135 19.55 19.1667 19.55H1.53333C0.686497 19.55 0 18.8784 0 18.05V5.3C0 4.47158 0.686497 3.8 1.53333 3.8H16.5581ZM8.87335 10.1089C7.82088 10.1089 6.96659 10.9465 6.96659 11.974C6.96659 13.0016 7.82286 13.8391 8.87335 13.8391C9.92386 13.8391 10.7801 13.0016 10.7801 11.974C10.7801 10.9465 9.92584 10.1089 8.87335 10.1089ZM15.8106 8.88164C15.8106 9.20287 15.5444 9.46328 15.216 9.46328C14.8876 9.46328 14.6214 9.20287 14.6214 8.88164C14.6214 8.56041 14.8876 8.3 15.216 8.3C15.5444 8.3 15.8106 8.56041 15.8106 8.88164ZM4.98056 10.1108C4.93101 10.107 4.88342 10.105 4.83388 10.105C4.37405 10.105 3.938 10.2892 3.62482 10.6149C3.31165 10.2911 2.87758 10.105 2.4217 10.105C1.50995 10.105 0.766667 10.8301 0.766667 11.722V13.7635H1.6586V11.7472C1.6586 11.3769 1.96979 11.0356 2.33647 10.9988C2.36224 10.9969 2.38801 10.9949 2.41179 10.9949C2.82406 10.9949 3.16101 11.3245 3.163 11.7278V13.7635H4.07474V11.7433C4.07474 11.3749 4.38396 11.0337 4.75263 10.9969C4.77839 10.9949 4.80415 10.993 4.82793 10.993C5.2402 10.993 5.57914 11.3206 5.58112 11.722V13.7635H6.49289V11.7472C6.49289 11.3381 6.33828 10.9445 6.05882 10.6401C5.77933 10.3338 5.39679 10.1457 4.98056 10.1108ZM11.2717 8.38725H12.1834V13.7674H11.2717V8.38725ZM13.9277 8.38725H13.0159V13.7674H13.9277V8.38725ZM14.7601 10.1981H15.6719V13.7655H14.7601V10.1981ZM19.9333 11.8906C19.9333 11.4176 19.745 10.9717 19.4041 10.6324C19.0612 10.2931 18.6093 10.105 18.1277 10.105H18.1039C17.6044 10.1108 17.1327 10.3047 16.7799 10.6518C16.4271 10.9988 16.2288 11.4583 16.2229 11.9488C16.217 12.449 16.4132 12.9221 16.7759 13.2808C17.1386 13.6395 17.6183 13.8372 18.1297 13.8372H18.1316C18.8016 13.8372 19.4299 13.4863 19.7728 12.9221L19.8164 12.8504L19.0632 12.4878L19.0255 12.5479C18.8372 12.8523 18.5102 13.0326 18.1475 13.0326C17.6837 13.0326 17.2833 12.7302 17.1604 12.2997H19.9333V11.8906Z" fill="#444444"/>
</svg>
