<svg width="20" height="20" viewBox="0 0 20 20" fill="none" xmlns="http://www.w3.org/2000/svg">
<path d="M11.5382 2.47711C12.0435 2.45204 12.5281 2.64672 12.9919 3.06115L16.3554 6.10607L16.716 5.71687L17.9999 6.87924L16.0436 9.04008L14.7592 7.86914L15.0785 7.51659L11.697 4.45517C11.3056 4.10627 10.8199 3.94618 10.2397 3.97489C9.85508 3.99393 9.48523 4.08437 9.13062 4.24589C9.88586 3.10891 10.6884 2.51931 11.5382 2.47711Z" fill="#333333"/>
<path d="M13.9597 3.76473L15.5057 5.16441L15.7759 4.86601L14.2298 3.46634L13.9597 3.76473Z" fill="#333333"/>
<path d="M7.67721 10.4762L3.5686 14.815L5.53953 16.5993L9.45679 12.0812L7.67721 10.4762Z" fill="#333333"/>
<path d="M11.6549 9.54432L14.0573 6.77278L12.5022 5.36495L9.9834 8.03685L11.6549 9.54432Z" fill="#333333"/>
<path d="M16.1898 14.4123C16.2372 14.2084 16.256 14.0061 16.246 13.8051C16.2166 13.2137 15.985 12.7214 15.5509 12.3286C15.1169 11.9357 14.6014 11.754 14.004 11.7837C13.8032 11.7937 13.6034 11.8296 13.4049 11.8911L11.2806 9.9762L11.2899 9.96541L9.60112 8.44224L9.59842 8.44509L7.37427 6.43149C7.41631 6.23379 7.43218 6.03435 7.42234 5.83332C7.39236 5.2304 7.16039 4.73251 6.72644 4.3395C6.2925 3.94665 5.77969 3.76482 5.18835 3.79417C4.98161 3.80449 4.77932 3.84336 4.58115 3.91063L6.299 5.46586L4.77694 7.15611L3.05876 5.60104C3.01148 5.80492 2.9926 6.00738 3.0026 6.20825C3.03195 6.79975 3.2636 7.29192 3.6977 7.68478C4.13165 8.07763 4.64445 8.25946 5.23579 8.22995C5.45412 8.21916 5.66784 8.17695 5.87711 8.10301L6.62268 8.77797L6.62426 8.77623L11.4787 13.1544L11.4697 13.1644L11.8897 13.5463C11.8372 13.7619 11.8161 13.976 11.8265 14.1884C11.8562 14.7856 12.0867 15.2808 12.5177 15.6738C12.9489 16.0668 13.463 16.2485 14.0602 16.2188C14.2612 16.2088 14.4608 16.17 14.6589 16.1027L12.941 14.5475L14.4716 12.8567L16.1898 14.4123Z" fill="#333333"/>
</svg>
