<svg width="30" height="30" viewBox="0 0 30 30" fill="none" xmlns="http://www.w3.org/2000/svg">
<path d="M16.6614 5.40412C17.4699 5.36401 18.2452 5.6755 18.9873 6.3386L24.369 11.2106L24.946 10.5878L27.0003 12.4476L23.8702 15.905L21.8151 14.0315L22.3259 13.4674L16.9155 8.56907C16.2892 8.01082 15.5121 7.75467 14.5837 7.80062C13.9684 7.83108 13.3766 7.97579 12.8092 8.23422C14.0176 6.41502 15.3017 5.47165 16.6614 5.40412Z" fill="#333333"/>
<path d="M20.5357 7.46435L23.0095 9.70387L23.4417 9.22642L20.968 6.98691L20.5357 7.46435Z" fill="#333333"/>
<path d="M10.4835 18.2028L3.90967 25.145L7.0632 28L13.3309 20.7709L10.4835 18.2028Z" fill="#333333"/>
<path d="M16.8481 16.7118L20.6919 12.2773L18.2037 10.0247L14.1736 14.2998L16.8481 16.7118Z" fill="#333333"/>
<path d="M24.104 24.5007C24.1799 24.1745 24.2099 23.8508 24.1939 23.5292C24.1469 22.583 23.7763 21.7953 23.0817 21.1667C22.3874 20.5381 21.5625 20.2474 20.6067 20.2949C20.2853 20.3109 19.9657 20.3683 19.6481 20.4668L16.2491 17.4029L16.2641 17.3856L13.5619 14.9485L13.5576 14.953L9.99894 11.7312C10.0662 11.4149 10.0916 11.0958 10.0759 10.7742C10.0279 9.80946 9.65672 9.01283 8.9624 8.384C8.26807 7.75543 7.44758 7.4645 6.50142 7.51146C6.17063 7.52797 5.84695 7.59016 5.52987 7.6978L8.27848 10.1862L5.84314 12.8906L3.09402 10.4025C3.01837 10.7287 2.98816 11.0526 3.00416 11.374C3.05112 12.3205 3.42177 13.1079 4.11634 13.7365C4.81067 14.3651 5.63116 14.656 6.57732 14.6088C6.92664 14.5915 7.2686 14.524 7.60345 14.4057L8.79637 15.4857L8.79891 15.4829L16.5662 22.4881L16.5517 22.504L17.2237 23.1151C17.1397 23.4601 17.1059 23.8026 17.1227 24.1425C17.1702 25.0981 17.539 25.8904 18.2285 26.5192C18.9185 27.148 19.7411 27.4387 20.6966 27.3912C21.0183 27.3752 21.3376 27.313 21.6544 27.2054L18.9058 24.717L21.3549 22.0118L24.104 24.5007Z" fill="#333333"/>
</svg>
