<svg width="30" height="30" viewBox="0 0 30 30" fill="none" xmlns="http://www.w3.org/2000/svg">
<path d="M26.1071 2H4.89286C3.29516 2 2 3.25918 2 4.8125V25.4375C2 26.9908 3.29516 28.25 4.89286 28.25H26.1071C27.7048 28.25 29 26.9908 29 25.4375V4.8125C29 3.25918 27.7048 2 26.1071 2ZM26.1071 3.875C26.6389 3.875 27.0714 4.29559 27.0714 4.8125V25.4375C27.0714 25.9544 26.6389 26.375 26.1071 26.375H4.89286C4.36117 26.375 3.92857 25.9544 3.92857 25.4375V4.8125C3.92857 4.29559 4.36117 3.875 4.89286 3.875H26.1071ZM24.0399 9.63436L23.5306 9.13514C23.2493 8.85945 22.7914 8.85764 22.5078 9.13115L12.6576 18.631L8.50055 14.5568C8.21928 14.2811 7.76137 14.2793 7.47781 14.5528L6.96432 15.0479C6.68076 15.3214 6.6789 15.7666 6.96023 16.0423L12.1359 21.1149C12.4172 21.3905 12.8751 21.3924 13.1587 21.1188L24.0358 10.6287C24.3193 10.3552 24.3212 9.91004 24.0399 9.63436V9.63436Z" fill="#444444"/>
</svg>
