<svg width="20" height="20" viewBox="0 0 20 20" fill="none" xmlns="http://www.w3.org/2000/svg">
<path d="M16.3929 2H4.60714C3.71953 2 3 2.71953 3 3.60714V15.3929C3 16.2805 3.71953 17 4.60714 17H16.3929C17.2805 17 18 16.2805 18 15.3929V3.60714C18 2.71953 17.2805 2 16.3929 2ZM16.3929 3.07143C16.6883 3.07143 16.9286 3.31176 16.9286 3.60714V15.3929C16.9286 15.6882 16.6883 15.9286 16.3929 15.9286H4.60714C4.31176 15.9286 4.07143 15.6882 4.07143 15.3929V3.60714C4.07143 3.31176 4.31176 3.07143 4.60714 3.07143H16.3929ZM15.2444 6.36249L14.9614 6.07722C14.8052 5.91969 14.5508 5.91865 14.3932 6.07494L8.92088 11.5034L6.61142 9.17529C6.45516 9.01776 6.20076 9.01672 6.04323 9.17301L5.75796 9.45597C5.60042 9.61223 5.59939 9.86663 5.75568 10.0242L8.63106 12.9228C8.78732 13.0803 9.04172 13.0814 9.19925 12.9251L15.2421 6.93068C15.3996 6.77442 15.4006 6.52002 15.2444 6.36249V6.36249Z" fill="#444444"/>
</svg>
