<svg width="20" height="20" viewBox="0 0 20 20" fill="none" xmlns="http://www.w3.org/2000/svg">
<path d="M13.2439 7.0874L12.9126 6.75605C12.8212 6.66465 12.6727 6.66465 12.5813 6.75605L7.75605 11.581C7.66465 11.6724 7.66465 11.8209 7.75605 11.9123L8.0874 12.2437C8.17881 12.3351 8.32734 12.3351 8.41875 12.2437L13.2437 7.41875C13.3354 7.32734 13.3354 7.1791 13.2439 7.0874V7.0874ZM10.0312 7.625C10.0312 6.84951 9.40049 6.21875 8.625 6.21875C7.84951 6.21875 7.21875 6.84951 7.21875 7.625C7.21875 8.40049 7.84951 9.03125 8.625 9.03125C9.40049 9.03125 10.0312 8.40049 10.0312 7.625ZM8.15625 7.625C8.15625 7.36631 8.36689 7.15625 8.625 7.15625C8.88311 7.15625 9.09375 7.36631 9.09375 7.625C9.09375 7.88369 8.88311 8.09375 8.625 8.09375C8.36689 8.09375 8.15625 7.88369 8.15625 7.625ZM12.375 9.96875C11.5995 9.96875 10.9688 10.5995 10.9688 11.375C10.9688 12.1505 11.5995 12.7812 12.375 12.7812C13.1505 12.7812 13.7812 12.1505 13.7812 11.375C13.7812 10.5995 13.1505 9.96875 12.375 9.96875ZM12.375 11.8438C12.1169 11.8438 11.9062 11.6337 11.9062 11.375C11.9062 11.1163 12.1169 10.9062 12.375 10.9062C12.6331 10.9062 12.8438 11.1163 12.8438 11.375C12.8438 11.6337 12.6331 11.8438 12.375 11.8438ZM18 9.5C18 8.45996 17.4316 7.50195 16.5469 6.99512C16.8135 6.01074 16.5381 4.93262 15.8027 4.19727C15.0674 3.46191 13.9893 3.18652 13.0049 3.45312C12.498 2.56836 11.54 2 10.5 2C9.45996 2 8.50195 2.56836 7.99512 3.45312C7.01074 3.18652 5.93262 3.46191 5.19727 4.19727C4.46191 4.93262 4.18652 6.01074 4.45312 6.99512C3.56836 7.50195 3 8.45996 3 9.5C3 10.54 3.56836 11.498 4.45312 12.0049C4.18652 12.9893 4.46191 14.0674 5.19727 14.8027C5.97363 15.5791 7.05469 15.8018 7.99512 15.5469C8.50488 16.4316 9.45996 17 10.5 17C11.54 17 12.4951 16.4316 13.0049 15.5469C13.9629 15.8076 15.0381 15.5674 15.8027 14.8027C16.5381 14.0674 16.8135 12.9893 16.5469 12.0049C17.4316 11.498 18 10.54 18 9.5ZM15.3311 11.501C15.4863 11.8467 16.1953 13.0859 15.1406 14.1406C14.2939 14.9873 13.4561 14.7646 12.501 14.3311C12.3662 14.6855 11.9941 16.0625 10.5 16.0625C8.97363 16.0625 8.60449 14.6123 8.49902 14.3311C7.54395 14.7646 6.70312 14.9814 5.85937 14.1406C4.78125 13.0654 5.54004 11.7822 5.66895 11.501C5.31445 11.3662 3.9375 10.9941 3.9375 9.5C3.9375 7.97363 5.3877 7.60449 5.66895 7.49902C5.51367 7.15332 4.80469 5.91406 5.85937 4.85937C6.9375 3.77832 8.22656 4.5459 8.49902 4.66895C8.63379 4.31445 9.00586 2.9375 10.5 2.9375C12.0264 2.9375 12.3955 4.3877 12.501 4.66895C12.8467 4.51367 14.0859 3.80469 15.1406 4.85937C16.2187 5.93457 15.46 7.21777 15.3311 7.49902C15.6855 7.63379 17.0625 8.00586 17.0625 9.5C17.0625 11.0264 15.6123 11.3955 15.3311 11.501Z" fill="#444444"/>
</svg>
