<svg width="30" height="30" viewBox="0 0 30 30" fill="none" xmlns="http://www.w3.org/2000/svg">
<path d="M19.0732 11.479L18.521 10.9268C18.3687 10.7744 18.1211 10.7744 17.9688 10.9268L9.92676 18.9683C9.77441 19.1206 9.77441 19.3682 9.92676 19.5205L10.479 20.0728C10.6313 20.2251 10.8789 20.2251 11.0313 20.0728L19.0728 12.0313C19.2256 11.8789 19.2256 11.6318 19.0732 11.479V11.479ZM13.7188 12.375C13.7188 11.0825 12.6675 10.0312 11.375 10.0312C10.0825 10.0312 9.03125 11.0825 9.03125 12.375C9.03125 13.6675 10.0825 14.7188 11.375 14.7188C12.6675 14.7188 13.7188 13.6675 13.7188 12.375ZM10.5938 12.375C10.5938 11.9438 10.9448 11.5938 11.375 11.5938C11.8052 11.5938 12.1562 11.9438 12.1562 12.375C12.1562 12.8062 11.8052 13.1562 11.375 13.1562C10.9448 13.1562 10.5938 12.8062 10.5938 12.375ZM17.625 16.2812C16.3325 16.2812 15.2812 17.3325 15.2812 18.625C15.2812 19.9175 16.3325 20.9688 17.625 20.9688C18.9175 20.9688 19.9688 19.9175 19.9688 18.625C19.9688 17.3325 18.9175 16.2812 17.625 16.2812ZM17.625 19.4062C17.1948 19.4062 16.8438 19.0562 16.8438 18.625C16.8438 18.1938 17.1948 17.8438 17.625 17.8438C18.0552 17.8438 18.4062 18.1938 18.4062 18.625C18.4062 19.0562 18.0552 19.4062 17.625 19.4062ZM27 15.5C27 13.7666 26.0527 12.1699 24.5781 11.3252C25.0225 9.68457 24.5635 7.8877 23.3379 6.66211C22.1123 5.43652 20.3154 4.97754 18.6748 5.42187C17.8301 3.94727 16.2334 3 14.5 3C12.7666 3 11.1699 3.94727 10.3252 5.42187C8.68457 4.97754 6.8877 5.43652 5.66211 6.66211C4.43652 7.8877 3.97754 9.68457 4.42187 11.3252C2.94727 12.1699 2 13.7666 2 15.5C2 17.2334 2.94727 18.8301 4.42187 19.6748C3.97754 21.3154 4.43652 23.1123 5.66211 24.3379C6.95605 25.6318 8.75781 26.0029 10.3252 25.5781C11.1748 27.0527 12.7666 28 14.5 28C16.2334 28 17.8252 27.0527 18.6748 25.5781C20.2715 26.0127 22.0635 25.6123 23.3379 24.3379C24.5635 23.1123 25.0225 21.3154 24.5781 19.6748C26.0527 18.8301 27 17.2334 27 15.5ZM22.5518 18.835C22.8105 19.4111 23.9922 21.4766 22.2344 23.2344C20.8232 24.6455 19.4268 24.2744 17.835 23.5518C17.6104 24.1426 16.9902 26.4375 14.5 26.4375C11.9561 26.4375 11.3408 24.0205 11.165 23.5518C9.57324 24.2744 8.17187 24.6357 6.76562 23.2344C4.96875 21.4424 6.2334 19.3037 6.44824 18.835C5.85742 18.6104 3.5625 17.9902 3.5625 15.5C3.5625 12.9561 5.97949 12.3408 6.44824 12.165C6.18945 11.5889 5.00781 9.52344 6.76562 7.76562C8.5625 5.96387 10.7109 7.24316 11.165 7.44824C11.3896 6.85742 12.0098 4.5625 14.5 4.5625C17.0439 4.5625 17.6592 6.97949 17.835 7.44824C18.4111 7.18945 20.4766 6.00781 22.2344 7.76562C24.0312 9.55762 22.7666 11.6963 22.5518 12.165C23.1426 12.3896 25.4375 13.0098 25.4375 15.5C25.4375 18.0439 23.0205 18.6592 22.5518 18.835Z" fill="#444444"/>
</svg>
