<svg width="20" height="20" viewBox="0 0 20 20" fill="none" xmlns="http://www.w3.org/2000/svg">
<path d="M4.7716 5.03478C4.91648 5.29428 4.70582 5.59938 4.38206 5.59938H3.45349V13.4004H4.38206C4.70582 13.4004 4.91648 13.7056 4.7716 13.9654L3.15258 16.8656C3.05225 17.0448 2.76594 17.0448 2.66561 16.8656L1.04652 13.9654C0.901779 13.7056 1.1123 13.4004 1.43613 13.4004H2.36463V5.59938H1.43613C1.1123 5.59938 0.901779 5.29428 1.04652 5.03478L2.66561 2.13473C2.76594 1.95509 3.05225 1.95509 3.15258 2.13473L4.7716 5.03478Z" fill="#333333"/>
<path d="M18.4545 6.21875H9.72728C9.42579 6.21875 9.18182 6.00908 9.18182 5.75C9.18182 5.49091 9.42579 5.28125 9.72728 5.28125H18.4545C18.756 5.28125 19 5.49091 19 5.75C19 6.00908 18.756 6.21875 18.4545 6.21875Z" fill="#333333"/>
<path d="M18.4545 9.03125H9.72728C9.42579 9.03125 9.18182 9.24088 9.18182 9.5C9.18182 9.75912 9.42579 9.96875 9.72728 9.96875H18.4545C18.756 9.96875 19 9.75912 19 9.5C19 9.24088 18.756 9.03125 18.4545 9.03125Z" fill="#333333"/>
<path d="M9.72728 12.7812H18.4545C18.756 12.7812 19 12.9907 19 13.2497C19 13.5087 18.756 13.7188 18.4545 13.7188H9.72728C9.42579 13.7188 9.18182 13.5087 9.18182 13.2497C9.18182 12.9907 9.42579 12.7812 9.72728 12.7812Z" fill="#333333"/>
</svg>
