<svg width="30" height="30" viewBox="0 0 30 30" fill="none" xmlns="http://www.w3.org/2000/svg">
<path d="M6.86694 7.85564C7.09231 8.27085 6.76461 8.75901 6.26098 8.75901H4.81654V21.2407H6.26098C6.76461 21.2407 7.09231 21.729 6.86694 22.1446L4.34846 26.7849C4.19239 27.0717 3.74702 27.0717 3.59095 26.7849L1.07237 22.1446C0.847211 21.729 1.17469 21.2407 1.67843 21.2407H3.12276V8.75901H1.67843C1.17469 8.75901 0.847211 8.27085 1.07237 7.85564L3.59095 3.21557C3.74702 2.92814 4.19239 2.92814 4.34846 3.21557L6.86694 7.85564Z" fill="#333333"/>
<path d="M28.1515 9.75H14.5758C14.1068 9.75 13.7273 9.41453 13.7273 9C13.7273 8.58546 14.1068 8.25 14.5758 8.25H28.1515C28.6205 8.25 29 8.58546 29 9C29 9.41453 28.6205 9.75 28.1515 9.75Z" fill="#333333"/>
<path d="M28.1515 14.25H14.5758C14.1068 14.25 13.7273 14.5854 13.7273 15C13.7273 15.4146 14.1068 15.75 14.5758 15.75H28.1515C28.6205 15.75 29 15.4146 29 15C29 14.5854 28.6205 14.25 28.1515 14.25Z" fill="#333333"/>
<path d="M14.5758 20.25H28.1515C28.6205 20.25 29 20.5852 29 20.9995C29 21.4139 28.6205 21.75 28.1515 21.75H14.5758C14.1068 21.75 13.7273 21.4139 13.7273 20.9995C13.7273 20.5852 14.1068 20.25 14.5758 20.25Z" fill="#333333"/>
</svg>
