<svg width="20" height="20" viewBox="0 0 20 20" fill="none" xmlns="http://www.w3.org/2000/svg">
<path d="M1.01591 16.7959C1.0053 16.7436 1 16.6808 1 16.6075C1 16.5238 1.02121 16.4349 1.06363 16.3407C1.57266 16.2883 1.92793 16.2151 2.12942 16.1209C2.33091 16.0162 2.43166 15.8435 2.43166 15.6028V8.31868L1.04772 8.50706C1.04772 8.35008 1.05302 8.24542 1.06363 8.19309C2.03928 7.64887 2.78692 7.25641 3.30656 7.0157L3.56108 7.10989V16.0267C3.95346 16.2046 4.41477 16.3093 4.94501 16.3407C4.94501 16.5186 4.92911 16.6703 4.89729 16.7959H1.01591Z" fill="#333333"/>
<path d="M9.86684 15.8383C10.3971 15.8383 10.7736 15.7284 10.9963 15.5086C11.219 15.2889 11.3727 14.8859 11.4576 14.2998C11.553 14.2998 11.6644 14.326 11.7916 14.3783C11.7916 15.3098 11.7121 16.1156 11.553 16.7959H6.16043C6.07559 16.4924 6.03317 16.2203 6.03317 15.9796C8.35564 13.4678 9.71307 11.7619 10.1054 10.8619C10.2857 10.4432 10.3759 9.9932 10.3759 9.51177C10.3759 9.01989 10.2274 8.60649 9.93047 8.27159C9.63353 7.92622 9.25176 7.75353 8.78514 7.75353C7.79889 7.75353 7.16259 8.31345 6.87626 9.43328C6.70658 9.43328 6.58463 9.42282 6.51039 9.40188C6.51039 8.69021 6.53691 8.11983 6.58993 7.69074C7.37469 7.23025 8.17536 7 8.99194 7C9.81912 7 10.466 7.23025 10.9326 7.69074C11.4098 8.15123 11.6485 8.74778 11.6485 9.48038C11.6485 10.213 11.4045 10.9037 10.9167 11.5526C10.4395 12.191 9.30478 13.4312 7.51256 15.2732C7.27925 15.5243 7.09897 15.7127 6.97171 15.8383H9.86684Z" fill="#333333"/>
<path d="M15.1663 11.6782C15.8344 11.6677 16.3859 11.4427 16.8207 11.0031C17.2555 10.5531 17.4729 10.0455 17.4729 9.48038C17.4729 8.90476 17.3456 8.47567 17.0911 8.19309C16.8366 7.90005 16.4813 7.75353 16.0253 7.75353C15.0179 7.75353 14.3763 8.31345 14.1005 9.43328C13.9203 9.43328 13.7983 9.42282 13.7347 9.40188C13.7347 9.2449 13.7347 9.01465 13.7347 8.71115C13.7347 8.40764 13.7559 8.0675 13.7983 7.69074C14.6255 7.23025 15.4262 7 16.2003 7C16.9851 7 17.5949 7.20408 18.0297 7.61225C18.4751 8.02041 18.6978 8.53323 18.6978 9.15071C18.6978 9.76818 18.5069 10.3124 18.1251 10.7834C17.7433 11.2439 17.2502 11.5788 16.6457 11.7881C18.2152 12.1648 19 13.0335 19 14.394C19 15.158 18.6978 15.786 18.0933 16.2779C17.4888 16.7593 16.7359 17 15.8344 17C14.9436 17 14.1005 16.6651 13.3052 15.9953C13.3688 15.786 13.4696 15.6395 13.6074 15.5557C14.1801 15.9848 14.8217 16.1994 15.5322 16.1994C16.2533 16.1994 16.8154 16.0372 17.2184 15.7127C17.6214 15.3778 17.8229 14.9226 17.8229 14.3469C17.8229 13.0387 16.9374 12.3218 15.1663 12.1962V11.6782Z" fill="#333333"/>
</svg>
