<svg width="30" height="30" viewBox="0 0 30 30" fill="none" xmlns="http://www.w3.org/2000/svg">
<path d="M5.01856 27.7551C5.00619 27.6923 5 27.617 5 27.529C5 27.4286 5.02474 27.3218 5.07423 27.2088C5.66811 27.146 6.08258 27.0581 6.31766 26.9451C6.55273 26.8195 6.67027 26.6122 6.67027 26.3234V17.5824L5.05568 17.8085C5.05568 17.6201 5.06186 17.4945 5.07423 17.4317C6.21249 16.7786 7.08474 16.3077 7.69099 16.0188L7.98792 16.1319V26.832C8.4457 27.0455 8.9839 27.1711 9.60252 27.2088C9.60252 27.4223 9.58396 27.6044 9.54684 27.7551H5.01856Z" fill="#333333"/>
<path d="M15.3446 26.606C15.9633 26.606 16.4025 26.4741 16.6623 26.2104C16.9221 25.9466 17.1015 25.4631 17.2005 24.7598C17.3119 24.7598 17.4418 24.7912 17.5902 24.854C17.5902 25.9717 17.4974 26.9388 17.3118 27.7551H11.0205C10.9215 27.3909 10.872 27.0644 10.872 26.7755C13.5816 23.7614 15.1652 21.7143 15.623 20.6342C15.8334 20.1319 15.9385 19.5918 15.9385 19.0141C15.9385 18.4239 15.7653 17.9278 15.4189 17.5259C15.0725 17.1115 14.627 16.9042 14.0827 16.9042C12.932 16.9042 12.1897 17.5761 11.8556 18.9199C11.6577 18.9199 11.5154 18.9074 11.4288 18.8823C11.4288 18.0283 11.4597 17.3438 11.5216 16.8289C12.4371 16.2763 13.3713 16 14.3239 16C15.289 16 16.0437 16.2763 16.5881 16.8289C17.1448 17.3815 17.4232 18.0973 17.4232 18.9765C17.4232 19.8556 17.1386 20.6845 16.5695 21.4631C16.0128 22.2292 14.6889 23.7174 12.598 25.9278C12.3258 26.2292 12.1155 26.4553 11.967 26.606H15.3446Z" fill="#333333"/>
<path d="M21.5274 21.6138C22.3069 21.6013 22.9502 21.3312 23.4575 20.8038C23.9647 20.2637 24.2184 19.6546 24.2184 18.9765C24.2184 18.2857 24.0699 17.7708 23.773 17.4317C23.476 17.0801 23.0616 16.9042 22.5296 16.9042C21.3542 16.9042 20.6057 17.5761 20.284 18.9199C20.0736 18.9199 19.9314 18.9074 19.8571 18.8823C19.8571 18.6939 19.8571 18.4176 19.8571 18.0534C19.8571 17.6892 19.8819 17.281 19.9314 16.8289C20.8964 16.2763 21.8305 16 22.7337 16C23.6493 16 24.3607 16.2449 24.8679 16.7347C25.3876 17.2245 25.6474 17.8399 25.6474 18.5808C25.6474 19.3218 25.4247 19.9749 24.9793 20.54C24.5339 21.0926 23.9586 21.4945 23.2533 21.7457C25.0844 22.1978 26 23.2402 26 24.8728C26 25.7896 25.6474 26.5432 24.9422 27.1334C24.2369 27.7111 23.3585 28 22.3069 28C21.2676 28 20.284 27.5981 19.356 26.7943C19.4303 26.5432 19.5478 26.3673 19.7087 26.2669C20.3768 26.7818 21.1253 27.0392 21.9542 27.0392C22.7956 27.0392 23.4513 26.8446 23.9214 26.4553C24.3916 26.0534 24.6267 25.5071 24.6267 24.8163C24.6267 23.2465 23.5936 22.3862 21.5274 22.2355V21.6138Z" fill="#333333"/>
</svg>
