<svg width="20" height="20" viewBox="0 0 20 20" fill="none" xmlns="http://www.w3.org/2000/svg">
<path fill-rule="evenodd" clip-rule="evenodd" d="M2.66667 7C1.19391 7 0 8.19391 0 9.66667V14.3333C0 15.8061 1.19391 17 2.66667 17H17.3333C18.8061 17 20 15.8061 20 14.3333V9.66667C20 8.19391 18.8061 7 17.3333 7H2.66667ZM3.20532 13.452C2.92843 13.452 2.67021 13.4069 2.43065 13.3167L2.35132 13.5733C2.61887 13.6636 2.90665 13.7087 3.21465 13.7087C3.95199 13.7087 4.32065 13.424 4.32065 12.8547C4.31754 12.5996 4.20554 12.3973 3.98465 12.248C3.89754 12.1889 3.7311 12.1064 3.48532 12.0007C3.23954 11.8918 3.05754 11.8 2.93932 11.7253C2.7931 11.632 2.71999 11.5138 2.71999 11.3707C2.71999 11.1778 2.77132 11.0424 2.87399 10.9647C2.97665 10.8838 3.15243 10.8433 3.40132 10.8433C3.65332 10.8433 3.87576 10.8744 4.06865 10.9367L4.12932 10.7033C3.88976 10.6256 3.62999 10.5867 3.34999 10.5867C3.06999 10.5867 2.84132 10.6598 2.66399 10.806C2.48665 10.9491 2.39799 11.1498 2.39799 11.408C2.39799 11.5604 2.44154 11.6849 2.52865 11.7813C2.57843 11.8342 2.62354 11.8793 2.66399 11.9167C2.70443 11.9509 2.77287 11.9944 2.86932 12.0473C2.96576 12.0971 3.04199 12.136 3.09799 12.164C3.15399 12.1889 3.21932 12.2184 3.29399 12.2527C3.37176 12.2869 3.4371 12.3164 3.48999 12.3413L3.65799 12.4253C3.7171 12.4564 3.78243 12.5062 3.85399 12.5747C3.92865 12.6524 3.96599 12.7504 3.96599 12.8687C3.96599 13.0927 3.90843 13.2467 3.79332 13.3307C3.67821 13.4116 3.48221 13.452 3.20532 13.452ZM4.94912 13.6667H6.66645V13.4053H5.25712V12.234H6.42845V11.9727H5.26179V10.904H6.58245L6.61512 10.6427H4.94912V13.6667ZM8.07035 10.6427H8.49036L9.51235 13.6667H9.18102L8.86836 12.7287H7.69236L7.37969 13.6667H7.04836L8.07035 10.6427ZM7.77635 12.4673H8.78902L8.29436 10.8993H8.28036L7.77635 12.4673ZM10.6216 12.4813L10.9016 12.486H11.0463L11.933 13.746L12.1756 13.5827L11.3916 12.4533C11.6001 12.4129 11.7603 12.3242 11.8723 12.1873C11.9874 12.0504 12.045 11.8389 12.045 11.5527C12.045 11.17 11.9392 10.9164 11.7276 10.792C11.6219 10.7329 11.5114 10.694 11.3963 10.6753C11.2843 10.6536 11.1459 10.6427 10.981 10.6427H10.0943V13.6667H10.407V12.4813H10.6216ZM11.0696 12.22L10.715 12.2153H10.407V10.9273H10.925C11.2267 10.9273 11.4336 10.9662 11.5456 11.044C11.6607 11.1218 11.7183 11.2976 11.7183 11.5713C11.7183 11.8451 11.6732 12.0224 11.583 12.1033C11.4927 12.1811 11.3216 12.22 11.0696 12.22ZM13.324 10.75C13.4547 10.6816 13.576 10.638 13.688 10.6193C13.8 10.5976 13.9447 10.5867 14.122 10.5867C14.2993 10.5867 14.5171 10.6287 14.7753 10.7127L14.7007 10.96C14.4207 10.904 14.2122 10.876 14.0753 10.876C13.9416 10.876 13.8264 10.8838 13.73 10.8993C13.6336 10.9118 13.534 10.9429 13.4313 10.9927C13.3318 11.0424 13.2524 11.1124 13.1933 11.2027C13.0596 11.408 12.9927 11.7222 12.9927 12.1453C12.9927 12.6649 13.086 13.0133 13.2727 13.1907C13.3629 13.2747 13.4562 13.3338 13.5527 13.368C13.6491 13.3991 13.7549 13.4147 13.87 13.4147C13.9882 13.4147 14.0753 13.4116 14.1313 13.4053C14.3118 13.3929 14.4907 13.3338 14.668 13.228L14.7753 13.48C14.5513 13.6324 14.2589 13.7087 13.898 13.7087C13.758 13.7087 13.6367 13.6993 13.534 13.6807C13.4313 13.6651 13.3224 13.6278 13.2073 13.5687C13.0922 13.5064 12.9973 13.4209 12.9227 13.312C12.8511 13.2031 12.7904 13.0507 12.7407 12.8547C12.6909 12.6587 12.666 12.4284 12.666 12.164C12.666 11.8964 12.6971 11.6647 12.7593 11.4687C12.8216 11.2727 12.8978 11.1202 12.988 11.0113C13.0813 10.9024 13.1933 10.8153 13.324 10.75ZM17.448 10.6427H17.14V11.968H15.6933V10.6427H15.3853V13.6667H15.6933V12.2293H17.14V13.6667H17.448V10.6427Z" fill="#444444"/>
</svg>
