<svg width="30" height="30" viewBox="0 0 30 30" fill="none" xmlns="http://www.w3.org/2000/svg">
<path fill-rule="evenodd" clip-rule="evenodd" d="M4 13C1.79086 13 0 14.7909 0 17V24C0 26.2091 1.79086 28 4 28H26C28.2091 28 30 26.2091 30 24V17C30 14.7909 28.2091 13 26 13H4ZM4.80798 22.678C4.39264 22.678 4.00531 22.6103 3.64598 22.475L3.52698 22.86C3.92831 22.9953 4.35998 23.063 4.82198 23.063C5.92798 23.063 6.48098 22.636 6.48098 21.782C6.47631 21.3993 6.30831 21.096 5.97698 20.872C5.84631 20.7833 5.59664 20.6597 5.22798 20.501C4.85931 20.3377 4.58631 20.2 4.40898 20.088C4.18964 19.948 4.07998 19.7707 4.07998 19.556C4.07998 19.2667 4.15698 19.0637 4.31098 18.947C4.46498 18.8257 4.72864 18.765 5.10198 18.765C5.47998 18.765 5.81364 18.8117 6.10298 18.905L6.19398 18.555C5.83464 18.4383 5.44498 18.38 5.02498 18.38C4.60498 18.38 4.26198 18.4897 3.99598 18.709C3.72998 18.9237 3.59698 19.2247 3.59698 19.612C3.59698 19.8407 3.66231 20.0273 3.79298 20.172C3.86764 20.2513 3.93531 20.319 3.99598 20.375C4.05664 20.4263 4.15931 20.4917 4.30398 20.571C4.44864 20.6457 4.56298 20.704 4.64698 20.746C4.73098 20.7833 4.82898 20.8277 4.94098 20.879C5.05764 20.9303 5.15564 20.9747 5.23498 21.012L5.48698 21.138C5.57564 21.1847 5.67364 21.2593 5.78098 21.362C5.89298 21.4787 5.94898 21.6257 5.94898 21.803C5.94898 22.139 5.86264 22.37 5.68998 22.496C5.51731 22.6173 5.22331 22.678 4.80798 22.678ZM7.42368 23H9.99968V22.608H7.88568V20.851H9.64268V20.459H7.89268V18.856H9.87368L9.92268 18.464H7.42368V23ZM12.1055 18.464H12.7355L14.2685 23H13.7715L13.3025 21.593H11.5385L11.0695 23H10.5725L12.1055 18.464ZM11.6645 21.201H13.1835L12.4415 18.849H12.4205L11.6645 21.201ZM15.9325 21.222L16.3525 21.229H16.5695L17.8995 23.119L18.2635 22.874L17.0875 21.18C17.4001 21.1193 17.6405 20.9863 17.8085 20.781C17.9811 20.5757 18.0675 20.2583 18.0675 19.829C18.0675 19.255 17.9088 18.8747 17.5915 18.688C17.4328 18.5993 17.2671 18.541 17.0945 18.513C16.9265 18.4803 16.7188 18.464 16.4715 18.464H15.1415V23H15.6105V21.222H15.9325ZM16.6045 20.83L16.0725 20.823H15.6105V18.891H16.3875C16.8401 18.891 17.1505 18.9493 17.3185 19.066C17.4911 19.1827 17.5775 19.4463 17.5775 19.857C17.5775 20.2677 17.5098 20.5337 17.3745 20.655C17.2391 20.7717 16.9825 20.83 16.6045 20.83ZM19.986 18.625C20.182 18.5223 20.364 18.457 20.532 18.429C20.7 18.3963 20.917 18.38 21.183 18.38C21.449 18.38 21.7757 18.443 22.163 18.569L22.051 18.94C21.631 18.856 21.3183 18.814 21.113 18.814C20.9123 18.814 20.7397 18.8257 20.595 18.849C20.4503 18.8677 20.301 18.9143 20.147 18.989C19.9977 19.0637 19.8787 19.1687 19.79 19.304C19.5893 19.612 19.489 20.0833 19.489 20.718C19.489 21.4973 19.629 22.02 19.909 22.286C20.0443 22.412 20.1843 22.5007 20.329 22.552C20.4737 22.5987 20.6323 22.622 20.805 22.622C20.9823 22.622 21.113 22.6173 21.197 22.608C21.4677 22.5893 21.736 22.5007 22.002 22.342L22.163 22.72C21.827 22.9487 21.3883 23.063 20.847 23.063C20.637 23.063 20.455 23.049 20.301 23.021C20.147 22.9977 19.9837 22.9417 19.811 22.853C19.6383 22.7597 19.496 22.6313 19.384 22.468C19.2767 22.3047 19.1857 22.076 19.111 21.782C19.0363 21.488 18.999 21.1427 18.999 20.746C18.999 20.3447 19.0457 19.997 19.139 19.703C19.2323 19.409 19.3467 19.1803 19.482 19.017C19.622 18.8537 19.79 18.723 19.986 18.625ZM26.172 18.464H25.71V20.452H23.54V18.464H23.078V23H23.54V20.844H25.71V23H26.172V18.464Z" fill="#444444"/>
</svg>
