<svg width="30" height="30" viewBox="0 0 30 30" fill="none" xmlns="http://www.w3.org/2000/svg">
<path d="M8.42479 12.475C8.51808 12.6886 8.56473 12.9509 8.56473 13.262C8.56473 13.5731 8.51808 13.8354 8.42479 14.049C8.33293 14.2625 8.20304 14.4245 8.03512 14.5349C7.86719 14.6453 7.67056 14.7005 7.44522 14.7005C7.21989 14.7005 7.02326 14.6453 6.85533 14.5349C6.68741 14.4245 6.5568 14.2625 6.46351 14.049C6.37165 13.8354 6.32572 13.5731 6.32572 13.262C6.32572 12.9509 6.37165 12.6886 6.46351 12.475C6.5568 12.2614 6.68741 12.0995 6.85533 11.9891C7.02326 11.8787 7.21989 11.8235 7.44522 11.8235C7.67056 11.8235 7.86719 11.8787 8.03512 11.9891C8.20304 12.0995 8.33293 12.2614 8.42479 12.475Z" fill="#333333"/>
<path d="M2.48119 18.1472H1.53392V16.2981H2.47258C2.71227 16.2981 2.90459 16.3382 3.04955 16.4185C3.19452 16.4973 3.29929 16.6063 3.36388 16.7453C3.4299 16.8843 3.46291 17.042 3.46291 17.2183C3.46291 17.3947 3.4299 17.5531 3.36388 17.6935C3.29929 17.8326 3.19523 17.943 3.05171 18.0247C2.90818 18.1064 2.71801 18.1472 2.48119 18.1472Z" fill="#333333"/>
<path d="M5.83002 19.8502C6.03095 19.8502 6.20031 19.8107 6.3381 19.7319C6.47732 19.6531 6.58209 19.5513 6.65242 19.4266C6.72418 19.3019 6.76007 19.1707 6.76007 19.0331V18.5687C6.73854 18.5945 6.69117 18.6181 6.61798 18.6396C6.54621 18.6597 6.46297 18.6776 6.36824 18.6934C6.27495 18.7077 6.18381 18.7206 6.09482 18.7321C6.00727 18.7421 5.93623 18.7507 5.88169 18.7579C5.74964 18.7751 5.62621 18.803 5.51139 18.8417C5.398 18.879 5.30615 18.9356 5.23582 19.0116C5.16693 19.0861 5.13248 19.1879 5.13248 19.3169C5.13248 19.4932 5.19778 19.6265 5.32839 19.7169C5.46044 19.8057 5.62764 19.8502 5.83002 19.8502Z" fill="#333333"/>
<path d="M17.0765 18.3106C17.0861 18.1574 17.1248 18.0127 17.1924 17.8763C17.2714 17.7172 17.3841 17.5882 17.5305 17.4893C17.6783 17.3889 17.8534 17.3387 18.0558 17.3387C18.2395 17.3387 18.3988 17.381 18.5337 17.4656C18.6701 17.5502 18.7748 17.6656 18.848 17.8118C18.9227 17.958 18.96 18.1243 18.96 18.3106H17.0765Z" fill="#333333"/>
<path fill-rule="evenodd" clip-rule="evenodd" d="M3 5C1.34315 5 0 6.34315 0 8V25C0 26.6569 1.34315 28 3 28H27C28.6569 28 30 26.6569 30 25V8C30 6.34315 28.6569 5 27 5H3ZM9.23643 14.4876C9.41871 14.1507 9.50985 13.7422 9.50985 13.262C9.50985 12.7818 9.41871 12.3733 9.23643 12.0364C9.05559 11.6995 8.80872 11.4429 8.49584 11.2666C8.18439 11.0889 7.83418 11 7.44522 11C7.0534 11 6.70176 11.0889 6.39031 11.2666C6.07885 11.4429 5.83271 11.6995 5.65186 12.0364C5.47102 12.3733 5.3806 12.7818 5.3806 13.262C5.3806 13.7408 5.47102 14.1486 5.65186 14.4855C5.83271 14.8223 6.07885 15.0796 6.39031 15.2574C6.70176 15.4351 7.0534 15.524 7.44522 15.524C7.83418 15.524 8.18439 15.4358 8.49584 15.2595C8.80872 15.0818 9.05559 14.8245 9.23643 14.4876ZM4.68791 15.4638V11.0602H3.76001V13.8296H3.72126L1.8181 11.0602H1V15.4638H1.9322V12.6922H1.9645L3.88272 15.4638H4.68791ZM11.9356 15.4638H11.0271L9.7655 11.0602H10.7838L11.5137 14.1199H11.5503L12.3554 11.0602H13.2274L14.0304 14.1264H14.0691L14.799 11.0602H15.8173L14.5557 15.4638H13.6472L12.8075 12.5847H12.7731L11.9356 15.4638ZM1 20.2286V15.825H2.4898C2.8357 15.825 3.11845 15.8874 3.33804 16.0121C3.55907 16.1354 3.72269 16.3024 3.8289 16.5131C3.93511 16.7238 3.98822 16.9589 3.98822 17.2183C3.98822 17.4778 3.93511 17.7136 3.8289 17.9257C3.72413 18.1379 3.56194 18.307 3.34235 18.4332C3.12275 18.5579 2.84144 18.6203 2.49841 18.6203H1.53392V20.2286H1ZM5.75251 20.306C5.54296 20.306 5.35279 20.2666 5.182 20.1877C5.0112 20.1075 4.87557 19.9921 4.7751 19.8416C4.67463 19.6896 4.6244 19.5061 4.6244 19.2911C4.6244 19.1019 4.66171 18.9485 4.73635 18.831C4.81098 18.712 4.91073 18.6188 5.0356 18.5515C5.16047 18.4841 5.29825 18.4339 5.44895 18.4009C5.60109 18.3665 5.75395 18.3393 5.90752 18.3192C6.10846 18.2934 6.27136 18.2741 6.39623 18.2612C6.52253 18.2468 6.61439 18.2232 6.6718 18.1902C6.73064 18.1573 6.76007 18.0999 6.76007 18.0182V18.001C6.76007 17.7889 6.70194 17.624 6.58568 17.5065C6.47086 17.3889 6.29648 17.3301 6.06253 17.3301C5.81997 17.3301 5.6298 17.3832 5.49201 17.4893C5.35423 17.5953 5.25735 17.7086 5.20137 17.829L4.71912 17.657C4.80524 17.4563 4.92006 17.3 5.06359 17.1882C5.20855 17.075 5.36643 16.9962 5.53722 16.9517C5.70945 16.9058 5.87882 16.8829 6.04531 16.8829C6.15152 16.8829 6.27351 16.8958 6.4113 16.9216C6.55052 16.946 6.68472 16.9969 6.81389 17.0743C6.9445 17.1517 7.05286 17.2685 7.13898 17.4248C7.22509 17.581 7.26815 17.7903 7.26815 18.0526V20.2286H6.76007V19.7814H6.73423C6.69979 19.853 6.64237 19.9297 6.562 20.0114C6.48163 20.0931 6.3747 20.1627 6.24122 20.22C6.10774 20.2773 5.94484 20.306 5.75251 20.306ZM8.17398 21.4456C8.24144 21.4599 8.31822 21.4671 8.40434 21.4671C8.55791 21.4671 8.6957 21.4399 8.81769 21.3854C8.94113 21.3309 9.04949 21.2471 9.14278 21.1338C9.23607 21.022 9.3143 20.8808 9.37745 20.7102L10.7811 16.9259H10.23L9.31717 19.5577H9.28272L8.36989 16.9259H7.81875L9.0416 20.2458L8.94687 20.5038C8.88515 20.6715 8.81698 20.7927 8.74234 20.8672C8.66915 20.9432 8.58518 20.9855 8.49046 20.9941C8.39573 21.0027 8.28665 20.9912 8.16322 20.9597L8.03404 21.4069C8.05988 21.4198 8.10652 21.4327 8.17398 21.4456ZM11.4518 20.2286V16.9259H11.9426V17.442H11.9857C12.0546 17.2656 12.1658 17.1287 12.3194 17.0313C12.4729 16.9324 12.6574 16.8829 12.8727 16.8829C13.0908 16.8829 13.2724 16.9324 13.4174 17.0313C13.5637 17.1287 13.6779 17.2656 13.7597 17.442H13.7941C13.8788 17.2714 14.0058 17.1359 14.1752 17.0356C14.3445 16.9338 14.5476 16.8829 14.7844 16.8829C15.0801 16.8829 15.3219 16.9754 15.51 17.1603C15.698 17.3438 15.792 17.6297 15.792 18.0182V20.2286H15.2839V18.0182C15.2839 17.7745 15.2172 17.6004 15.0837 17.4957C14.9502 17.3911 14.7931 17.3387 14.6122 17.3387C14.3797 17.3387 14.1996 17.409 14.0718 17.5495C13.9441 17.6885 13.8802 17.8648 13.8802 18.0784V20.2286H13.3635V17.9666C13.3635 17.7788 13.3025 17.6276 13.1805 17.5129C13.0585 17.3968 12.9014 17.3387 12.7091 17.3387C12.577 17.3387 12.4536 17.3739 12.3388 17.4441C12.2254 17.5143 12.1335 17.6118 12.0632 17.7365C11.9943 17.8598 11.9598 18.0024 11.9598 18.1644V20.2286H11.4518ZM17.2829 20.0867C17.5139 20.2272 17.7888 20.2974 18.1074 20.2974C18.3313 20.2974 18.533 20.263 18.7124 20.1942C18.8918 20.124 19.0425 20.0265 19.1645 19.9018C19.2865 19.7756 19.3733 19.6294 19.425 19.4631L18.9341 19.3255C18.8911 19.4402 18.8301 19.5362 18.7511 19.6136C18.6722 19.6896 18.5782 19.747 18.4691 19.7857C18.3615 19.8229 18.2409 19.8416 18.1074 19.8416C17.9022 19.8416 17.7221 19.7971 17.5671 19.7083C17.412 19.6179 17.2908 19.4868 17.2032 19.3148C17.1251 19.1575 17.0824 18.969 17.0752 18.7493H19.4767V18.5343C19.4767 18.2261 19.4358 17.9666 19.354 17.7559C19.2721 17.5452 19.1623 17.376 19.0246 17.2484C18.8868 17.1194 18.7339 17.0263 18.566 16.9689C18.3981 16.9116 18.228 16.8829 18.0558 16.8829C17.7572 16.8829 17.496 16.956 17.2721 17.1022C17.0496 17.247 16.876 17.4491 16.7511 17.7086C16.6277 17.9666 16.566 18.2648 16.566 18.6031C16.566 18.9414 16.6277 19.2381 16.7511 19.4932C16.876 19.747 17.0532 19.9448 17.2829 20.0867ZM20.7576 18.2418V20.2286H20.2496V16.9259H20.7404V17.442H20.7835C20.861 17.2742 20.9787 17.1395 21.1366 17.0377C21.2944 16.9345 21.4982 16.8829 21.748 16.8829C21.9719 16.8829 22.1678 16.9288 22.3357 17.0205C22.5036 17.1108 22.6342 17.2484 22.7275 17.4334C22.8208 17.6168 22.8675 17.8491 22.8675 18.13V20.2286H22.3594V18.1644C22.3594 17.905 22.2919 17.7028 22.157 17.5581C22.0221 17.4119 21.837 17.3387 21.6016 17.3387C21.4394 17.3387 21.2944 17.3739 21.1667 17.4441C21.0404 17.5143 20.9406 17.6168 20.8674 17.7516C20.7942 17.8863 20.7576 18.0497 20.7576 18.2418ZM25.234 17.3559V16.9259H24.5279V16.1346H24.0198V16.9259H23.5203V17.3559H24.0198V19.4201C24.0198 19.6122 24.0643 19.7713 24.1533 19.8975C24.2437 20.0236 24.3571 20.1175 24.4935 20.1791C24.6312 20.2408 24.7719 20.2716 24.9154 20.2716C25.0101 20.2716 25.0884 20.2644 25.1501 20.2501C25.2118 20.2372 25.2599 20.2243 25.2943 20.2114L25.191 19.7556L25.1049 19.7728C25.069 19.7785 25.0231 19.7814 24.9671 19.7814C24.8925 19.7814 24.8214 19.7699 24.754 19.747C24.6879 19.7226 24.6334 19.6753 24.5903 19.605C24.5487 19.5334 24.5279 19.4259 24.5279 19.2825V17.3559H25.234ZM28.2815 17.6656L27.8251 17.7946C27.7963 17.7186 27.754 17.6448 27.698 17.5731C27.6435 17.5 27.5689 17.4398 27.4741 17.3925C27.3794 17.3452 27.2581 17.3215 27.1103 17.3215C26.9079 17.3215 26.7393 17.3681 26.6044 17.4613C26.4709 17.5531 26.4041 17.6699 26.4041 17.8118C26.4041 17.9379 26.4501 18.0376 26.5419 18.1107C26.6338 18.1838 26.7773 18.2447 26.9725 18.2934L27.4634 18.4138C27.759 18.4855 27.9793 18.5952 28.1243 18.7428C28.2693 18.889 28.3417 19.0775 28.3417 19.3083C28.3417 19.4975 28.2872 19.6667 28.1781 19.8158C28.0705 19.9648 27.9198 20.0824 27.726 20.1684C27.5323 20.2544 27.3069 20.2974 27.05 20.2974C26.7127 20.2974 26.4336 20.2243 26.2125 20.0781C25.9915 19.9319 25.8516 19.7183 25.7927 19.4373L26.275 19.3169C26.3209 19.4947 26.4077 19.628 26.5355 19.7169C26.6646 19.8057 26.8333 19.8502 27.0414 19.8502C27.2782 19.8502 27.4662 19.8 27.6055 19.6997C27.7461 19.5979 27.8164 19.476 27.8164 19.3341C27.8164 19.2194 27.7763 19.1234 27.6959 19.046C27.6155 18.9672 27.4921 18.9084 27.3256 18.8697L26.7744 18.7407C26.4716 18.669 26.2491 18.5579 26.107 18.4074C25.9664 18.2554 25.8961 18.0655 25.8961 17.8376C25.8961 17.6512 25.9485 17.4864 26.0532 17.3431C26.1594 17.1997 26.3037 17.0872 26.486 17.0055C26.6697 16.9238 26.8778 16.8829 27.1103 16.8829C27.4375 16.8829 27.6944 16.9546 27.881 17.0979C28.069 17.2413 28.2025 17.4305 28.2815 17.6656Z" fill="#333333"/>
</svg>
