<svg width="20" height="20" viewBox="0 0 20 20" fill="none" xmlns="http://www.w3.org/2000/svg">
<path d="M6.12808 7.55002C6.18487 7.68003 6.21326 7.8397 6.21326 8.02905C6.21326 8.21839 6.18487 8.37806 6.12808 8.50807C6.07217 8.63808 5.9931 8.73667 5.89089 8.80386C5.78867 8.87105 5.66898 8.90464 5.53182 8.90464C5.39466 8.90464 5.27497 8.87105 5.17276 8.80386C5.07054 8.73667 4.99104 8.63808 4.93425 8.50807C4.87834 8.37806 4.85039 8.21839 4.85039 8.02905C4.85039 7.8397 4.87834 7.68003 4.93425 7.55002C4.99104 7.42001 5.07054 7.32142 5.17276 7.25423C5.27497 7.18704 5.39466 7.15345 5.53182 7.15345C5.66898 7.15345 5.78867 7.18704 5.89089 7.25423C5.9931 7.32142 6.07217 7.42001 6.12808 7.55002Z" fill="#333333"/>
<path d="M2.51022 11.0027H1.93362V9.87709H2.50498C2.65088 9.87709 2.76794 9.90152 2.85618 9.95038C2.94442 9.99837 3.00819 10.0647 3.04751 10.1493C3.0877 10.234 3.10779 10.3299 3.10779 10.4373C3.10779 10.5446 3.0877 10.641 3.04751 10.7265C3.00819 10.8111 2.94486 10.8783 2.85749 10.9281C2.77013 10.9778 2.65437 11.0027 2.51022 11.0027Z" fill="#333333"/>
<path d="M4.54864 12.0392C4.67095 12.0392 4.77403 12.0152 4.8579 11.9673C4.94265 11.9193 5.00642 11.8573 5.04923 11.7814C5.09291 11.7055 5.11475 11.6257 5.11475 11.5419V11.2592C5.10165 11.2749 5.07282 11.2893 5.02826 11.3024C4.98458 11.3146 4.93391 11.3255 4.87625 11.3351C4.81946 11.3438 4.76399 11.3517 4.70982 11.3587C4.65653 11.3648 4.61329 11.37 4.58009 11.3744C4.49971 11.3848 4.42458 11.4018 4.35469 11.4254C4.28567 11.4481 4.22976 11.4826 4.18695 11.5288C4.14502 11.5742 4.12405 11.6361 4.12405 11.7147C4.12405 11.822 4.1638 11.9031 4.2433 11.9581C4.32367 12.0122 4.42545 12.0392 4.54864 12.0392Z" fill="#333333"/>
<path d="M11.3943 11.1021C11.4002 11.0089 11.4237 10.9208 11.4649 10.8378C11.5129 10.7409 11.5815 10.6624 11.6706 10.6022C11.7606 10.5411 11.8672 10.5105 11.9904 10.5105C12.1022 10.5105 12.1992 10.5363 12.2813 10.5878C12.3643 10.6392 12.4281 10.7095 12.4726 10.7985C12.5181 10.8875 12.5408 10.9887 12.5408 11.1021H11.3943Z" fill="#333333"/>
<path fill-rule="evenodd" clip-rule="evenodd" d="M4 3C2.34315 3 1 4.34315 1 6V14C1 15.6569 2.34315 17 4 17H16.2609C17.9177 17 19.2609 15.6569 19.2609 14V6C19.2609 4.34315 17.9177 3 16.2609 3H4ZM6.62212 8.77507C6.73308 8.57002 6.78855 8.32135 6.78855 8.02905C6.78855 7.73674 6.73308 7.48807 6.62212 7.28302C6.51204 7.07798 6.36178 6.92179 6.17133 6.81447C5.98175 6.70628 5.76858 6.65218 5.53182 6.65218C5.29332 6.65218 5.07928 6.70628 4.8897 6.81447C4.70012 6.92179 4.55029 7.07798 4.44021 7.28302C4.33013 7.48807 4.27509 7.73674 4.27509 8.02905C4.27509 8.32047 4.33013 8.56871 4.44021 8.77376C4.55029 8.9788 4.70012 9.13542 4.8897 9.24362C5.07928 9.35181 5.29332 9.40591 5.53182 9.40591C5.76858 9.40591 5.98175 9.35225 6.17133 9.24493C6.36178 9.13673 6.51204 8.98011 6.62212 8.77507ZM3.85346 9.36927V6.68882H3.28865V8.37457H3.26506L2.10662 6.68882H1.60864V9.36927H2.17607V7.68221H2.19573L3.36334 9.36927H3.85346ZM6.94417 6.68882H7.56401L8.00826 8.55126H8.03054L8.52065 6.68882H9.05138L9.54018 8.55519H9.56377L10.008 6.68882H10.6279L9.85993 9.36927H9.30692L8.79584 7.61677H8.77488L8.26511 9.36927H7.7121L6.94417 6.68882ZM1.60863 12.2696V9.58915H2.51546C2.72601 9.58915 2.89812 9.6271 3.03178 9.70301C3.16632 9.77805 3.26592 9.8797 3.33057 10.008C3.39522 10.1362 3.42754 10.2793 3.42754 10.4373C3.42754 10.5952 3.39522 10.7387 3.33057 10.8679C3.26679 10.997 3.16807 11.0999 3.0344 11.1767C2.90074 11.2526 2.7295 11.2906 2.5207 11.2906H1.93362V12.2696H1.60863ZM4.50146 12.3167C4.37391 12.3167 4.25815 12.2927 4.15419 12.2447C4.05023 12.1959 3.96767 12.1256 3.90651 12.034C3.84536 11.9415 3.81478 11.8298 3.81478 11.6989C3.81478 11.5838 3.83749 11.4904 3.88292 11.4189C3.92835 11.3464 3.98907 11.2897 4.06508 11.2487C4.14108 11.2077 4.22495 11.1772 4.31669 11.1571C4.40929 11.1362 4.50233 11.1196 4.59581 11.1074C4.71812 11.0917 4.81728 11.0799 4.89329 11.072C4.97017 11.0633 5.02608 11.0489 5.06103 11.0288C5.09684 11.0088 5.11475 10.9739 5.11475 10.9241V10.9137C5.11475 10.7845 5.07937 10.6842 5.00861 10.6126C4.93872 10.5411 4.83257 10.5053 4.69017 10.5053C4.54252 10.5053 4.42676 10.5376 4.34289 10.6022C4.25903 10.6667 4.20005 10.7357 4.16598 10.809L3.87244 10.7043C3.92486 10.5821 3.99475 10.487 4.08211 10.4189C4.17035 10.35 4.26645 10.302 4.37041 10.275C4.47525 10.247 4.57834 10.2331 4.67968 10.2331C4.74433 10.2331 4.81859 10.2409 4.90246 10.2566C4.9872 10.2715 5.06889 10.3024 5.14752 10.3496C5.22702 10.3967 5.29298 10.4678 5.34539 10.5629C5.39781 10.658 5.42402 10.7854 5.42402 10.9451V12.2696H5.11475V11.9974H5.09903C5.07806 12.041 5.04312 12.0877 4.99419 12.1374C4.94527 12.1871 4.88018 12.2295 4.79893 12.2644C4.71769 12.2993 4.61853 12.3167 4.50146 12.3167ZM5.9754 13.0104C6.01646 13.0191 6.0632 13.0235 6.11562 13.0235C6.2091 13.0235 6.29296 13.0069 6.36722 12.9737C6.44236 12.9406 6.50832 12.8895 6.5651 12.8206C6.62189 12.7525 6.6695 12.6666 6.70794 12.5628L7.56236 10.2593H7.22688L6.67125 11.8612H6.65028L6.09465 10.2593H5.75917L6.50351 12.2801L6.44585 12.4371C6.40828 12.5392 6.36679 12.6129 6.32136 12.6583C6.2768 12.7045 6.22569 12.7303 6.16803 12.7355C6.11037 12.7408 6.04398 12.7338 5.96884 12.7146L5.89022 12.9868C5.90594 12.9947 5.93434 13.0025 5.9754 13.0104ZM7.97057 12.2696V10.2593H8.26935V10.5734H8.29556C8.33749 10.4661 8.4052 10.3827 8.49868 10.3234C8.59216 10.2632 8.70442 10.2331 8.83547 10.2331C8.96826 10.2331 9.07878 10.2632 9.16701 10.3234C9.25612 10.3827 9.32558 10.4661 9.37538 10.5734H9.39634C9.44789 10.4695 9.52521 10.3871 9.62829 10.326C9.73138 10.2641 9.855 10.2331 9.99915 10.2331C10.1791 10.2331 10.3263 10.2894 10.4408 10.4019C10.5552 10.5136 10.6124 10.6877 10.6124 10.9241V12.2696H10.3032V10.9241C10.3032 10.7758 10.2626 10.6698 10.1813 10.6061C10.1001 10.5424 10.0044 10.5105 9.89432 10.5105C9.75279 10.5105 9.64315 10.5533 9.56539 10.6388C9.48764 10.7234 9.44876 10.8308 9.44876 10.9608V12.2696H9.13425V10.8927C9.13425 10.7784 9.09712 10.6864 9.02286 10.6166C8.9486 10.5459 8.85294 10.5105 8.73587 10.5105C8.6555 10.5105 8.58037 10.5319 8.51048 10.5747C8.44146 10.6174 8.38555 10.6768 8.34274 10.7527C8.3008 10.8277 8.27983 10.9145 8.27983 11.0131V12.2696H7.97057ZM11.5199 12.1832C11.6606 12.2687 11.8279 12.3115 12.0218 12.3115C12.1581 12.3115 12.2809 12.2905 12.3901 12.2486C12.4993 12.2059 12.591 12.1466 12.6653 12.0706C12.7395 11.9939 12.7924 11.9049 12.8238 11.8037L12.5251 11.7199C12.4989 11.7897 12.4617 11.8482 12.4137 11.8953C12.3656 11.9415 12.3084 11.9764 12.242 12C12.1765 12.0227 12.1031 12.034 12.0218 12.034C11.8969 12.034 11.7873 12.007 11.6929 11.9529C11.5986 11.8979 11.5247 11.818 11.4715 11.7133C11.4239 11.6176 11.3979 11.5029 11.3935 11.3691H12.8553V11.2382C12.8553 11.0507 12.8304 10.8927 12.7806 10.7645C12.7308 10.6362 12.664 10.5332 12.5801 10.4556C12.4962 10.3771 12.4032 10.3203 12.301 10.2854C12.1988 10.2505 12.0952 10.2331 11.9904 10.2331C11.8087 10.2331 11.6497 10.2776 11.5134 10.3666C11.378 10.4547 11.2723 10.5777 11.1963 10.7357C11.1211 10.8927 11.0836 11.0742 11.0836 11.2801C11.0836 11.486 11.1211 11.6667 11.1963 11.822C11.2723 11.9764 11.3802 12.0968 11.5199 12.1832ZM13.635 11.0602V12.2696H13.3257V10.2593H13.6245V10.5734H13.6507C13.6979 10.4713 13.7696 10.3893 13.8657 10.3273C13.9618 10.2645 14.0858 10.2331 14.2378 10.2331C14.3741 10.2331 14.4934 10.261 14.5956 10.3168C14.6978 10.3718 14.7773 10.4556 14.8341 10.5681C14.8909 10.6798 14.9193 10.8212 14.9193 10.9922V12.2696H14.61V11.0131C14.61 10.8552 14.5689 10.7322 14.4868 10.644C14.4047 10.555 14.292 10.5105 14.1487 10.5105C14.05 10.5105 13.9618 10.5319 13.884 10.5747C13.8071 10.6174 13.7464 10.6798 13.7018 10.7618C13.6573 10.8439 13.635 10.9433 13.635 11.0602ZM16.3598 10.521V10.2593H15.93V9.77762H15.6207V10.2593H15.3167V10.521H15.6207V11.7775C15.6207 11.8944 15.6478 11.9912 15.7019 12.068C15.757 12.1448 15.826 12.202 15.909 12.2395C15.9929 12.277 16.0785 12.2958 16.1658 12.2958C16.2235 12.2958 16.2711 12.2914 16.3087 12.2827C16.3462 12.2748 16.3755 12.267 16.3965 12.2591L16.3336 11.9816L16.2812 11.9921C16.2593 11.9956 16.2314 11.9974 16.1973 11.9974C16.1519 11.9974 16.1086 11.9904 16.0676 11.9764C16.0274 11.9616 15.9942 11.9328 15.968 11.89C15.9426 11.8464 15.93 11.781 15.93 11.6937V10.521H16.3598ZM18.2147 10.7095L17.9369 10.788C17.9194 10.7418 17.8937 10.6968 17.8596 10.6532C17.8264 10.6087 17.781 10.5721 17.7233 10.5433C17.6657 10.5145 17.5918 10.5001 17.5018 10.5001C17.3787 10.5001 17.276 10.5284 17.1939 10.5852C17.1126 10.641 17.072 10.7121 17.072 10.7985C17.072 10.8753 17.1 10.9359 17.1559 10.9804C17.2118 11.0249 17.2992 11.062 17.418 11.0917L17.7168 11.165C17.8967 11.2086 18.0308 11.2753 18.1191 11.3652C18.2073 11.4542 18.2514 11.5689 18.2514 11.7094C18.2514 11.8246 18.2182 11.9276 18.1518 12.0183C18.0863 12.109 17.9946 12.1806 17.8766 12.2329C17.7587 12.2853 17.6215 12.3115 17.4652 12.3115C17.2598 12.3115 17.0899 12.267 16.9554 12.178C16.8208 12.089 16.7357 11.959 16.6998 11.7879L16.9934 11.7147C17.0213 11.8228 17.0742 11.904 17.152 11.9581C17.2306 12.0122 17.3332 12.0392 17.4599 12.0392C17.6041 12.0392 17.7185 12.0087 17.8033 11.9476C17.8889 11.8857 17.9317 11.8115 17.9317 11.7251C17.9317 11.6553 17.9072 11.5969 17.8583 11.5497C17.8094 11.5018 17.7342 11.466 17.6329 11.4424L17.2974 11.3639C17.1131 11.3203 16.9777 11.2526 16.8912 11.161C16.8056 11.0685 16.7628 10.9529 16.7628 10.8142C16.7628 10.7008 16.7946 10.6004 16.8584 10.5132C16.9231 10.4259 17.0109 10.3574 17.1218 10.3077C17.2336 10.2579 17.3603 10.2331 17.5018 10.2331C17.701 10.2331 17.8574 10.2767 17.971 10.364C18.0854 10.4512 18.1667 10.5664 18.2147 10.7095Z" fill="#333333"/>
</svg>
