<svg width="30" height="30" viewBox="0 0 30 30" fill="none" xmlns="http://www.w3.org/2000/svg">
<path fill-rule="evenodd" clip-rule="evenodd" d="M5.31673 9C6.47501 9 7.43744 8.07776 7.60695 6.87849H26.6494C26.843 6.87849 27 6.70899 27 6.5C27 6.29101 26.843 6.12151 26.6494 6.12151H7.60695C7.43744 4.92163 6.47501 4 5.31673 4C4.03927 4 3 5.12151 3 6.5C3 7.87849 4.03927 9 5.31673 9ZM5.31673 4.75638C6.20755 4.75638 6.93225 5.53888 6.93225 6.5C6.93225 7.46112 6.20755 8.24362 5.31673 8.24362C4.42585 8.24362 3.70116 7.46112 3.70116 6.5C3.70116 5.53888 4.42585 4.75638 5.31673 4.75638Z" fill="#333333"/>
<path fill-rule="evenodd" clip-rule="evenodd" d="M26.6505 15.1219H23.7394C23.5704 13.9221 22.6109 13 21.4562 13C20.3014 13 19.3419 13.9221 19.1729 15.1219H3.34948C3.15647 15.1219 3 15.2913 3 15.5003C3 15.7093 3.15647 15.8781 3.34948 15.8781H19.1729C19.3419 17.0779 20.3014 18 21.4562 18C22.6109 18 23.5704 17.0779 23.7394 15.8781H26.6505C26.8435 15.8781 27 15.7093 27 15.5003C27 15.2913 26.8435 15.1219 26.6505 15.1219ZM21.4562 17.2431C20.6069 17.2431 19.9096 16.5281 19.8502 15.6248C19.8628 15.586 19.87 15.544 19.87 15.5003C19.87 15.456 19.8628 15.4146 19.8502 15.3752C19.9096 14.4719 20.6069 13.7569 21.4562 13.7569C22.3443 13.7569 23.0668 14.5387 23.0668 15.5003C23.0668 16.4613 22.3443 17.2431 21.4562 17.2431Z" fill="#333333"/>
<path fill-rule="evenodd" clip-rule="evenodd" d="M9.87397 27C8.71806 27 7.75754 26.0779 7.58844 24.8781H3.34989C3.15663 24.8781 3 24.7087 3 24.5003C3 24.2907 3.15663 24.1219 3.34989 24.1219H7.58844C7.75754 22.9221 8.71806 22 9.87397 22C11.0299 22 11.9904 22.9221 12.1595 24.1219H26.6502C26.8434 24.1219 27 24.2907 27 24.5003C27 24.7087 26.8434 24.8781 26.6502 24.8781H12.1595C11.9904 26.0779 11.0299 27 9.87397 27ZM11.4862 24.5003C11.4862 23.5387 10.763 22.7569 9.87397 22.7569C8.98492 22.7569 8.2617 23.5387 8.2617 24.5003C8.2617 25.4613 8.98492 26.2431 9.87397 26.2431C10.763 26.2431 11.4862 25.4613 11.4862 24.5003Z" fill="#333333"/>
</svg>
