<svg width="20" height="20" viewBox="0 0 20 20" fill="none" xmlns="http://www.w3.org/2000/svg">
<path fill-rule="evenodd" clip-rule="evenodd" d="M3.54449 5.26087C4.31668 5.26087 4.9583 4.65941 5.0713 3.87728H17.7663C17.8953 3.87728 18 3.76673 18 3.63043C18 3.49414 17.8953 3.38359 17.7663 3.38359H5.0713C4.9583 2.60106 4.31668 2 3.54449 2C2.69285 2 2 2.73142 2 3.63043C2 4.52945 2.69285 5.26087 3.54449 5.26087ZM3.54449 2.49329C4.13837 2.49329 4.6215 3.00362 4.6215 3.63043C4.6215 4.25725 4.13837 4.76758 3.54449 4.76758C2.95057 4.76758 2.46744 4.25725 2.46744 3.63043C2.46744 3.00362 2.95057 2.49329 3.54449 2.49329Z" fill="#333333"/>
<path fill-rule="evenodd" clip-rule="evenodd" d="M17.767 9.25339H15.8263C15.7136 8.47095 15.074 7.86957 14.3041 7.86957C13.5343 7.86957 12.8946 8.47095 12.782 9.25339H2.23299C2.10431 9.25339 2 9.36392 2 9.5002C2 9.63648 2.10431 9.74662 2.23299 9.74662H12.782C12.8946 10.5291 13.5343 11.1304 14.3041 11.1304C15.074 11.1304 15.7136 10.5291 15.8263 9.74662H17.767C17.8957 9.74662 18 9.63648 18 9.5002C18 9.36392 17.8957 9.25339 17.767 9.25339ZM14.3041 10.6368C13.7379 10.6368 13.273 10.1705 13.2334 9.58141C13.2419 9.55606 13.2467 9.52872 13.2467 9.5002C13.2467 9.47128 13.2419 9.44434 13.2334 9.41859C13.273 8.82948 13.7379 8.36319 14.3041 8.36319C14.8962 8.36319 15.3778 8.87306 15.3778 9.5002C15.3778 10.1269 14.8962 10.6368 14.3041 10.6368Z" fill="#333333"/>
<path fill-rule="evenodd" clip-rule="evenodd" d="M6.58265 17C5.81204 17 5.17169 16.3986 5.05896 15.6162H2.23326C2.10442 15.6162 2 15.5056 2 15.3698C2 15.2331 2.10442 15.123 2.23326 15.123H5.05896C5.17169 14.3405 5.81204 13.7391 6.58265 13.7391C7.35326 13.7391 7.99357 14.3405 8.10634 15.123H17.7668C17.8956 15.123 18 15.2331 18 15.3698C18 15.5056 17.8956 15.6162 17.7668 15.6162H8.10634C7.99357 16.3986 7.35326 17 6.58265 17ZM7.65746 15.3698C7.65746 14.7426 7.17532 14.2328 6.58265 14.2328C5.98994 14.2328 5.5078 14.7426 5.5078 15.3698C5.5078 15.9965 5.98994 16.5064 6.58265 16.5064C7.17532 16.5064 7.65746 15.9965 7.65746 15.3698Z" fill="#333333"/>
</svg>
