<svg width="30" height="30" viewBox="0 0 30 30" fill="none" xmlns="http://www.w3.org/2000/svg">
<path d="M29.4971 24.3291L17.2769 4.4557C16.7093 3.50633 15.908 3 15.0065 3C14.1384 3 13.3037 3.50633 12.7361 4.4557L0.482465 24.3291C-0.0851409 25.2468 -0.151918 26.1646 0.282133 26.8924C0.716185 27.6203 1.58429 28 2.7195 28H27.2935C28.4287 28 29.2968 27.5886 29.7308 26.8924C30.1649 26.1646 30.0647 25.2468 29.4971 24.3291V24.3291ZM28.5622 26.2595C28.3619 26.576 27.9279 26.7342 27.2935 26.7342H2.7195C2.08512 26.7342 1.61768 26.5443 1.45073 26.2595C1.2504 25.943 1.31718 25.4684 1.65106 24.962L13.9381 5.08861C14.2719 4.55063 14.6726 4.26582 15.0399 4.26582C15.4072 4.26582 15.8412 4.58228 16.1417 5.08861L28.3619 24.962C28.6624 25.4684 28.7626 25.943 28.5622 26.2595V26.2595ZM16.0081 21.6709C16.0081 22.2089 15.5741 22.6203 15.0065 22.6203C14.4389 22.6203 14.0048 22.2089 14.0048 21.6709C14.0048 21.1329 14.4389 20.7215 15.0065 20.7215C15.5741 20.7215 16.0081 21.1329 16.0081 21.6709ZM16.0081 12.4937V18.5063C16.0081 19.0443 15.5741 19.4557 15.0065 19.4557C14.4389 19.4557 14.0048 19.0443 14.0048 18.5063V12.4937C14.0048 11.9557 14.4389 11.5443 15.0065 11.5443C15.5741 11.5443 16.0081 11.9557 16.0081 12.4937V12.4937Z" fill="#444444"/>
</svg>
