<svg width="20" height="20" viewBox="0 0 20 20" fill="none" xmlns="http://www.w3.org/2000/svg">
<path d="M18.6983 14.7975L11.3661 2.87342C11.0256 2.3038 10.5448 2 10.0039 2C9.48303 2 8.9822 2.3038 8.64164 2.87342L1.28948 14.7975C0.948915 15.3481 0.908849 15.8987 1.16928 16.3354C1.42971 16.7722 1.95057 17 2.6317 17H17.3761C18.0572 17 18.5781 16.7532 18.8385 16.3354C19.0989 15.8987 19.0388 15.3481 18.6983 14.7975V14.7975ZM18.1373 15.9557C18.0171 16.1456 17.7567 16.2405 17.3761 16.2405H2.6317C2.25107 16.2405 1.97061 16.1266 1.87044 15.9557C1.75024 15.7658 1.79031 15.481 1.99064 15.1772L9.36283 3.25316C9.56316 2.93038 9.80356 2.75949 10.0239 2.75949C10.2443 2.75949 10.5047 2.94937 10.685 3.25316L18.0171 15.1772C18.1974 15.481 18.2575 15.7658 18.1373 15.9557V15.9557ZM10.6049 13.2025C10.6049 13.5253 10.3445 13.7722 10.0039 13.7722C9.66333 13.7722 9.4029 13.5253 9.4029 13.2025C9.4029 12.8797 9.66333 12.6329 10.0039 12.6329C10.3445 12.6329 10.6049 12.8797 10.6049 13.2025ZM10.6049 7.6962V11.3038C10.6049 11.6266 10.3445 11.8734 10.0039 11.8734C9.66333 11.8734 9.4029 11.6266 9.4029 11.3038V7.6962C9.4029 7.37342 9.66333 7.12658 10.0039 7.12658C10.3445 7.12658 10.6049 7.37342 10.6049 7.6962V7.6962Z" fill="#444444"/>
</svg>
