<svg width="20" height="20" viewBox="0 0 20 20" fill="none" xmlns="http://www.w3.org/2000/svg">
<path d="M4.4 6.5H8.13333C8.28067 6.5 8.4 6.38813 8.4 6.25V5.75C8.4 5.61187 8.28067 5.5 8.13333 5.5H4.4C4.25267 5.5 4.13333 5.61187 4.13333 5.75V6.25C4.13333 6.38813 4.25267 6.5 4.4 6.5ZM4.56967 14.2375L4.94667 14.5909C5.05067 14.6884 5.21967 14.6884 5.32367 14.5909L6.26667 13.7072L7.20967 14.5913C7.31367 14.6888 7.48267 14.6888 7.58667 14.5913L7.96367 14.2378C8.06767 14.1403 8.06767 13.9819 7.96367 13.8844L7.021 13L7.964 12.1159C8.068 12.0184 8.068 11.86 7.964 11.7625L7.587 11.4091C7.483 11.3116 7.314 11.3116 7.21 11.4091L6.26667 12.2928L5.32367 11.4087C5.21967 11.3112 5.05067 11.3112 4.94667 11.4087L4.56967 11.7625C4.46567 11.86 4.46567 12.0184 4.56967 12.1159L5.51233 13L4.56933 13.8837C4.51935 13.9307 4.49131 13.9944 4.49137 14.0607C4.49144 14.127 4.5196 14.1906 4.56967 14.2375V14.2375ZM16.9333 2H3.06667C2.47767 2 2 2.44781 2 3V16C2 16.5522 2.47767 17 3.06667 17H16.9333C17.5223 17 18 16.5522 18 16V3C18 2.44781 17.5223 2 16.9333 2ZM9.46667 16H3.06667V10H9.46667V16ZM9.46667 9H3.06667V3H9.46667V9ZM16.9333 16H10.5333V10H16.9333V16ZM16.9333 9H10.5333V3H16.9333V9ZM11.8667 6.5H13.2V7.75C13.2 7.88813 13.3193 8 13.4667 8H14C14.1473 8 14.2667 7.88813 14.2667 7.75V6.5H15.6C15.7473 6.5 15.8667 6.38813 15.8667 6.25V5.75C15.8667 5.61187 15.7473 5.5 15.6 5.5H14.2667V4.25C14.2667 4.11187 14.1473 4 14 4H13.4667C13.3193 4 13.2 4.11187 13.2 4.25V5.5H11.8667C11.7193 5.5 11.6 5.61187 11.6 5.75V6.25C11.6 6.38813 11.7193 6.5 11.8667 6.5ZM11.8667 14.5H15.6C15.7473 14.5 15.8667 14.3881 15.8667 14.25V13.75C15.8667 13.6119 15.7473 13.5 15.6 13.5H11.8667C11.7193 13.5 11.6 13.6119 11.6 13.75V14.25C11.6 14.3881 11.7193 14.5 11.8667 14.5ZM11.8667 12.5H15.6C15.7473 12.5 15.8667 12.3881 15.8667 12.25V11.75C15.8667 11.6119 15.7473 11.5 15.6 11.5H11.8667C11.7193 11.5 11.6 11.6119 11.6 11.75V12.25C11.6 12.3881 11.7193 12.5 11.8667 12.5Z" fill="#444444"/>
</svg>
