<svg width="30" height="30" viewBox="0 0 30 30" fill="none" xmlns="http://www.w3.org/2000/svg">
<path d="M5.75 10.5H11.5833C11.8135 10.5 12 10.3135 12 10.0833V9.25C12 9.01979 11.8135 8.83333 11.5833 8.83333H5.75C5.51979 8.83333 5.33333 9.01979 5.33333 9.25V10.0833C5.33333 10.3135 5.51979 10.5 5.75 10.5ZM6.0151 23.3958L6.60417 23.9849C6.76667 24.1474 7.03073 24.1474 7.19323 23.9849L8.66667 22.512L10.1401 23.9854C10.3026 24.1479 10.5667 24.1479 10.7292 23.9854L11.3182 23.3964C11.4807 23.2339 11.4807 22.9698 11.3182 22.8073L9.84531 21.3333L11.3187 19.8599C11.4812 19.6974 11.4812 19.4333 11.3187 19.2708L10.7297 18.6818C10.5672 18.5193 10.3031 18.5193 10.1406 18.6818L8.66667 20.1547L7.19323 18.6812C7.03073 18.5187 6.76667 18.5187 6.60417 18.6812L6.0151 19.2708C5.8526 19.4333 5.8526 19.6974 6.0151 19.8599L7.48802 21.3333L6.01458 22.8062C5.93649 22.8845 5.89267 22.9906 5.89277 23.1011C5.89287 23.2117 5.93687 23.3177 6.0151 23.3958V23.3958ZM25.3333 3H3.66667C2.74635 3 2 3.74635 2 4.66667V26.3333C2 27.2536 2.74635 28 3.66667 28H25.3333C26.2536 28 27 27.2536 27 26.3333V4.66667C27 3.74635 26.2536 3 25.3333 3ZM13.6667 26.3333H3.66667V16.3333H13.6667V26.3333ZM13.6667 14.6667H3.66667V4.66667H13.6667V14.6667ZM25.3333 26.3333H15.3333V16.3333H25.3333V26.3333ZM25.3333 14.6667H15.3333V4.66667H25.3333V14.6667ZM17.4167 10.5H19.5V12.5833C19.5 12.8135 19.6865 13 19.9167 13H20.75C20.9802 13 21.1667 12.8135 21.1667 12.5833V10.5H23.25C23.4802 10.5 23.6667 10.3135 23.6667 10.0833V9.25C23.6667 9.01979 23.4802 8.83333 23.25 8.83333H21.1667V6.75C21.1667 6.51979 20.9802 6.33333 20.75 6.33333H19.9167C19.6865 6.33333 19.5 6.51979 19.5 6.75V8.83333H17.4167C17.1865 8.83333 17 9.01979 17 9.25V10.0833C17 10.3135 17.1865 10.5 17.4167 10.5ZM17.4167 23.8333H23.25C23.4802 23.8333 23.6667 23.6469 23.6667 23.4167V22.5833C23.6667 22.3531 23.4802 22.1667 23.25 22.1667H17.4167C17.1865 22.1667 17 22.3531 17 22.5833V23.4167C17 23.6469 17.1865 23.8333 17.4167 23.8333ZM17.4167 20.5H23.25C23.4802 20.5 23.6667 20.3135 23.6667 20.0833V19.25C23.6667 19.0198 23.4802 18.8333 23.25 18.8333H17.4167C17.1865 18.8333 17 19.0198 17 19.25V20.0833C17 20.3135 17.1865 20.5 17.4167 20.5Z" fill="#444444"/>
</svg>
