<svg width="30" height="30" viewBox="0 0 30 30" fill="none" xmlns="http://www.w3.org/2000/svg">
<path d="M0.9375 8.75H25.3125C25.8305 8.75 26.25 8.33047 26.25 7.8125V5.9375C26.25 5.41953 25.8305 5 25.3125 5H0.9375C0.419531 5 0 5.41953 0 5.9375V7.8125C0 8.33047 0.419531 8.75 0.9375 8.75ZM29.0625 14.375H4.6875C4.16953 14.375 3.75 14.7945 3.75 15.3125V17.1875C3.75 17.7055 4.16953 18.125 4.6875 18.125H29.0625C29.5805 18.125 30 17.7055 30 17.1875V15.3125C30 14.7945 29.5805 14.375 29.0625 14.375ZM25.3125 23.75H0.9375C0.419531 23.75 0 24.1695 0 24.6875V26.5625C0 27.0805 0.419531 27.5 0.9375 27.5H25.3125C25.8305 27.5 26.25 27.0805 26.25 26.5625V24.6875C26.25 24.1695 25.8305 23.75 25.3125 23.75Z" fill="#444444"/>
</svg>
