<svg width="20" height="20" viewBox="0 0 20 20" fill="none" xmlns="http://www.w3.org/2000/svg">
<path d="M0.625 4.5H16.875C17.2203 4.5 17.5 4.22031 17.5 3.875V2.625C17.5 2.27969 17.2203 2 16.875 2H0.625C0.279687 2 0 2.27969 0 2.625V3.875C0 4.22031 0.279687 4.5 0.625 4.5ZM19.375 8.25H3.125C2.77969 8.25 2.5 8.52969 2.5 8.875V10.125C2.5 10.4703 2.77969 10.75 3.125 10.75H19.375C19.7203 10.75 20 10.4703 20 10.125V8.875C20 8.52969 19.7203 8.25 19.375 8.25ZM16.875 14.5H0.625C0.279687 14.5 0 14.7797 0 15.125V16.375C0 16.7203 0.279687 17 0.625 17H16.875C17.2203 17 17.5 16.7203 17.5 16.375V15.125C17.5 14.7797 17.2203 14.5 16.875 14.5Z" fill="#444444"/>
</svg>
