<svg width="21" height="21" viewBox="0 0 21 21" fill="none" xmlns="http://www.w3.org/2000/svg">
<path d="M17.2424 9.9C16.9488 9.9 16.6255 10.1094 16.6255 10.6094H17.8361C17.8361 10.1094 17.5293 9.9 17.2424 9.9ZM13.3698 9.98125C13.0993 9.98125 12.9311 10.0719 12.809 10.2L12.8156 11.85C12.9311 11.9656 13.096 12.0594 13.3698 12.0594C13.8019 12.0594 14.0922 11.6125 14.0922 11.0156C14.0922 10.4344 13.7953 9.97812 13.3698 9.98125ZM18.4167 4H2.58333C1.7092 4 1 4.67188 1 5.5V16.5C1 17.3281 1.7092 18 2.58333 18H18.4167C19.2908 18 20 17.3281 20 16.5V5.5C20 4.67188 19.2908 4 18.4167 4ZM5.0309 11.7844C5.0309 12.5844 4.36128 13.0375 3.3849 13.0437C2.98247 13.0437 2.54045 12.9687 2.10503 12.7906V11.7312C2.50087 11.9312 2.99896 12.0844 3.38819 12.0844C3.64878 12.0844 3.83681 12.0187 3.83681 11.8125C3.83681 11.2812 2.05556 11.4813 2.05556 10.2531C2.05556 9.46563 2.68889 8.99687 3.63889 8.99687C4.02813 8.99687 4.41406 9.05312 4.8033 9.2V10.2438C4.44705 10.0625 3.99514 9.95937 3.63889 9.95937C3.39149 9.95937 3.23976 10.0281 3.23976 10.2C3.23976 10.7 5.0309 10.4625 5.0309 11.7844ZM7.30035 10.0156H6.40972V11.5938C6.40972 12.2469 7.15191 12.0438 7.30035 11.9875V12.8906C7.14531 12.9719 6.86163 13.0375 6.47899 13.0375C5.78299 13.0375 5.26181 12.5531 5.26181 11.8969L5.2684 8.3375L6.41302 8.10625V9.06875H7.30035V10.0156ZM9.74132 10.0906C9.59288 10.0437 9.12448 9.97813 8.8474 10.3219V12.9594H7.67639V9.06875H8.68906L8.76163 9.39687C9.03542 8.91875 9.58299 9.01562 9.73802 9.06875H9.74132V10.0906ZM11.196 12.9594H10.0184V9.06875H11.196V12.9594ZM11.196 8.49375L10.0184 8.73125V7.82812L11.196 7.59062V8.49375ZM13.6403 13.0406C13.2313 13.0406 12.9806 12.875 12.8123 12.7594L12.809 14.0156L11.638 14.25V9.06875H12.6705L12.7299 9.34375C12.8915 9.20312 13.1884 8.99687 13.6469 8.99687C14.4682 8.99687 15.2434 9.7 15.2434 10.9906C15.2434 12.4 14.4781 13.0375 13.6403 13.0406V13.0406ZM18.9312 11.4312H16.6387C16.6915 11.95 17.0939 12.1031 17.5491 12.1031C18.0142 12.1031 18.3804 12.0094 18.7003 11.8562V12.75C18.3804 12.9156 17.9615 13.0375 17.4007 13.0375C16.2594 13.0375 15.4611 12.3594 15.4611 11.0219C15.4611 9.89063 16.1373 8.99375 17.2523 8.99375C18.3639 8.99375 18.9444 9.89062 18.9444 11.0281C18.9444 11.1375 18.9345 11.3687 18.9312 11.4312V11.4312Z" fill="#444444"/>
</svg>
