<svg width="30" height="30" viewBox="0 0 30 30" fill="none" xmlns="http://www.w3.org/2000/svg">
<path d="M25.6458 14.6929C25.1823 14.6929 24.6719 15.0368 24.6719 15.8583H26.5833C26.5833 15.0368 26.099 14.6929 25.6458 14.6929ZM19.5312 14.8263C19.1042 14.8263 18.8385 14.9752 18.6458 15.1857L18.6563 17.8964C18.8385 18.0864 19.099 18.2404 19.5312 18.2404C20.2135 18.2404 20.6719 17.5063 20.6719 16.5257C20.6719 15.5708 20.2031 14.8212 19.5312 14.8263ZM27.5 5H2.5C1.11979 5 0 6.10379 0 7.46429V25.5357C0 26.8962 1.11979 28 2.5 28H27.5C28.8802 28 30 26.8962 30 25.5357V7.46429C30 6.10379 28.8802 5 27.5 5ZM6.36458 17.7886C6.36458 19.1029 5.30729 19.8473 3.76563 19.8576C3.13021 19.8576 2.43229 19.7344 1.74479 19.4417V17.7013C2.36979 18.0299 3.15625 18.2815 3.77083 18.2815C4.18229 18.2815 4.47917 18.1737 4.47917 17.8348C4.47917 16.9621 1.66667 17.2906 1.66667 15.273C1.66667 13.9792 2.66667 13.2092 4.16667 13.2092C4.78125 13.2092 5.39063 13.3016 6.00521 13.5429V15.2576C5.44271 14.9598 4.72917 14.7904 4.16667 14.7904C3.77604 14.7904 3.53646 14.9033 3.53646 15.1857C3.53646 16.0071 6.36458 15.617 6.36458 17.7886ZM9.94792 14.8828H8.54167V17.4754C8.54167 18.5484 9.71354 18.2147 9.94792 18.1223V19.606C9.70312 19.7395 9.25521 19.8473 8.65104 19.8473C7.55208 19.8473 6.72917 19.0516 6.72917 17.9734L6.73958 12.1259L8.54688 11.746V13.3272H9.94792V14.8828ZM13.8021 15.006C13.5677 14.929 12.8281 14.8212 12.3906 15.3859V19.719H10.5417V13.3272H12.1406L12.2552 13.8663C12.6875 13.0808 13.5521 13.24 13.7969 13.3272H13.8021V15.006ZM16.099 19.719H14.2396V13.3272H16.099V19.719ZM16.099 12.3826L14.2396 12.7728V11.2891L16.099 10.8989V12.3826ZM19.9583 19.8525C19.3125 19.8525 18.9167 19.5804 18.651 19.3904L18.6458 21.4542L16.7969 21.8393V13.3272H18.4271L18.5208 13.779C18.776 13.548 19.2448 13.2092 19.9687 13.2092C21.2656 13.2092 22.4896 14.3643 22.4896 16.4846C22.4896 18.8 21.2813 19.8473 19.9583 19.8525V19.8525ZM28.3125 17.2085H24.6927C24.776 18.0607 25.4115 18.3123 26.1302 18.3123C26.8646 18.3123 27.4427 18.1583 27.9479 17.9067V19.375C27.4427 19.6471 26.7812 19.8473 25.8958 19.8473C24.0938 19.8473 22.8333 18.7333 22.8333 16.5359C22.8333 14.6775 23.901 13.204 25.6615 13.204C27.4167 13.204 28.3333 14.6775 28.3333 16.5462C28.3333 16.7259 28.3177 17.1058 28.3125 17.2085V17.2085Z" fill="#444444"/>
</svg>
