<svg width="20" height="20" viewBox="0 0 20 20" fill="none" xmlns="http://www.w3.org/2000/svg">
<path d="M17.4899 6.81992C17.4319 6.77217 16.8398 6.29521 16.125 5.72041V4.8125C16.125 4.29482 15.7052 3.875 15.1875 3.875H13.8261C13.7051 3.77803 13.6002 3.69453 13.5272 3.63652C12.8798 3.11885 11.7727 2 10.5 2C9.23408 2 8.1375 3.10508 7.47246 3.63652C7.39834 3.69541 7.29375 3.7792 7.17363 3.875H5.8125C5.29482 3.875 4.875 4.29482 4.875 4.8125V5.72012C4.15664 6.29756 3.56396 6.7751 3.51328 6.8167C3.35284 6.94859 3.2236 7.11438 3.13485 7.30216C3.0461 7.48994 3.00005 7.69504 3 7.90273V15.5938C3 16.3704 3.62959 17 4.40625 17H16.5938C17.3704 17 18 16.3704 18 15.5938V7.90361C18 7.48438 17.8131 7.08682 17.4899 6.81992ZM10.5 2.9375C11.1378 2.9375 11.8078 3.42734 12.3498 3.875H8.65137C9.19424 3.42764 9.86484 2.9375 10.5 2.9375ZM5.8125 4.8125H15.1875V9.89111C14.2403 10.6528 13.2744 11.4274 12.6507 11.9226C12.157 12.316 11.1803 13.2608 10.5 13.25C9.82002 13.2611 8.84297 12.316 8.34932 11.9223C7.72559 11.4271 6.76025 10.6528 5.8125 9.89082V4.8125ZM3.9375 7.90273C3.9375 7.76211 3.9999 7.62998 4.10859 7.54062C4.14492 7.51074 4.44902 7.26582 4.875 6.92305V9.13643C4.53721 8.86455 4.21553 8.60527 3.9375 8.38115V7.90273ZM17.0625 15.5938C17.0625 15.8521 16.8521 16.0625 16.5938 16.0625H4.40625C4.14785 16.0625 3.9375 15.8521 3.9375 15.5938V9.58525C5.18994 10.5942 6.84697 11.9267 7.76602 12.6562C8.36631 13.1354 9.42832 14.1951 10.5 14.1872C11.5679 14.1948 12.6173 13.1483 13.2337 12.6562C14.1539 11.9258 15.8098 10.5939 17.0625 9.58496V15.5938ZM17.0625 8.38115C16.7807 8.6082 16.4687 8.85986 16.125 9.13672V6.92363C16.548 7.26406 16.8516 7.50869 16.8926 7.54238C17.0007 7.63174 17.0625 7.76328 17.0625 7.90361V8.38115ZM9.70635 9.04824L11.0247 9.44375C11.1759 9.48916 11.2816 9.64238 11.2816 9.8167C11.2816 10.0297 11.1264 10.2031 10.9359 10.2031H10.1124C9.97881 10.2031 9.8499 10.1653 9.73682 10.0941C9.64189 10.0347 9.52119 10.0382 9.44004 10.1155L9.0958 10.4439C8.99238 10.5427 8.99824 10.7138 9.1125 10.7996C9.3791 10.9997 9.70078 11.1151 10.0315 11.1321V11.6094C10.0315 11.7389 10.1364 11.8438 10.2659 11.8438H10.7347C10.8642 11.8438 10.969 11.7389 10.969 11.6094V11.1371C11.661 11.1187 12.2191 10.5354 12.2191 9.8167C12.2191 9.23164 11.8389 8.70898 11.2939 8.54551L9.97559 8.15C9.82441 8.10459 9.71865 7.95137 9.71865 7.77705C9.71865 7.56406 9.87393 7.39062 10.0644 7.39062H10.8879C11.0215 7.39062 11.1504 7.42842 11.2635 7.49961C11.3584 7.55908 11.4791 7.55557 11.5603 7.47822L11.9045 7.1498C12.0079 7.05107 12.0021 6.87998 11.8878 6.79414C11.6212 6.59404 11.2995 6.47861 10.9688 6.46162V5.98438C10.9688 5.85488 10.8639 5.75 10.7344 5.75H10.2656C10.1361 5.75 10.0312 5.85488 10.0312 5.98438V6.45664C9.33926 6.4751 8.78115 7.05869 8.78115 7.77705C8.78115 8.36211 9.16143 8.88477 9.70635 9.04824Z" fill="#444444"/>
</svg>
