<svg width="30" height="30" viewBox="0 0 30 30" fill="none" xmlns="http://www.w3.org/2000/svg">
<path d="M25.1159 10.3545C25.0154 10.2718 23.9891 9.44504 22.75 8.44871V6.875C22.75 5.9777 22.0223 5.25 21.125 5.25H18.7652C18.5555 5.08191 18.3737 4.93719 18.2472 4.83664C17.125 3.93934 15.2059 2 13 2C10.8057 2 8.905 3.91547 7.75227 4.83664C7.62379 4.93871 7.4425 5.08395 7.2343 5.25H4.875C3.9777 5.25 3.25 5.9777 3.25 6.875V8.4482C2.00484 9.4491 0.977539 10.2768 0.889688 10.3489C0.611585 10.5776 0.387571 10.8649 0.233742 11.1904C0.0799122 11.5159 8.64618e-05 11.8714 0 12.2314L0 25.5625C0 26.9087 1.09129 28 2.4375 28H23.5625C24.9087 28 26 26.9087 26 25.5625V12.2329C26 11.5062 25.676 10.8171 25.1159 10.3545ZM13 3.625C14.1055 3.625 15.2669 4.47406 16.2063 5.25H9.7957C10.7367 4.47457 11.8991 3.625 13 3.625ZM4.875 6.875H21.125V15.6779C19.4832 16.9982 17.809 18.3409 16.7279 19.1991C15.8722 19.8811 14.1791 21.5188 13 21.5C11.8214 21.5193 10.1278 19.8811 9.27215 19.1986C8.19102 18.3404 6.51777 16.9982 4.875 15.6774V6.875ZM1.625 12.2314C1.625 11.9877 1.73316 11.7586 1.92156 11.6038C1.98453 11.552 2.51164 11.1274 3.25 10.5333V14.3698C2.66449 13.8986 2.10691 13.4491 1.625 13.0607V12.2314ZM24.375 25.5625C24.375 26.0104 24.0104 26.375 23.5625 26.375H2.4375C1.98961 26.375 1.625 26.0104 1.625 25.5625V15.1478C3.7959 16.8967 6.66809 19.2062 8.26109 20.4707C9.3016 21.3014 11.1424 23.1382 13 23.1245C14.851 23.1377 16.67 21.3238 17.7384 20.4707C19.3334 19.2047 22.2036 16.8962 24.375 15.1473V25.5625ZM24.375 13.0607C23.8865 13.4542 23.3457 13.8904 22.75 14.3703V10.5343C23.4833 11.1244 24.0094 11.5484 24.0805 11.6068C24.2679 11.7617 24.375 11.9897 24.375 12.2329V13.0607ZM11.6243 14.217L13.9095 14.9025C14.1715 14.9812 14.3548 15.2468 14.3548 15.5489C14.3548 15.9181 14.0857 16.2188 13.7556 16.2188H12.3282C12.0966 16.2188 11.8732 16.1532 11.6771 16.0298C11.5126 15.9268 11.3034 15.9329 11.1627 16.0669L10.5661 16.6362C10.3868 16.8073 10.397 17.1039 10.595 17.2527C11.0571 17.5995 11.6147 17.7996 12.188 17.829V18.6562C12.188 18.8807 12.3698 19.0625 12.5943 19.0625H13.4068C13.6312 19.0625 13.813 18.8807 13.813 18.6562V17.8377C15.0125 17.8057 15.9798 16.7946 15.9798 15.5489C15.9798 14.5348 15.3207 13.6289 14.3762 13.3455L12.091 12.66C11.829 12.5813 11.6457 12.3157 11.6457 12.0136C11.6457 11.6444 11.9148 11.3438 12.2449 11.3438H13.6723C13.9039 11.3438 14.1273 11.4093 14.3234 11.5327C14.4879 11.6357 14.6971 11.6296 14.8378 11.4956L15.4345 10.9263C15.6137 10.7552 15.6036 10.4586 15.4055 10.3098C14.9434 9.96301 14.3858 9.76293 13.8125 9.73348V8.90625C13.8125 8.6818 13.6307 8.5 13.4062 8.5H12.5938C12.3693 8.5 12.1875 8.6818 12.1875 8.90625V9.72484C10.988 9.75684 10.0207 10.7684 10.0207 12.0136C10.0207 13.0277 10.6798 13.9336 11.6243 14.217Z" fill="#444444"/>
</svg>
