<svg width="20" height="20" viewBox="0 0 20 20" fill="none" xmlns="http://www.w3.org/2000/svg">
<path d="M13.3724 16.0108H3.99932V2.98918H13.3724V6.21692L14.3716 5.22771V2.49459C14.3716 2.22146 14.1479 2 13.872 2H3.49971C3.22377 2 3 2.22146 3 2.49459V16.5054C3 16.7785 3.22374 17 3.49971 17H13.872C14.1479 17 14.3716 16.7785 14.3716 16.5054V11.0628L13.3724 12.052V16.0108Z" fill="#444444"/>
<path d="M11.8994 4.17552H5.47229C5.26155 4.17552 5.09053 4.34481 5.09053 4.55349C5.09053 4.76215 5.26155 4.93144 5.47229 4.93144H11.8994C12.1102 4.93144 12.2811 4.76215 12.2811 4.55349C12.2812 4.34481 12.1102 4.17552 11.8994 4.17552Z" fill="#444444"/>
<path d="M12.2812 6.56926C12.2812 6.36061 12.1102 6.19128 11.8994 6.19128H5.47229C5.26155 6.19128 5.09053 6.36061 5.09053 6.56926C5.09053 6.77794 5.26155 6.94724 5.47229 6.94724H11.8994C12.1102 6.94724 12.2812 6.77797 12.2812 6.56926Z" fill="#444444"/>
<path d="M11.3622 8.20714H5.47229C5.26155 8.20714 5.09053 8.37646 5.09053 8.58512C5.09053 8.7938 5.26155 8.96306 5.47229 8.96306H10.5986L11.3622 8.20714Z" fill="#444444"/>
<path d="M9.22652 10.7129C9.27819 10.5416 9.35204 10.3775 9.442 10.2229H5.47232C5.26158 10.2229 5.09056 10.3922 5.09056 10.6009C5.09056 10.8096 5.26158 10.9789 5.47232 10.9789H9.14647L9.22652 10.7129Z" fill="#444444"/>
<path d="M5.47229 12.2388C5.26155 12.2388 5.09053 12.4081 5.09053 12.6168C5.09053 12.8254 5.26155 12.9947 5.47229 12.9947H8.82604C8.72709 12.757 8.7015 12.4945 8.77137 12.2388H5.47229Z" fill="#444444"/>
<path d="M17.6878 4.86281C17.4878 4.66468 17.2165 4.55349 16.9339 4.55349C16.6513 4.55349 16.3801 4.66468 16.1803 4.86257L10.5317 10.4545C10.3776 10.607 10.2645 10.7948 10.2021 11.0015L9.75197 12.4952C9.73281 12.5584 9.75021 12.6268 9.79745 12.6736C9.83201 12.7078 9.87826 12.7262 9.92569 12.7262C9.94287 12.7262 9.96049 12.7238 9.97767 12.7187L11.4864 12.273C11.6953 12.2112 11.885 12.0993 12.039 11.9467L17.6878 6.355C17.8876 6.15714 18 5.8887 18 5.60892C18 5.32908 17.8877 5.06064 17.6878 4.86281Z" fill="#444444"/>
</svg>
