<svg width="30" height="30" viewBox="0 0 30 30" fill="none" xmlns="http://www.w3.org/2000/svg">
<path d="M19.9788 26.2853H3.73215V3.71458H19.9788V9.30933L21.7108 7.5947V2.85729C21.7108 2.38386 21.323 2 20.8448 2H2.86616C2.38786 2 2 2.38386 2 2.85729V27.1427C2 27.6161 2.38781 28 2.86616 28H20.8448C21.323 28 21.7108 27.6161 21.7108 27.1427V17.7088L19.9788 19.4235V26.2853Z" fill="#444444"/>
<path d="M17.4256 5.7709H6.2853C5.92002 5.7709 5.62359 6.06434 5.62359 6.42606C5.62359 6.78772 5.92002 7.08116 6.2853 7.08116H17.4255C17.7909 7.08116 18.0873 6.78772 18.0873 6.42606C18.0874 6.06434 17.7909 5.7709 17.4256 5.7709Z" fill="#444444"/>
<path d="M18.0874 9.92005C18.0874 9.55839 17.7909 9.26489 17.4256 9.26489H6.2853C5.92002 9.26489 5.62359 9.55839 5.62359 9.92005C5.62359 10.2818 5.92002 10.5752 6.2853 10.5752H17.4255C17.7909 10.5752 18.0874 10.2818 18.0874 9.92005Z" fill="#444444"/>
<path d="M16.4945 12.759H6.2853C5.92002 12.759 5.62359 13.0525 5.62359 13.4142C5.62359 13.7759 5.92002 14.0693 6.2853 14.0693H15.1709L16.4945 12.759Z" fill="#444444"/>
<path d="M12.7926 17.1023C12.8822 16.8054 13.0102 16.521 13.1661 16.2531H6.28535C5.92007 16.2531 5.62364 16.5465 5.62364 16.9083C5.62364 17.2699 5.92007 17.5634 6.28535 17.5634H12.6539L12.7926 17.1023Z" fill="#444444"/>
<path d="M6.2853 19.7472C5.92002 19.7472 5.62359 20.0407 5.62359 20.4024C5.62359 20.764 5.92002 21.0575 6.2853 21.0575H12.0985C11.927 20.6455 11.8826 20.1904 12.0037 19.7472H6.2853Z" fill="#444444"/>
<path d="M27.4589 6.96221C27.1121 6.61878 26.6419 6.42606 26.1521 6.42606C25.6623 6.42606 25.1922 6.61878 24.8458 6.96179L15.055 16.6545C14.7878 16.9189 14.5918 17.2443 14.4836 17.6026L13.7034 20.1917C13.6702 20.3013 13.7004 20.4198 13.7823 20.5009C13.8421 20.5602 13.9223 20.5922 14.0045 20.5922C14.0343 20.5922 14.0648 20.5879 14.0946 20.579L16.7098 19.8065C17.0718 19.6995 17.4006 19.5054 17.6676 19.241L27.4588 9.54866C27.8052 9.20571 28 8.74041 28 8.25546C28 7.77041 27.8053 7.30512 27.4589 6.96221Z" fill="#444444"/>
</svg>
