<svg width="60" height="40" viewBox="0 0 60 40" fill="none" xmlns="http://www.w3.org/2000/svg">
<path d="M9.3757 1.93068C8.4151 2.36219 7.7155 3.23613 7.5379 4.23068L7.4551 4.6737H4.0273H0.600098V5.57189V6.47007H7.3597H14.1193V5.57189V4.6737H11.6881C8.9605 4.6737 8.9011 4.64946 9.6601 3.8834L10.0633 3.47613H24.7681C37.9789 3.47613 39.4963 3.50037 39.6625 3.66764C39.7693 3.7634 39.8521 3.8834 39.8521 3.91916C39.8521 4.0028 36.5437 23.001 36.4723 23.324L36.4129 23.5998H20.9971C6.0079 23.5998 5.5807 23.5876 5.5807 23.3719C5.5807 23.2519 5.6161 22.9767 5.6521 22.7731L5.7349 22.4016H9.9211H14.1193V21.5034V20.6052H7.3597H0.600098V21.5034V22.4016H2.2723H3.9445L3.8731 22.7252C3.6001 24.007 2.3791 31.2901 2.3791 31.6252C2.3911 32.2361 2.7703 32.9786 3.2803 33.3743L3.7189 33.7216L6.6361 33.7816L9.5533 33.8416L9.6247 34.8719C9.7789 37.1119 11.1427 38.801 13.2295 39.3519C15.3403 39.9028 17.6647 39.184 19.4077 37.4355C20.3563 36.4889 20.8189 35.7586 21.1981 34.6204L21.4591 33.8416L29.8195 33.8058L38.1919 33.7816V34.3689C38.1919 36.8361 39.7453 38.8489 42.0937 39.4119C42.4849 39.5076 43.1017 39.5434 43.6945 39.4955C46.3981 39.3276 48.9835 37.2676 49.8373 34.6082L50.0983 33.7816H52.7665C55.3279 33.7816 55.4701 33.7695 56.0515 33.4943C56.6917 33.1949 57.3325 32.5119 57.5221 31.9252C57.5815 31.7337 58.0441 29.2179 58.5421 26.3555C59.2891 22.0434 59.4313 20.9895 59.3959 20.2464C59.3365 19.4082 59.1943 19.001 57.1783 14.1016C55.9927 11.2149 54.9253 8.63916 54.7945 8.39977C54.6757 8.14825 54.3559 7.7531 54.0949 7.5131L53.6089 7.07007H47.3821C42.3895 7.07007 41.1565 7.03431 41.1565 6.91431C41.1565 6.83068 41.2633 6.14765 41.4055 5.40522C41.6071 4.25552 41.6311 3.94401 41.5123 3.48886C41.3347 2.75795 40.9195 2.2434 40.2907 1.93189L39.7807 1.68037H24.8389C10.0867 1.67916 9.8971 1.69068 9.3757 1.93068ZM53.3947 9.58462C53.5723 9.94401 53.7265 10.2792 53.7265 10.327C53.7265 10.387 51.5329 10.4228 48.8647 10.4228C44.2519 10.4228 43.9669 10.4349 43.5403 10.6622C42.7459 11.0695 42.6271 11.3931 41.9749 15.1179C41.6191 17.1543 41.4055 18.6513 41.4529 18.8792C41.4883 19.0949 41.6305 19.4064 41.7733 19.5858C42.2953 20.2567 42.1885 20.2446 50.2285 20.2446H57.6403V20.6767C57.6403 21.0125 56.2291 29.4446 55.9093 31.0501C55.8739 31.2179 55.7077 31.5052 55.5415 31.6731L55.2331 31.9846H52.6597H50.0743L50.0029 31.4695C49.6831 29.3131 47.4415 27.5525 45.0223 27.5525C44.2753 27.5525 42.7927 27.9719 41.9509 28.4149C41.0143 28.9058 39.4249 30.4992 39.0217 31.3495L38.7253 31.9725L30.1039 31.9846H21.4951L21.3529 31.3501C20.8903 29.3737 19.2895 27.9482 17.1433 27.6367C14.5939 27.2652 11.6293 28.9301 10.3243 31.4701L10.0633 31.9852H7.1695C4.5841 31.9852 4.2643 31.961 4.1929 31.7937C4.1575 31.6737 4.3591 30.2125 4.6435 28.5234L5.1769 25.4567L21.5419 25.421L37.9069 25.3967L39.2467 17.6949C39.9817 13.4664 40.6105 9.88522 40.6459 9.74098C40.6813 9.59734 40.8355 9.33371 41.0017 9.16583L41.3101 8.86643L47.1919 8.89068L53.0737 8.92643L53.3947 9.58462ZM47.8807 14.6155C47.9515 15.8973 48.0229 17.2864 48.0229 17.6937L48.0349 18.4483H45.6631C44.3587 18.4483 43.2913 18.4004 43.2913 18.3404C43.2913 18.0889 44.2519 12.4228 44.3113 12.327C44.3467 12.267 45.1297 12.2313 46.0543 12.2434L47.7385 12.2792L47.8807 14.6155ZM54.8773 13.1422C55.0789 13.6573 55.6483 15.0586 56.1463 16.2567L57.0355 18.4489H53.4421H49.8487L49.7065 15.5979C49.6357 14.041 49.5403 12.6392 49.5049 12.4834L49.4575 12.2198H51.9715H54.4975L54.8773 13.1422ZM17.3089 29.481C18.4471 29.7204 19.4551 30.7628 19.6927 31.9489C20.0959 33.8895 18.7561 36.2373 16.6687 37.267C15.9097 37.6386 15.7435 37.6743 14.7121 37.6743C13.4551 37.6743 12.9451 37.4828 12.2335 36.764C10.1227 34.6319 11.9605 30.3676 15.3643 29.5173C16.1233 29.3252 16.5739 29.3131 17.3089 29.481ZM46.6825 29.7683C48.9001 30.8701 48.9475 34.1046 46.7653 36.2483C45.1171 37.8773 42.4963 38.1889 41.0611 36.9428C40.2547 36.2483 40.0291 35.7089 40.0291 34.4392C40.0291 33.4689 40.0645 33.2773 40.4089 32.5464C41.6191 29.984 44.5123 28.7022 46.6825 29.7683Z" fill="#444444"/>
<path d="M2.73486 9.52467V10.4229H9.43506H16.1353V9.52467V8.62649H9.43446H2.73486V9.52467Z" fill="#444444"/>
<path d="M4.98779 13.5372V14.376H11.7474H18.507V13.5372V12.699H11.7474H4.98779V13.5372Z" fill="#444444"/>
<path d="M2.73486 17.5499V18.4487H9.43506H16.1353V17.5505V16.6524H9.43446H2.73486V17.5499Z" fill="#444444"/>
</svg>
