<svg width="30" height="30" viewBox="0 0 30 30" fill="none" xmlns="http://www.w3.org/2000/svg">
<path d="M13.9532 16.118C13.8797 15.9649 13.6897 15.7994 13.4875 15.7105C13.0004 15.4961 12.6511 15.7105 12.4703 16.3386C12.3661 16.6971 12.455 17.3252 12.6511 17.6163C12.7553 17.7725 12.9268 17.8553 13.1444 17.8553C13.3742 17.8553 13.5396 17.7817 13.7388 17.5948C13.99 17.3589 14.0176 17.2731 14.0176 16.7216C14.0176 16.3049 14.0114 16.2345 13.9532 16.118Z" fill="#333333"/>
<path d="M6.82985 17.6132C6.90645 17.4692 6.90645 17.1812 6.82985 17.1077C6.79308 17.0678 6.71036 17.0587 6.4101 17.0617C6.00873 17.0648 5.91069 17.0862 5.75137 17.2027C5.47868 17.4049 5.50319 17.7848 5.80039 17.9564C5.95052 18.0452 6.26303 18.0391 6.45912 17.9472C6.62151 17.8706 6.76551 17.7419 6.82985 17.6132Z" fill="#333333"/>
<path fill-rule="evenodd" clip-rule="evenodd" d="M3 5C1.34315 5 0 6.34315 0 8V25C0 26.6569 1.34315 28 3 28H27C28.6569 28 30 26.6569 30 25V8C30 6.34315 28.6569 5 27 5H3ZM21.8458 14.7914C21.6221 14.8373 21.4536 14.9139 21.2269 15.0671L21.0032 15.2203V15.0978C21.0032 15.0151 20.9818 14.9507 20.9297 14.8925L20.8562 14.8067H20.4579C20.1086 14.8067 20.0504 14.8128 19.9952 14.8649C19.9309 14.9231 19.9309 14.9323 19.9309 16.7676C19.9309 18.2352 19.9401 18.6212 19.9707 18.6641C20.0228 18.7346 20.3568 18.7744 20.6662 18.7469C20.6874 18.7449 20.7072 18.7433 20.7258 18.7419C20.8033 18.7358 20.8592 18.7314 20.8996 18.7041C21.0043 18.6331 21.0041 18.4072 21.0034 17.5953L21.0032 16.1487L21.1809 15.9832C21.5854 15.5972 21.904 15.5328 22.1798 15.7718L22.1842 15.7758C22.2272 15.8139 22.2613 15.8442 22.2887 15.8798C22.3951 16.0183 22.398 16.2364 22.4119 17.3035L22.4279 18.6274L22.5015 18.6856C22.5628 18.7346 22.624 18.7438 22.9549 18.7438C23.3226 18.7438 23.3379 18.7407 23.4145 18.6641L23.4942 18.5845L23.4758 17.2149C23.4635 16.4612 23.4421 15.7902 23.4237 15.7167C23.3778 15.5206 23.2797 15.3306 23.148 15.1805C22.8753 14.871 22.2993 14.6995 21.8458 14.7914ZM14.0176 14.3287C14.0298 13.6118 14.039 13.4678 14.0789 13.4433C14.1034 13.428 14.3209 13.4126 14.5599 13.4126C14.9735 13.4126 14.998 13.4157 15.0409 13.48C15.0838 13.5413 15.0899 13.8324 15.0899 16.0108C15.0899 18.3813 15.0899 18.6068 14.9821 18.6866C14.9708 18.695 14.9582 18.7018 14.9444 18.7093L14.9429 18.7101C14.9061 18.7285 14.7253 18.7438 14.5384 18.7438C14.2014 18.7438 14.1953 18.7438 14.1064 18.6549C14.0329 18.5814 14.0176 18.5385 14.0176 18.4221V18.2781L13.8674 18.3884C13.4753 18.6764 13.0188 18.7897 12.6051 18.704C11.9648 18.5753 11.5695 18.1678 11.3949 17.457C11.3489 17.2793 11.3367 17.123 11.3397 16.7676C11.3428 16.2406 11.401 15.9679 11.5849 15.5941C11.9862 14.7699 13.0371 14.5156 13.8092 15.0518L14.0023 15.1866L14.0176 14.3287ZM18.2181 13.4218C18.0343 13.4862 17.9853 13.5903 17.9853 13.9212C17.9853 14.1878 17.9914 14.2123 18.0619 14.2858C18.1967 14.4207 18.6593 14.4574 18.9749 14.3594C19.122 14.3134 19.1802 14.1817 19.1802 13.9029C19.1802 13.6149 19.125 13.5015 18.9504 13.431C18.8033 13.3728 18.3744 13.3667 18.2181 13.4218ZM28.0349 13.4188C27.8909 13.4709 27.845 13.5291 27.8051 13.6945C27.7316 13.9978 27.8082 14.2797 27.9798 14.3533C28.133 14.4207 28.6691 14.4237 28.8009 14.3594C28.9296 14.2981 29 14.1418 29 13.909C29 13.6792 28.9449 13.5291 28.8285 13.4525C28.7274 13.3881 28.185 13.3636 28.0349 13.4188ZM16.0827 13.477C16.0275 13.5383 16.0245 13.6332 16.0153 16.066C16.0092 18.5263 16.0092 18.5906 16.0674 18.6488C16.144 18.7254 16.4013 18.7591 16.7108 18.7315C16.9099 18.7162 16.9528 18.704 17.0141 18.6335L17.0815 18.5538L17.0754 16.0629L17.0662 13.572L16.9927 13.4923C16.9191 13.4157 16.9069 13.4126 16.53 13.4126C16.1746 13.4126 16.1378 13.4188 16.0827 13.477ZM24.3581 13.5291L24.4317 13.4709C24.4929 13.4218 24.5542 13.4126 24.8453 13.4126C25.0322 13.4126 25.216 13.4218 25.2558 13.431C25.4121 13.4739 25.4152 13.5137 25.4152 15.0365V16.4459L25.8686 15.9036L26.0941 15.6311C26.2713 15.4173 26.4348 15.2198 26.5059 15.1315C26.7541 14.822 26.846 14.7761 27.2382 14.7761C27.7407 14.7761 27.8663 14.8312 27.8173 15.0273C27.805 15.0733 27.6702 15.2418 27.5139 15.4042C26.9502 15.9924 26.5182 16.4735 26.5182 16.5163C26.5182 16.5378 26.8092 16.9759 27.1616 17.4876C27.8663 18.5017 27.8938 18.563 27.7223 18.6733C27.6518 18.7193 27.5691 18.7285 27.2045 18.7285L27.1481 18.7285C26.9418 18.7289 26.8301 18.729 26.7422 18.6833C26.6383 18.6293 26.5678 18.5112 26.4139 18.2536L26.3772 18.1923C26.1781 17.8583 25.7522 17.2456 25.501 16.933L25.4182 16.8289L25.4152 17.7358C25.4152 18.5416 25.409 18.6488 25.3631 18.6856C25.3263 18.7162 25.2038 18.7285 24.8882 18.7285C24.4746 18.7285 24.4592 18.7254 24.401 18.6549C24.3428 18.5845 24.3428 18.514 24.3489 16.0568L24.3581 13.5291ZM2.59238 14.7945C1.99492 14.8741 1.53534 15.1499 1.2841 15.5788C1.08189 15.922 0.97465 16.4796 1.00529 17.0219C1.05431 17.8767 1.38827 18.3853 2.04394 18.609C2.61995 18.8051 3.16533 18.7744 3.71376 18.5171C4.01708 18.3731 4.04466 18.324 4.04466 17.9074C4.04466 17.6194 4.03853 17.5703 3.98645 17.5336C3.91904 17.4815 3.85776 17.5029 3.6004 17.6684C3.36141 17.8246 3.21741 17.8675 2.9386 17.8675C2.64753 17.8675 2.40855 17.7572 2.29825 17.5673C2.00718 17.0709 2.01331 16.357 2.30744 15.8913C2.43919 15.686 2.62302 15.6033 2.94166 15.6033C3.20209 15.6064 3.38592 15.6677 3.64329 15.8423C3.80261 15.9526 3.91291 15.9495 4.00789 15.8331C4.14883 15.6677 4.1519 15.398 4.01096 15.1836C3.83938 14.9139 3.13469 14.7209 2.59238 14.7945ZM9.81403 15.1682C10.0163 14.9568 10.2154 14.8312 10.4054 14.7944C10.4789 14.7791 10.5739 14.7699 10.6168 14.7761L10.6421 14.7796C10.8627 14.81 10.9713 14.8249 11.0247 14.8872C11.0764 14.9475 11.0764 15.0522 11.0764 15.2584L11.0764 15.2863C11.0764 15.5362 11.0764 15.6533 11.0179 15.7082C10.9664 15.7566 10.8694 15.7565 10.6869 15.7565L10.6719 15.7565C10.3778 15.7565 10.3441 15.7626 10.1909 15.8484C10.102 15.8974 9.98868 15.9863 9.93965 16.0476C9.77114 16.2498 9.75888 16.3509 9.75888 17.5336C9.75888 18.4129 9.74969 18.6212 9.71599 18.6703C9.67616 18.7223 9.63327 18.7285 9.23802 18.7285C8.84278 18.7285 8.79989 18.7223 8.76006 18.6703C8.72329 18.6182 8.71716 18.3118 8.71716 16.789V14.9691L8.80602 14.8802C8.89181 14.7975 8.91019 14.7914 9.1553 14.7914C9.36977 14.7914 9.42799 14.8036 9.49233 14.8527C9.57812 14.9201 9.63633 15.0794 9.63633 15.2479V15.349L9.81403 15.1682ZM4.78931 15.2203C4.89041 15.0763 5.38983 14.8802 5.83715 14.8128C5.88005 14.8036 6.08226 14.7975 6.29061 14.7944C7.18526 14.7853 7.69387 15.0426 7.86544 15.5972C7.93285 15.8117 7.93591 15.8515 7.93591 17.2027V18.5845L7.86238 18.6641C7.79191 18.7377 7.77046 18.7438 7.50084 18.7438C7.23735 18.7438 7.20671 18.7377 7.1393 18.6703C7.09641 18.6274 7.05964 18.5446 7.04739 18.4558C7.03513 18.3792 7.01981 18.3148 7.01368 18.3148C7.00756 18.3148 6.93096 18.37 6.84517 18.4343C6.55104 18.658 6.1129 18.7683 5.68396 18.7315C4.94556 18.6641 4.51662 18.2536 4.51662 17.6102C4.51662 17.1598 4.71271 16.8411 5.11101 16.645C5.42966 16.4918 5.63494 16.4489 6.22014 16.4122L6.37442 16.4033C6.72017 16.3838 6.83572 16.3773 6.86878 16.3217C6.88537 16.2938 6.88118 16.2536 6.87488 16.1931C6.87318 16.1768 6.87132 16.1589 6.86968 16.1395C6.83292 15.7014 6.65521 15.5512 6.17418 15.5512C5.87086 15.5482 5.67477 15.5972 5.2397 15.7749C4.96701 15.8883 4.9088 15.9005 4.84446 15.8699C4.69739 15.8025 4.66062 15.398 4.78931 15.2203ZM18.1692 14.8128C18.1355 14.822 18.0834 14.8496 18.0558 14.8772C18.0037 14.9201 18.0007 15.0488 18.0007 16.7676C18.0007 18.6029 18.0007 18.612 18.065 18.6703C18.1232 18.7223 18.1784 18.7285 18.543 18.7285C18.9413 18.7285 18.9596 18.7254 19.0148 18.6549C19.0699 18.5875 19.073 18.5109 19.073 16.7768C19.073 15.6585 19.0608 14.9507 19.0424 14.9139C19.0271 14.8833 18.9688 14.8435 18.9168 14.8251C18.8218 14.7914 18.2917 14.7853 18.1692 14.8128Z" fill="#333333"/>
</svg>
