<svg width="20" height="20" viewBox="0 0 20 20" fill="none" xmlns="http://www.w3.org/2000/svg">
<path d="M9.30216 9.2509C9.25313 9.15099 9.12649 9.04309 8.99168 8.98514C8.66691 8.84527 8.43406 8.98514 8.31354 9.39477C8.2441 9.62856 8.30333 10.0382 8.43406 10.228C8.5035 10.3299 8.61789 10.3839 8.76291 10.3839C8.91611 10.3839 9.02641 10.3359 9.15918 10.214C9.32667 10.0602 9.34505 10.0042 9.34505 9.64454C9.34505 9.37279 9.34097 9.32683 9.30216 9.2509Z" fill="#333333"/>
<path d="M4.55323 10.226C4.6043 10.1321 4.6043 9.94427 4.55323 9.89631C4.52872 9.87034 4.47357 9.86434 4.2734 9.86634C4.00582 9.86834 3.94046 9.88232 3.83424 9.95826C3.65245 10.0901 3.66879 10.3379 3.86692 10.4498C3.96701 10.5078 4.17536 10.5038 4.30608 10.4438C4.41434 10.3939 4.51034 10.3099 4.55323 10.226Z" fill="#333333"/>
<path fill-rule="evenodd" clip-rule="evenodd" d="M2 2C0.895431 2 0 2.87597 0 3.95652V15.0435C0 16.124 0.895431 17 2 17H18C19.1046 17 20 16.124 20 15.0435V3.95652C20 2.87596 19.1046 2 18 2H2ZM14.5639 8.38569C14.4148 8.41566 14.3024 8.46562 14.1513 8.56553L14.0022 8.66543V8.58551C14.0022 8.53156 13.9879 8.48959 13.9531 8.45163L13.9041 8.39568H13.6386C13.4057 8.39568 13.3669 8.39968 13.3301 8.43364C13.2873 8.47161 13.2873 8.4776 13.2873 9.67452C13.2873 10.6316 13.2934 10.8834 13.3138 10.9114C13.3485 10.9574 13.5712 10.9833 13.7775 10.9653C13.7916 10.964 13.8048 10.963 13.8172 10.9621C13.8688 10.9581 13.9061 10.9553 13.933 10.9374C14.0029 10.8911 14.0027 10.7438 14.0023 10.2144L14.0022 9.27088L14.1206 9.16298C14.3903 8.91121 14.6027 8.86925 14.7865 9.02511L14.7895 9.02767C14.8181 9.05252 14.8409 9.0723 14.8591 9.0955C14.9301 9.18582 14.932 9.32807 14.9413 10.024L14.952 10.8874L15.001 10.9254C15.0418 10.9574 15.0827 10.9633 15.3033 10.9633C15.5484 10.9633 15.5586 10.9613 15.6097 10.9114L15.6628 10.8594L15.6505 9.96625C15.6424 9.4747 15.6281 9.0371 15.6158 8.98914C15.5852 8.86126 15.5198 8.73737 15.432 8.63946C15.2502 8.43764 14.8662 8.32574 14.5639 8.38569ZM9.34505 8.08396C9.35322 7.61638 9.35935 7.52247 9.3859 7.50648C9.40224 7.49649 9.54727 7.4865 9.70659 7.4865C9.98234 7.4865 9.99868 7.4885 10.0273 7.53046C10.0559 7.57043 10.06 7.76025 10.06 9.18096C10.06 10.7269 10.06 10.874 9.98807 10.926C9.98051 10.9315 9.97216 10.9359 9.96293 10.9408L9.96191 10.9414C9.9374 10.9534 9.81689 10.9633 9.69229 10.9633C9.46761 10.9633 9.46352 10.9633 9.40429 10.9054C9.35526 10.8574 9.34505 10.8295 9.34505 10.7535V10.6596L9.24496 10.7316C8.98351 10.9194 8.67917 10.9933 8.40342 10.9374C7.97652 10.8534 7.71302 10.5877 7.5966 10.1241C7.56596 10.0082 7.55779 9.9063 7.55983 9.67451C7.56187 9.33083 7.60068 9.15299 7.72324 8.90921C7.99082 8.3717 8.69142 8.20585 9.20616 8.55553L9.33484 8.64345L9.34505 8.08396ZM12.1454 7.4925C12.0229 7.53446 11.9902 7.6024 11.9902 7.8182C11.9902 7.99205 11.9943 8.00803 12.0412 8.05599C12.1311 8.14391 12.4396 8.16789 12.6499 8.10394C12.748 8.07397 12.7868 7.98805 12.7868 7.80622C12.7868 7.61839 12.75 7.54445 12.6336 7.4985C12.5356 7.46053 12.2496 7.45653 12.1454 7.4925ZM18.6899 7.4905C18.5939 7.52447 18.5633 7.56244 18.5367 7.67034C18.4877 7.86816 18.5388 8.05199 18.6532 8.09995C18.7553 8.14391 19.1128 8.14591 19.2006 8.10394C19.2864 8.06398 19.3334 7.96207 19.3334 7.81021C19.3334 7.66035 19.2966 7.56244 19.219 7.51248C19.1516 7.47052 18.79 7.45453 18.6899 7.4905ZM10.7218 7.52847C10.685 7.56843 10.683 7.63037 10.6769 9.21693C10.6728 10.8215 10.6728 10.8634 10.7116 10.9014C10.7627 10.9514 10.9342 10.9733 11.1405 10.9554C11.2733 10.9454 11.3019 10.9374 11.3427 10.8914L11.3877 10.8395L11.3836 9.21493L11.3775 7.59041L11.3284 7.53846C11.2794 7.4885 11.2713 7.4865 11.02 7.4865C10.7831 7.4865 10.7586 7.4905 10.7218 7.52847ZM16.2388 7.56243L16.2878 7.52447C16.3286 7.4925 16.3695 7.4865 16.5635 7.4865C16.6881 7.4865 16.8107 7.4925 16.8372 7.49849C16.9414 7.52647 16.9434 7.55244 16.9434 8.54554V9.4647L17.2457 9.11103L17.3961 8.93333C17.5142 8.79387 17.6232 8.6651 17.6706 8.60748C17.8361 8.40567 17.8973 8.37569 18.1588 8.37569C18.4938 8.37569 18.5775 8.41166 18.5448 8.53955C18.5367 8.56952 18.4468 8.67942 18.3426 8.78532C17.9668 9.16897 17.6788 9.48269 17.6788 9.51066C17.6788 9.52465 17.8728 9.81039 18.1077 10.1441C18.5775 10.8055 18.5959 10.8454 18.4815 10.9174C18.4345 10.9474 18.3794 10.9534 18.1363 10.9534L18.0987 10.9534C17.9612 10.9536 17.8867 10.9537 17.8281 10.9239C17.7589 10.8887 17.7119 10.8117 17.6093 10.6437L17.5848 10.6037C17.452 10.3859 17.1681 9.98623 17.0006 9.78242L16.9455 9.71448L16.9434 10.3059C16.9434 10.8315 16.9394 10.9014 16.9087 10.9254C16.8842 10.9454 16.8025 10.9534 16.5921 10.9534C16.3164 10.9534 16.3062 10.9514 16.2673 10.9054C16.2285 10.8594 16.2285 10.8135 16.2326 9.21094L16.2388 7.56243ZM1.72825 8.38769C1.32995 8.43964 1.02356 8.61948 0.856068 8.89923C0.721257 9.12302 0.649767 9.48669 0.670193 9.84037C0.702874 10.3979 0.925516 10.7296 1.36263 10.8754C1.74664 11.0033 2.11022 10.9833 2.47584 10.8155C2.67806 10.7216 2.69644 10.6896 2.69644 10.4178C2.69644 10.23 2.69235 10.198 2.65763 10.1741C2.61269 10.1401 2.57184 10.1541 2.40026 10.262C2.24094 10.3639 2.14494 10.3919 1.95907 10.3919C1.76502 10.3919 1.6057 10.3199 1.53216 10.196C1.33812 9.87234 1.3422 9.40676 1.53829 9.10304C1.62612 8.96916 1.74868 8.91521 1.96111 8.91521C2.13473 8.91721 2.25728 8.95717 2.42886 9.07107C2.53508 9.143 2.60861 9.14101 2.67193 9.06507C2.76589 8.95717 2.76793 8.78133 2.67397 8.64146C2.55959 8.46562 2.08979 8.33973 1.72825 8.38769ZM6.54269 8.63146C6.6775 8.49359 6.81027 8.41166 6.93691 8.38768C6.98593 8.37769 7.04925 8.3717 7.07785 8.3757L7.09471 8.37797C7.24179 8.3978 7.31418 8.40756 7.34978 8.44817C7.38428 8.48751 7.38426 8.55581 7.38424 8.69026L7.38424 8.70846C7.38424 8.87144 7.38425 8.94781 7.34529 8.98359C7.31094 9.01515 7.24629 9.01514 7.12462 9.01512L7.11461 9.01511C6.91853 9.01511 6.89606 9.01911 6.79393 9.07506C6.73469 9.10703 6.65912 9.16498 6.62644 9.20494C6.51409 9.33682 6.50592 9.40276 6.50592 10.1741C6.50592 10.7475 6.4998 10.8834 6.47733 10.9154C6.45077 10.9494 6.42218 10.9534 6.15868 10.9534C5.89519 10.9534 5.86659 10.9494 5.84004 10.9154C5.81553 10.8814 5.81144 10.6816 5.81144 9.6885V8.50158L5.87068 8.44363C5.92787 8.38968 5.94013 8.38569 6.10353 8.38569C6.24651 8.38569 6.28532 8.39368 6.32822 8.42565C6.38541 8.46961 6.42422 8.57352 6.42422 8.68342V8.74936L6.54269 8.63146ZM3.19287 8.66543C3.26028 8.57152 3.59322 8.44363 3.89144 8.39967C3.92003 8.39368 4.05484 8.38968 4.19374 8.38768C4.79017 8.38169 5.12924 8.54954 5.24363 8.91121C5.28857 9.05108 5.29061 9.07706 5.29061 9.95826V10.8594L5.24159 10.9114C5.19461 10.9593 5.18031 10.9633 5.00056 10.9633C4.8249 10.9633 4.80447 10.9593 4.75954 10.9154C4.73094 10.8874 4.70643 10.8335 4.69826 10.7755C4.69009 10.7256 4.67987 10.6836 4.67579 10.6836C4.6717 10.6836 4.62064 10.7196 4.56345 10.7615C4.36736 10.9074 4.07527 10.9793 3.78931 10.9553C3.29704 10.9114 3.01108 10.6436 3.01108 10.224C3.01108 9.93028 3.14181 9.72247 3.40734 9.59459C3.61977 9.49468 3.75663 9.4667 4.14676 9.44273L4.24961 9.43696C4.48011 9.42424 4.55715 9.41999 4.57918 9.38374C4.59025 9.36555 4.58745 9.33929 4.58325 9.29985C4.58212 9.2892 4.58088 9.27756 4.57979 9.26489C4.55528 8.97915 4.43681 8.88124 4.11612 8.88124C3.9139 8.87924 3.78318 8.91121 3.49313 9.0271C3.31134 9.10104 3.27253 9.10903 3.22964 9.08905C3.13159 9.04509 3.10708 8.78133 3.19287 8.66543ZM12.1128 8.39967C12.0903 8.40567 12.0556 8.42365 12.0372 8.44164C12.0025 8.46961 12.0004 8.55353 12.0004 9.67452C12.0004 10.8714 12.0004 10.8774 12.0433 10.9154C12.0821 10.9494 12.1189 10.9534 12.362 10.9534C12.6275 10.9534 12.6398 10.9514 12.6765 10.9054C12.7133 10.8614 12.7153 10.8115 12.7153 9.68051C12.7153 8.95117 12.7072 8.48959 12.6949 8.46561C12.6847 8.44563 12.6459 8.41966 12.6112 8.40767C12.5478 8.38569 12.1945 8.38169 12.1128 8.39967Z" fill="#333333"/>
</svg>
